<?xml version="1.0" encoding="utf-8" standalone="no"?>
<!DOCTYPE svg PUBLIC "-//W3C//DTD SVG 1.1//EN"
  "http://www.w3.org/Graphics/SVG/1.1/DTD/svg11.dtd">
<svg xmlns:xlink="http://www.w3.org/1999/xlink" width="396pt" height="180pt" viewBox="0 0 396 180" xmlns="http://www.w3.org/2000/svg" version="1.1">
 <metadata>
  <rdf:RDF xmlns:dc="http://purl.org/dc/elements/1.1/" xmlns:cc="http://creativecommons.org/ns#" xmlns:rdf="http://www.w3.org/1999/02/22-rdf-syntax-ns#">
   <cc:Work>
    <dc:type rdf:resource="http://purl.org/dc/dcmitype/StillImage"/>
    <dc:date>2022-09-07T14:39:17.439390</dc:date>
    <dc:format>image/svg+xml</dc:format>
    <dc:creator>
     <cc:Agent>
      <dc:title>Matplotlib v3.5.3, https://matplotlib.org/</dc:title>
     </cc:Agent>
    </dc:creator>
   </cc:Work>
  </rdf:RDF>
 </metadata>
 <defs>
  <style type="text/css">*{stroke-linejoin: round; stroke-linecap: butt}</style>
 </defs>
 <g id="figure_1">
  <g id="patch_1">
   <path d="M 0 180 
L 396 180 
L 396 0 
L 0 0 
z
" style="fill: #ffffff"/>
  </g>
  <g id="axes_1">
   <g id="patch_2">
    <path d="M 46.99 107.94 
L 191.25 107.94 
L 191.25 11.5 
L 46.99 11.5 
z
" style="fill: #ffffff"/>
   </g>
   <g id="PolyCollection_1">
    <defs>
     <path id="m638607e62b" d="M 65.923168 -74.490406 
L 55.222676 -74.490406 
L 55.02545 -74.797546 
L 54.873173 -75.104686 
L 54.769849 -75.411827 
L 54.718214 -75.718967 
L 54.71961 -76.026107 
L 54.773914 -76.333247 
L 54.879545 -76.640387 
L 55.033524 -76.947527 
L 55.231602 -77.254667 
L 55.468437 -77.561807 
L 55.73782 -77.868947 
L 56.032915 -78.176087 
L 56.346534 -78.483228 
L 56.671392 -78.790368 
L 57.00036 -79.097508 
L 57.326693 -79.404648 
L 57.644214 -79.711788 
L 57.94747 -80.018928 
L 58.23183 -80.326068 
L 58.493553 -80.633208 
L 58.729803 -80.940348 
L 58.938636 -81.247489 
L 59.118949 -81.554629 
L 59.270411 -81.861769 
L 59.393376 -82.168909 
L 59.488787 -82.476049 
L 59.558078 -82.783189 
L 59.603079 -83.090329 
L 59.625925 -83.397469 
L 59.628976 -83.704609 
L 59.614742 -84.011749 
L 59.585827 -84.31889 
L 59.54487 -84.62603 
L 59.494504 -84.93317 
L 59.437314 -85.24031 
L 59.375806 -85.54745 
L 59.31237 -85.85459 
L 59.249255 -86.16173 
L 59.188541 -86.46887 
L 59.132114 -86.77601 
L 59.081636 -87.083151 
L 59.038534 -87.390291 
L 59.00397 -87.697431 
L 58.978839 -88.004571 
L 58.963751 -88.311711 
L 58.959037 -88.618851 
L 58.964746 -88.925991 
L 58.980662 -89.233131 
L 59.00632 -89.540271 
L 59.041031 -89.847411 
L 59.08391 -90.154552 
L 59.133911 -90.461692 
L 59.189865 -90.768832 
L 59.250516 -91.075972 
L 59.314565 -91.383112 
L 59.380701 -91.690252 
L 59.447641 -91.997392 
L 59.514163 -92.304532 
L 59.579133 -92.611672 
L 59.641529 -92.918813 
L 59.700464 -93.225953 
L 59.755193 -93.533093 
L 59.805132 -93.840233 
L 59.849856 -94.147373 
L 59.889101 -94.454513 
L 59.922762 -94.761653 
L 59.950885 -95.068793 
L 59.973653 -95.375933 
L 59.991376 -95.683073 
L 60.004475 -95.990214 
L 60.013459 -96.297354 
L 60.018909 -96.604494 
L 60.021457 -96.911634 
L 60.021765 -97.218774 
L 60.020501 -97.525914 
L 60.018323 -97.833054 
L 60.015858 -98.140194 
L 60.013686 -98.447334 
L 60.012325 -98.754475 
L 60.012222 -99.061615 
L 60.013741 -99.368755 
L 60.017163 -99.675895 
L 60.02268 -99.983035 
L 60.030399 -100.290175 
L 60.040349 -100.597315 
L 60.052482 -100.904455 
L 60.066691 -101.211595 
L 60.082811 -101.518735 
L 60.100639 -101.825876 
L 60.11994 -102.133016 
L 60.14046 -102.440156 
L 60.161939 -102.747296 
L 60.184115 -103.054436 
L 60.206737 -103.361576 
L 60.229566 -103.668716 
L 60.252385 -103.975856 
L 60.274994 -104.282996 
L 60.297221 -104.590137 
L 60.318914 -104.897277 
L 60.82693 -104.897277 
L 60.82693 -104.897277 
L 60.848623 -104.590137 
L 60.87085 -104.282996 
L 60.89346 -103.975856 
L 60.916278 -103.668716 
L 60.939107 -103.361576 
L 60.961729 -103.054436 
L 60.983905 -102.747296 
L 61.005384 -102.440156 
L 61.025904 -102.133016 
L 61.045205 -101.825876 
L 61.063033 -101.518735 
L 61.079153 -101.211595 
L 61.093362 -100.904455 
L 61.105496 -100.597315 
L 61.115445 -100.290175 
L 61.123164 -99.983035 
L 61.128681 -99.675895 
L 61.132103 -99.368755 
L 61.133622 -99.061615 
L 61.133519 -98.754475 
L 61.132158 -98.447334 
L 61.129986 -98.140194 
L 61.127521 -97.833054 
L 61.125343 -97.525914 
L 61.124079 -97.218774 
L 61.124387 -96.911634 
L 61.126935 -96.604494 
L 61.132386 -96.297354 
L 61.141369 -95.990214 
L 61.154468 -95.683073 
L 61.172191 -95.375933 
L 61.194959 -95.068793 
L 61.223082 -94.761653 
L 61.256743 -94.454513 
L 61.295988 -94.147373 
L 61.340712 -93.840233 
L 61.390651 -93.533093 
L 61.44538 -93.225953 
L 61.504315 -92.918813 
L 61.566711 -92.611672 
L 61.631681 -92.304532 
L 61.698203 -91.997392 
L 61.765143 -91.690252 
L 61.831279 -91.383112 
L 61.895328 -91.075972 
L 61.95598 -90.768832 
L 62.011934 -90.461692 
L 62.061935 -90.154552 
L 62.104813 -89.847411 
L 62.139524 -89.540271 
L 62.165182 -89.233131 
L 62.181098 -88.925991 
L 62.186807 -88.618851 
L 62.182093 -88.311711 
L 62.167005 -88.004571 
L 62.141874 -87.697431 
L 62.107311 -87.390291 
L 62.064208 -87.083151 
L 62.013731 -86.77601 
L 61.957303 -86.46887 
L 61.896589 -86.16173 
L 61.833475 -85.85459 
L 61.770038 -85.54745 
L 61.70853 -85.24031 
L 61.65134 -84.93317 
L 61.600974 -84.62603 
L 61.560018 -84.31889 
L 61.531102 -84.011749 
L 61.516869 -83.704609 
L 61.519919 -83.397469 
L 61.542765 -83.090329 
L 61.587766 -82.783189 
L 61.657057 -82.476049 
L 61.752468 -82.168909 
L 61.875433 -81.861769 
L 62.026895 -81.554629 
L 62.207208 -81.247489 
L 62.416041 -80.940348 
L 62.652291 -80.633208 
L 62.914014 -80.326068 
L 63.198374 -80.018928 
L 63.50163 -79.711788 
L 63.819151 -79.404648 
L 64.145484 -79.097508 
L 64.474453 -78.790368 
L 64.79931 -78.483228 
L 65.112929 -78.176087 
L 65.408025 -77.868947 
L 65.677407 -77.561807 
L 65.914243 -77.254667 
L 66.11232 -76.947527 
L 66.266299 -76.640387 
L 66.37193 -76.333247 
L 66.426234 -76.026107 
L 66.42763 -75.718967 
L 66.375996 -75.411827 
L 66.272671 -75.104686 
L 66.120394 -74.797546 
L 65.923168 -74.490406 
z
" style="stroke: #808080; stroke-opacity: 0.8"/>
    </defs>
    <g clip-path="url(#p730f3d0239)">
     <use xlink:href="#m638607e62b" x="0" y="180" style="fill: #1f77b4; fill-opacity: 0.8; stroke: #808080; stroke-opacity: 0.8"/>
    </g>
   </g>
   <g id="PolyCollection_2">
    <defs>
     <path id="m11b97a7956" d="M 84.138243 -91.474001 
L 83.845264 -91.474001 
L 83.844647 -91.829191 
L 83.84625 -92.184381 
L 83.84961 -92.539571 
L 83.854109 -92.894761 
L 83.859034 -93.24995 
L 83.863653 -93.60514 
L 83.86729 -93.96033 
L 83.869403 -94.31552 
L 83.869628 -94.67071 
L 83.867814 -95.0259 
L 83.864021 -95.38109 
L 83.858486 -95.73628 
L 83.851565 -96.09147 
L 83.843652 -96.44666 
L 83.83508 -96.80185 
L 83.826026 -97.15704 
L 83.81642 -97.51223 
L 83.805877 -97.867419 
L 83.793658 -98.222609 
L 83.778666 -98.577799 
L 83.759485 -98.932989 
L 83.734453 -99.288179 
L 83.701772 -99.643369 
L 83.659645 -99.998559 
L 83.60643 -100.353749 
L 83.540798 -100.708939 
L 83.461891 -101.064129 
L 83.369448 -101.419319 
L 83.263909 -101.774509 
L 83.146464 -102.129698 
L 83.019044 -102.484888 
L 82.884246 -102.840078 
L 82.745182 -103.195268 
L 82.605266 -103.550458 
L 82.467943 -103.905648 
L 82.336395 -104.260838 
L 82.213237 -104.616028 
L 82.100261 -104.971218 
L 81.998238 -105.326408 
L 81.906826 -105.681598 
L 81.824594 -106.036788 
L 81.749159 -106.391978 
L 81.677423 -106.747167 
L 81.605878 -107.102357 
L 81.530939 -107.457547 
L 81.449249 -107.812737 
L 81.357932 -108.167927 
L 81.254746 -108.523117 
L 81.138155 -108.878307 
L 81.007298 -109.233497 
L 80.861911 -109.588687 
L 80.702221 -109.943877 
L 80.52886 -110.299067 
L 80.342825 -110.654257 
L 80.145501 -111.009447 
L 79.93874 -111.364636 
L 79.724977 -111.719826 
L 79.507335 -112.075016 
L 79.289696 -112.430206 
L 79.076665 -112.785396 
L 78.873447 -113.140586 
L 78.685579 -113.495776 
L 78.518584 -113.850966 
L 78.377543 -114.206156 
L 78.266672 -114.561346 
L 78.188935 -114.916536 
L 78.145785 -115.271726 
L 78.137045 -115.626916 
L 78.160984 -115.982105 
L 78.21456 -116.337295 
L 78.293827 -116.692485 
L 78.394431 -117.047675 
L 78.512138 -117.402865 
L 78.643322 -117.758055 
L 78.785324 -118.113245 
L 78.936654 -118.468435 
L 79.096988 -118.823625 
L 79.266984 -119.178815 
L 79.447926 -119.534005 
L 79.641288 -119.889195 
L 79.848254 -120.244385 
L 80.0693 -120.599574 
L 80.30388 -120.954764 
L 80.550266 -121.309954 
L 80.805573 -121.665144 
L 81.065934 -122.020334 
L 81.32682 -122.375524 
L 81.583432 -122.730714 
L 81.831125 -123.085904 
L 82.065798 -123.441094 
L 82.284209 -123.796284 
L 82.484164 -124.151474 
L 82.664599 -124.506664 
L 82.825518 -124.861854 
L 82.96784 -125.217043 
L 83.093163 -125.572233 
L 83.203501 -125.927423 
L 83.301011 -126.282613 
L 83.387764 -126.637803 
L 84.595742 -126.637803 
L 84.595742 -126.637803 
L 84.682495 -126.282613 
L 84.780005 -125.927423 
L 84.890343 -125.572233 
L 85.015667 -125.217043 
L 85.157988 -124.861854 
L 85.318907 -124.506664 
L 85.499342 -124.151474 
L 85.699298 -123.796284 
L 85.917708 -123.441094 
L 86.152382 -123.085904 
L 86.400075 -122.730714 
L 86.656686 -122.375524 
L 86.917572 -122.020334 
L 87.177934 -121.665144 
L 87.433241 -121.309954 
L 87.679627 -120.954764 
L 87.914206 -120.599574 
L 88.135252 -120.244385 
L 88.342219 -119.889195 
L 88.53558 -119.534005 
L 88.716523 -119.178815 
L 88.886518 -118.823625 
L 89.046853 -118.468435 
L 89.198183 -118.113245 
L 89.340185 -117.758055 
L 89.471368 -117.402865 
L 89.589076 -117.047675 
L 89.689679 -116.692485 
L 89.768946 -116.337295 
L 89.822522 -115.982105 
L 89.846461 -115.626916 
L 89.837722 -115.271726 
L 89.794571 -114.916536 
L 89.716835 -114.561346 
L 89.605963 -114.206156 
L 89.464923 -113.850966 
L 89.297928 -113.495776 
L 89.11006 -113.140586 
L 88.906841 -112.785396 
L 88.693811 -112.430206 
L 88.476171 -112.075016 
L 88.25853 -111.719826 
L 88.044766 -111.364636 
L 87.838006 -111.009447 
L 87.640682 -110.654257 
L 87.454646 -110.299067 
L 87.281285 -109.943877 
L 87.121595 -109.588687 
L 86.976208 -109.233497 
L 86.845351 -108.878307 
L 86.72876 -108.523117 
L 86.625575 -108.167927 
L 86.534257 -107.812737 
L 86.452567 -107.457547 
L 86.377628 -107.102357 
L 86.306084 -106.747167 
L 86.234347 -106.391978 
L 86.158912 -106.036788 
L 86.07668 -105.681598 
L 85.985268 -105.326408 
L 85.883245 -104.971218 
L 85.770269 -104.616028 
L 85.647112 -104.260838 
L 85.515563 -103.905648 
L 85.378241 -103.550458 
L 85.238324 -103.195268 
L 85.09926 -102.840078 
L 84.964462 -102.484888 
L 84.837043 -102.129698 
L 84.719598 -101.774509 
L 84.614059 -101.419319 
L 84.521616 -101.064129 
L 84.442708 -100.708939 
L 84.377077 -100.353749 
L 84.323862 -99.998559 
L 84.281735 -99.643369 
L 84.249054 -99.288179 
L 84.224021 -98.932989 
L 84.20484 -98.577799 
L 84.189848 -98.222609 
L 84.177629 -97.867419 
L 84.167086 -97.51223 
L 84.157481 -97.15704 
L 84.148427 -96.80185 
L 84.139855 -96.44666 
L 84.131942 -96.09147 
L 84.125021 -95.73628 
L 84.119486 -95.38109 
L 84.115692 -95.0259 
L 84.113879 -94.67071 
L 84.114104 -94.31552 
L 84.116216 -93.96033 
L 84.119854 -93.60514 
L 84.124472 -93.24995 
L 84.129397 -92.894761 
L 84.133896 -92.539571 
L 84.137257 -92.184381 
L 84.138859 -91.829191 
L 84.138243 -91.474001 
z
" style="stroke: #808080; stroke-opacity: 0.8"/>
    </defs>
    <g clip-path="url(#p730f3d0239)">
     <use xlink:href="#m11b97a7956" x="0" y="180" style="fill: #ff7f0e; fill-opacity: 0.8; stroke: #808080; stroke-opacity: 0.8"/>
    </g>
   </g>
   <g id="PolyCollection_3">
    <defs>
     <path id="m2484e6f6da" d="M 107.544372 -100.456299 
L 107.276797 -100.456299 
L 107.278842 -100.762073 
L 107.284791 -101.067846 
L 107.294114 -101.37362 
L 107.306015 -101.679394 
L 107.319542 -101.985167 
L 107.333708 -102.290941 
L 107.34761 -102.596715 
L 107.360502 -102.902488 
L 107.371845 -103.208262 
L 107.381307 -103.514036 
L 107.388728 -103.819809 
L 107.394062 -104.125583 
L 107.397305 -104.431357 
L 107.398426 -104.73713 
L 107.397307 -105.042904 
L 107.393704 -105.348678 
L 107.387226 -105.654451 
L 107.377353 -105.960225 
L 107.363472 -106.265999 
L 107.344937 -106.571772 
L 107.321146 -106.877546 
L 107.29161 -107.18332 
L 107.256009 -107.489093 
L 107.214199 -107.794867 
L 107.166171 -108.100641 
L 107.111951 -108.406414 
L 107.051459 -108.712188 
L 106.984346 -109.017962 
L 106.90987 -109.323735 
L 106.826834 -109.629509 
L 106.733636 -109.935283 
L 106.628442 -110.241056 
L 106.509466 -110.54683 
L 106.375324 -110.852604 
L 106.225376 -111.158377 
L 106.060007 -111.464151 
L 105.880754 -111.769925 
L 105.690262 -112.075698 
L 105.492044 -112.381472 
L 105.290095 -112.687246 
L 105.088403 -112.993019 
L 104.890457 -113.298793 
L 104.698811 -113.604567 
L 104.51478 -113.91034 
L 104.338302 -114.216114 
L 104.167966 -114.521888 
L 104.001205 -114.827661 
L 103.834622 -115.133435 
L 103.664419 -115.439209 
L 103.486907 -115.744982 
L 103.299079 -116.050756 
L 103.099202 -116.356529 
L 102.887403 -116.662303 
L 102.666162 -116.968077 
L 102.440636 -117.27385 
L 102.2187 -117.579624 
L 102.010627 -117.885398 
L 101.82836 -118.191171 
L 101.684403 -118.496945 
L 101.590439 -118.802719 
L 101.555877 -119.108492 
L 101.58655 -119.414266 
L 101.68382 -119.72004 
L 101.84425 -120.025813 
L 102.059945 -120.331587 
L 102.31951 -120.637361 
L 102.609458 -120.943134 
L 102.915833 -121.248908 
L 103.225752 -121.554682 
L 103.528633 -121.860455 
L 103.816943 -122.166229 
L 104.086381 -122.472003 
L 104.335578 -122.777776 
L 104.565415 -123.08355 
L 104.778171 -123.389324 
L 104.976661 -123.695097 
L 105.163529 -124.000871 
L 105.34079 -124.306645 
L 105.509644 -124.612418 
L 105.670533 -124.918192 
L 105.823362 -125.223966 
L 105.967793 -125.529739 
L 106.103512 -125.835513 
L 106.230413 -126.141287 
L 106.348661 -126.44706 
L 106.458633 -126.752834 
L 106.560789 -127.058608 
L 106.655516 -127.364381 
L 106.743008 -127.670155 
L 106.82322 -127.975929 
L 106.895917 -128.281702 
L 106.960798 -128.587476 
L 107.017665 -128.89325 
L 107.066578 -129.199023 
L 107.107964 -129.504797 
L 107.14264 -129.810571 
L 107.171743 -130.116344 
L 107.19659 -130.422118 
L 107.218499 -130.727892 
L 107.60267 -130.727892 
L 107.60267 -130.727892 
L 107.624579 -130.422118 
L 107.649426 -130.116344 
L 107.678529 -129.810571 
L 107.713205 -129.504797 
L 107.754591 -129.199023 
L 107.803504 -128.89325 
L 107.86037 -128.587476 
L 107.925252 -128.281702 
L 107.997949 -127.975929 
L 108.078161 -127.670155 
L 108.165653 -127.364381 
L 108.26038 -127.058608 
L 108.362536 -126.752834 
L 108.472508 -126.44706 
L 108.590755 -126.141287 
L 108.717657 -125.835513 
L 108.853376 -125.529739 
L 108.997807 -125.223966 
L 109.150636 -124.918192 
L 109.311525 -124.612418 
L 109.480379 -124.306645 
L 109.65764 -124.000871 
L 109.844507 -123.695097 
L 110.042997 -123.389324 
L 110.255754 -123.08355 
L 110.485591 -122.777776 
L 110.734787 -122.472003 
L 111.004226 -122.166229 
L 111.292535 -121.860455 
L 111.595417 -121.554682 
L 111.905335 -121.248908 
L 112.21171 -120.943134 
L 112.501659 -120.637361 
L 112.761224 -120.331587 
L 112.976919 -120.025813 
L 113.137348 -119.72004 
L 113.234618 -119.414266 
L 113.265292 -119.108492 
L 113.23073 -118.802719 
L 113.136766 -118.496945 
L 112.992809 -118.191171 
L 112.810542 -117.885398 
L 112.602469 -117.579624 
L 112.380533 -117.27385 
L 112.155007 -116.968077 
L 111.933766 -116.662303 
L 111.721967 -116.356529 
L 111.52209 -116.050756 
L 111.334261 -115.744982 
L 111.15675 -115.439209 
L 110.986546 -115.133435 
L 110.819964 -114.827661 
L 110.653203 -114.521888 
L 110.482867 -114.216114 
L 110.306389 -113.91034 
L 110.122358 -113.604567 
L 109.930711 -113.298793 
L 109.732765 -112.993019 
L 109.531074 -112.687246 
L 109.329125 -112.381472 
L 109.130907 -112.075698 
L 108.940415 -111.769925 
L 108.761162 -111.464151 
L 108.595792 -111.158377 
L 108.445845 -110.852604 
L 108.311703 -110.54683 
L 108.192727 -110.241056 
L 108.087532 -109.935283 
L 107.994334 -109.629509 
L 107.911299 -109.323735 
L 107.836823 -109.017962 
L 107.76971 -108.712188 
L 107.709218 -108.406414 
L 107.654998 -108.100641 
L 107.60697 -107.794867 
L 107.56516 -107.489093 
L 107.529559 -107.18332 
L 107.500023 -106.877546 
L 107.476231 -106.571772 
L 107.457696 -106.265999 
L 107.443816 -105.960225 
L 107.433943 -105.654451 
L 107.427465 -105.348678 
L 107.423861 -105.042904 
L 107.422743 -104.73713 
L 107.423864 -104.431357 
L 107.427107 -104.125583 
L 107.43244 -103.819809 
L 107.439862 -103.514036 
L 107.449324 -103.208262 
L 107.460667 -102.902488 
L 107.473559 -102.596715 
L 107.48746 -102.290941 
L 107.501627 -101.985167 
L 107.515154 -101.679394 
L 107.527055 -101.37362 
L 107.536378 -101.067846 
L 107.542327 -100.762073 
L 107.544372 -100.456299 
z
" style="stroke: #808080; stroke-opacity: 0.8"/>
    </defs>
    <g clip-path="url(#p730f3d0239)">
     <use xlink:href="#m2484e6f6da" x="0" y="180" style="fill: #2ca02c; fill-opacity: 0.8; stroke: #808080; stroke-opacity: 0.8"/>
    </g>
   </g>
   <g id="PolyCollection_4">
    <defs>
     <path id="mc7a7d38290" d="M 131.294498 -119.005005 
L 130.364333 -119.005005 
L 130.319579 -119.156484 
L 130.273877 -119.307962 
L 130.227439 -119.459441 
L 130.180444 -119.61092 
L 130.133046 -119.762399 
L 130.085362 -119.913878 
L 130.037486 -120.065356 
L 129.989484 -120.216835 
L 129.941404 -120.368314 
L 129.893273 -120.519793 
L 129.845101 -120.671272 
L 129.796876 -120.822751 
L 129.748563 -120.974229 
L 129.700092 -121.125708 
L 129.651357 -121.277187 
L 129.602202 -121.428666 
L 129.552421 -121.580145 
L 129.501755 -121.731623 
L 129.449893 -121.883102 
L 129.396485 -122.034581 
L 129.341152 -122.18606 
L 129.283508 -122.337539 
L 129.223184 -122.489018 
L 129.159855 -122.640496 
L 129.093265 -122.791975 
L 129.023254 -122.943454 
L 128.949775 -123.094933 
L 128.872909 -123.246412 
L 128.792873 -123.39789 
L 128.710014 -123.549369 
L 128.6248 -123.700848 
L 128.5378 -123.852327 
L 128.449657 -124.003806 
L 128.36106 -124.155285 
L 128.272707 -124.306763 
L 128.18527 -124.458242 
L 128.099356 -124.609721 
L 128.015473 -124.7612 
L 127.933992 -124.912679 
L 127.85512 -125.064157 
L 127.778864 -125.215636 
L 127.705014 -125.367115 
L 127.633124 -125.518594 
L 127.562508 -125.670073 
L 127.492243 -125.821552 
L 127.421193 -125.97303 
L 127.348052 -126.124509 
L 127.271393 -126.275988 
L 127.189753 -126.427467 
L 127.10172 -126.578946 
L 127.006037 -126.730424 
L 126.901708 -126.881903 
L 126.788104 -127.033382 
L 126.665055 -127.184861 
L 126.532921 -127.33634 
L 126.39263 -127.487819 
L 126.245695 -127.639297 
L 126.094177 -127.790776 
L 125.94063 -127.942255 
L 125.787998 -128.093734 
L 125.6395 -128.245213 
L 125.498495 -128.396691 
L 125.368346 -128.54817 
L 125.252283 -128.699649 
L 125.153292 -128.851128 
L 125.07402 -129.002607 
L 125.016711 -129.154086 
L 124.98316 -129.305564 
L 124.974708 -129.457043 
L 124.992235 -129.608522 
L 125.036186 -129.760001 
L 125.106587 -129.91148 
L 125.203068 -130.062958 
L 125.324881 -130.214437 
L 125.47091 -130.365916 
L 125.639676 -130.517395 
L 125.829339 -130.668874 
L 126.037706 -130.820353 
L 126.262246 -130.971831 
L 126.500121 -131.12331 
L 126.748234 -131.274789 
L 127.003304 -131.426268 
L 127.261948 -131.577747 
L 127.520792 -131.729225 
L 127.776582 -131.880704 
L 128.026298 -132.032183 
L 128.267258 -132.183662 
L 128.497207 -132.335141 
L 128.714379 -132.48662 
L 128.917528 -132.638098 
L 129.105932 -132.789577 
L 129.279361 -132.941056 
L 129.438025 -133.092535 
L 129.582496 -133.244014 
L 129.71362 -133.395492 
L 129.832425 -133.546971 
L 129.940028 -133.69845 
L 130.037558 -133.849929 
L 130.12609 -134.001408 
L 131.532741 -134.001408 
L 131.532741 -134.001408 
L 131.621273 -133.849929 
L 131.718803 -133.69845 
L 131.826406 -133.546971 
L 131.945211 -133.395492 
L 132.076335 -133.244014 
L 132.220807 -133.092535 
L 132.379471 -132.941056 
L 132.5529 -132.789577 
L 132.741303 -132.638098 
L 132.944452 -132.48662 
L 133.161624 -132.335141 
L 133.391573 -132.183662 
L 133.632533 -132.032183 
L 133.882249 -131.880704 
L 134.138039 -131.729225 
L 134.396883 -131.577747 
L 134.655527 -131.426268 
L 134.910597 -131.274789 
L 135.158711 -131.12331 
L 135.396585 -130.971831 
L 135.621125 -130.820353 
L 135.829492 -130.668874 
L 136.019155 -130.517395 
L 136.187921 -130.365916 
L 136.33395 -130.214437 
L 136.455764 -130.062958 
L 136.552244 -129.91148 
L 136.622645 -129.760001 
L 136.666596 -129.608522 
L 136.684123 -129.457043 
L 136.675671 -129.305564 
L 136.642121 -129.154086 
L 136.584811 -129.002607 
L 136.505539 -128.851128 
L 136.406548 -128.699649 
L 136.290485 -128.54817 
L 136.160336 -128.396691 
L 136.019331 -128.245213 
L 135.870834 -128.093734 
L 135.718201 -127.942255 
L 135.564654 -127.790776 
L 135.413137 -127.639297 
L 135.266201 -127.487819 
L 135.125911 -127.33634 
L 134.993776 -127.184861 
L 134.870727 -127.033382 
L 134.757124 -126.881903 
L 134.652794 -126.730424 
L 134.557111 -126.578946 
L 134.469078 -126.427467 
L 134.387438 -126.275988 
L 134.31078 -126.124509 
L 134.237638 -125.97303 
L 134.166589 -125.821552 
L 134.096323 -125.670073 
L 134.025707 -125.518594 
L 133.953817 -125.367115 
L 133.879967 -125.215636 
L 133.803711 -125.064157 
L 133.724839 -124.912679 
L 133.643359 -124.7612 
L 133.559475 -124.609721 
L 133.473561 -124.458242 
L 133.386124 -124.306763 
L 133.297771 -124.155285 
L 133.209175 -124.003806 
L 133.121032 -123.852327 
L 133.034031 -123.700848 
L 132.948817 -123.549369 
L 132.865958 -123.39789 
L 132.785922 -123.246412 
L 132.709057 -123.094933 
L 132.635577 -122.943454 
L 132.565566 -122.791975 
L 132.498976 -122.640496 
L 132.435648 -122.489018 
L 132.375324 -122.337539 
L 132.317679 -122.18606 
L 132.262346 -122.034581 
L 132.208938 -121.883102 
L 132.157076 -121.731623 
L 132.10641 -121.580145 
L 132.056629 -121.428666 
L 132.007474 -121.277187 
L 131.958739 -121.125708 
L 131.910268 -120.974229 
L 131.861955 -120.822751 
L 131.813731 -120.671272 
L 131.765559 -120.519793 
L 131.717428 -120.368314 
L 131.669347 -120.216835 
L 131.621346 -120.065356 
L 131.573469 -119.913878 
L 131.525786 -119.762399 
L 131.478387 -119.61092 
L 131.431393 -119.459441 
L 131.384954 -119.307962 
L 131.339252 -119.156484 
L 131.294498 -119.005005 
z
" style="stroke: #808080; stroke-opacity: 0.8"/>
    </defs>
    <g clip-path="url(#p730f3d0239)">
     <use xlink:href="#mc7a7d38290" x="0" y="180" style="fill: #d62728; fill-opacity: 0.8; stroke: #808080; stroke-opacity: 0.8"/>
    </g>
   </g>
   <g id="PolyCollection_5">
    <defs>
     <path id="m80751341c3" d="M 154.422351 -110.712014 
L 154.074142 -110.712014 
L 154.075189 -110.95094 
L 154.079007 -111.189866 
L 154.085235 -111.428792 
L 154.093334 -111.667718 
L 154.102611 -111.906644 
L 154.112256 -112.14557 
L 154.121374 -112.384496 
L 154.12903 -112.623422 
L 154.134285 -112.862349 
L 154.136233 -113.101275 
L 154.134034 -113.340201 
L 154.12694 -113.579127 
L 154.114328 -113.818053 
L 154.095717 -114.056979 
L 154.070788 -114.295905 
L 154.039398 -114.534831 
L 154.001579 -114.773757 
L 153.957526 -115.012683 
L 153.90757 -115.251609 
L 153.852132 -115.490535 
L 153.791651 -115.729462 
L 153.726512 -115.968388 
L 153.656947 -116.207314 
L 153.582953 -116.44624 
L 153.504214 -116.685166 
L 153.420045 -116.924092 
L 153.329373 -117.163018 
L 153.230759 -117.401944 
L 153.122462 -117.64087 
L 153.002544 -117.879796 
L 152.869008 -118.118722 
L 152.719963 -118.357649 
L 152.553794 -118.596575 
L 152.369331 -118.835501 
L 152.165994 -119.074427 
L 151.94392 -119.313353 
L 151.704036 -119.552279 
L 151.44811 -119.791205 
L 151.178741 -120.030131 
L 150.899317 -120.269057 
L 150.613925 -120.507983 
L 150.327227 -120.746909 
L 150.044296 -120.985835 
L 149.77042 -121.224762 
L 149.510887 -121.463688 
L 149.270738 -121.702614 
L 149.054525 -121.94154 
L 148.86607 -122.180466 
L 148.708235 -122.419392 
L 148.582746 -122.658318 
L 148.490057 -122.897244 
L 148.42929 -123.13617 
L 148.39825 -123.375096 
L 148.393539 -123.614022 
L 148.410743 -123.852949 
L 148.444704 -124.091875 
L 148.489859 -124.330801 
L 148.540604 -124.569727 
L 148.591677 -124.808653 
L 148.638514 -125.047579 
L 148.677542 -125.286505 
L 148.706395 -125.525431 
L 148.724015 -125.764357 
L 148.730639 -126.003283 
L 148.727679 -126.242209 
L 148.717498 -126.481136 
L 148.703118 -126.720062 
L 148.687896 -126.958988 
L 148.675203 -127.197914 
L 148.668141 -127.43684 
L 148.669324 -127.675766 
L 148.680757 -127.914692 
L 148.703786 -128.153618 
L 148.739152 -128.392544 
L 148.787093 -128.63147 
L 148.847496 -128.870396 
L 148.920058 -129.109322 
L 149.004427 -129.348249 
L 149.100315 -129.587175 
L 149.207555 -129.826101 
L 149.326105 -130.065027 
L 149.456004 -130.303953 
L 149.59729 -130.542879 
L 149.749904 -130.781805 
L 149.91359 -131.020731 
L 150.087814 -131.259657 
L 150.271721 -131.498583 
L 150.464128 -131.737509 
L 150.663563 -131.976436 
L 150.868335 -132.215362 
L 151.076628 -132.454288 
L 151.286609 -132.693214 
L 151.496516 -132.93214 
L 151.704733 -133.171066 
L 151.909832 -133.409992 
L 152.11058 -133.648918 
L 152.305919 -133.887844 
L 152.494925 -134.12677 
L 152.676757 -134.365696 
L 155.819737 -134.365696 
L 155.819737 -134.365696 
L 156.001569 -134.12677 
L 156.190574 -133.887844 
L 156.385913 -133.648918 
L 156.586661 -133.409992 
L 156.79176 -133.171066 
L 156.999978 -132.93214 
L 157.209884 -132.693214 
L 157.419865 -132.454288 
L 157.628159 -132.215362 
L 157.83293 -131.976436 
L 158.032365 -131.737509 
L 158.224772 -131.498583 
L 158.408679 -131.259657 
L 158.582904 -131.020731 
L 158.746589 -130.781805 
L 158.899204 -130.542879 
L 159.04049 -130.303953 
L 159.170388 -130.065027 
L 159.288938 -129.826101 
L 159.396178 -129.587175 
L 159.492067 -129.348249 
L 159.576436 -129.109322 
L 159.648997 -128.870396 
L 159.7094 -128.63147 
L 159.757341 -128.392544 
L 159.792707 -128.153618 
L 159.815737 -127.914692 
L 159.827169 -127.675766 
L 159.828353 -127.43684 
L 159.82129 -127.197914 
L 159.808597 -126.958988 
L 159.793376 -126.720062 
L 159.778995 -126.481136 
L 159.768814 -126.242209 
L 159.765855 -126.003283 
L 159.772479 -125.764357 
L 159.790098 -125.525431 
L 159.818951 -125.286505 
L 159.85798 -125.047579 
L 159.904816 -124.808653 
L 159.95589 -124.569727 
L 160.006634 -124.330801 
L 160.051789 -124.091875 
L 160.085751 -123.852949 
L 160.102955 -123.614022 
L 160.098243 -123.375096 
L 160.067204 -123.13617 
L 160.006436 -122.897244 
L 159.913747 -122.658318 
L 159.788259 -122.419392 
L 159.630424 -122.180466 
L 159.441968 -121.94154 
L 159.225756 -121.702614 
L 158.985607 -121.463688 
L 158.726073 -121.224762 
L 158.452198 -120.985835 
L 158.169267 -120.746909 
L 157.882568 -120.507983 
L 157.597176 -120.269057 
L 157.317752 -120.030131 
L 157.048383 -119.791205 
L 156.792457 -119.552279 
L 156.552574 -119.313353 
L 156.330499 -119.074427 
L 156.127163 -118.835501 
L 155.942699 -118.596575 
L 155.77653 -118.357649 
L 155.627485 -118.118722 
L 155.493949 -117.879796 
L 155.374031 -117.64087 
L 155.265734 -117.401944 
L 155.167121 -117.163018 
L 155.076449 -116.924092 
L 154.992279 -116.685166 
L 154.91354 -116.44624 
L 154.839547 -116.207314 
L 154.769982 -115.968388 
L 154.704842 -115.729462 
L 154.644362 -115.490535 
L 154.588923 -115.251609 
L 154.538968 -115.012683 
L 154.494915 -114.773757 
L 154.457095 -114.534831 
L 154.425705 -114.295905 
L 154.400777 -114.056979 
L 154.382165 -113.818053 
L 154.369553 -113.579127 
L 154.36246 -113.340201 
L 154.36026 -113.101275 
L 154.362209 -112.862349 
L 154.367464 -112.623422 
L 154.37512 -112.384496 
L 154.384238 -112.14557 
L 154.393882 -111.906644 
L 154.40316 -111.667718 
L 154.411258 -111.428792 
L 154.417486 -111.189866 
L 154.421304 -110.95094 
L 154.422351 -110.712014 
z
" style="stroke: #808080; stroke-opacity: 0.8"/>
    </defs>
    <g clip-path="url(#p730f3d0239)">
     <use xlink:href="#m80751341c3" x="0" y="180" style="fill: #9467bd; fill-opacity: 0.8; stroke: #808080; stroke-opacity: 0.8"/>
    </g>
   </g>
   <g id="PolyCollection_6">
    <defs>
     <path id="m74b21631b3" d="M 177.806057 -111.786322 
L 177.528099 -111.786322 
L 177.527159 -112.024103 
L 177.527926 -112.261883 
L 177.529966 -112.499664 
L 177.532697 -112.737445 
L 177.535436 -112.975225 
L 177.537456 -113.213006 
L 177.538043 -113.450786 
L 177.536562 -113.688567 
L 177.532513 -113.926348 
L 177.525576 -114.164128 
L 177.515639 -114.401909 
L 177.502809 -114.63969 
L 177.487397 -114.87747 
L 177.469884 -115.115251 
L 177.450865 -115.353032 
L 177.430981 -115.590812 
L 177.410837 -115.828593 
L 177.390921 -116.066374 
L 177.371539 -116.304154 
L 177.352754 -116.541935 
L 177.334362 -116.779716 
L 177.315886 -117.017496 
L 177.296611 -117.255277 
L 177.275641 -117.493058 
L 177.251969 -117.730838 
L 177.224571 -117.968619 
L 177.192488 -118.2064 
L 177.154898 -118.44418 
L 177.111171 -118.681961 
L 177.060892 -118.919742 
L 177.003861 -119.157522 
L 176.940072 -119.395303 
L 176.869678 -119.633084 
L 176.792942 -119.870864 
L 176.710211 -120.108645 
L 176.621881 -120.346426 
L 176.528396 -120.584206 
L 176.430248 -120.821987 
L 176.328 -121.059768 
L 176.222305 -121.297548 
L 176.113923 -121.535329 
L 176.003723 -121.77311 
L 175.892664 -122.01089 
L 175.781762 -122.248671 
L 175.67202 -122.486451 
L 175.564354 -122.724232 
L 175.459501 -122.962013 
L 175.357929 -123.199793 
L 175.259759 -123.437574 
L 175.164707 -123.675355 
L 175.072053 -123.913135 
L 174.980652 -124.150916 
L 174.888983 -124.388697 
L 174.795233 -124.626477 
L 174.697429 -124.864258 
L 174.59358 -125.102039 
L 174.481846 -125.339819 
L 174.360697 -125.5776 
L 174.229058 -125.815381 
L 174.086426 -126.053161 
L 173.932929 -126.290942 
L 173.769352 -126.528723 
L 173.597103 -126.766503 
L 173.418141 -127.004284 
L 173.234873 -127.242065 
L 173.050047 -127.479845 
L 172.86664 -127.717626 
L 172.687775 -127.955407 
L 172.51666 -128.193187 
L 172.356557 -128.430968 
L 172.210767 -128.668749 
L 172.082625 -128.906529 
L 171.975476 -129.14431 
L 171.892634 -129.382091 
L 171.837286 -129.619871 
L 171.81237 -129.857652 
L 171.820408 -130.095433 
L 171.863316 -130.333213 
L 171.942221 -130.570994 
L 172.057299 -130.808774 
L 172.207657 -131.046555 
L 172.391288 -131.284336 
L 172.605103 -131.522116 
L 172.845038 -131.759897 
L 173.106245 -131.997678 
L 173.383329 -132.235458 
L 173.670641 -132.473239 
L 173.962565 -132.71102 
L 174.253812 -132.9488 
L 174.539665 -133.186581 
L 174.816174 -133.424362 
L 175.080274 -133.662142 
L 175.329831 -133.899923 
L 175.563607 -134.137704 
L 175.781155 -134.375484 
L 175.982666 -134.613265 
L 176.168781 -134.851046 
L 176.340406 -135.088826 
L 176.498529 -135.326607 
L 178.835627 -135.326607 
L 178.835627 -135.326607 
L 178.99375 -135.088826 
L 179.165375 -134.851046 
L 179.35149 -134.613265 
L 179.553001 -134.375484 
L 179.770549 -134.137704 
L 180.004325 -133.899923 
L 180.253882 -133.662142 
L 180.517982 -133.424362 
L 180.794491 -133.186581 
L 181.080344 -132.9488 
L 181.371591 -132.71102 
L 181.663515 -132.473239 
L 181.950826 -132.235458 
L 182.227911 -131.997678 
L 182.489117 -131.759897 
L 182.729053 -131.522116 
L 182.942868 -131.284336 
L 183.126499 -131.046555 
L 183.276857 -130.808774 
L 183.391935 -130.570994 
L 183.47084 -130.333213 
L 183.513748 -130.095433 
L 183.521786 -129.857652 
L 183.49687 -129.619871 
L 183.441522 -129.382091 
L 183.35868 -129.14431 
L 183.251531 -128.906529 
L 183.123389 -128.668749 
L 182.977599 -128.430968 
L 182.817496 -128.193187 
L 182.646381 -127.955407 
L 182.467516 -127.717626 
L 182.284109 -127.479845 
L 182.099283 -127.242065 
L 181.916015 -127.004284 
L 181.737053 -126.766503 
L 181.564804 -126.528723 
L 181.401227 -126.290942 
L 181.24773 -126.053161 
L 181.105097 -125.815381 
L 180.973459 -125.5776 
L 180.85231 -125.339819 
L 180.740576 -125.102039 
L 180.636727 -124.864258 
L 180.538923 -124.626477 
L 180.445173 -124.388697 
L 180.353503 -124.150916 
L 180.262103 -123.913135 
L 180.169449 -123.675355 
L 180.074397 -123.437574 
L 179.976227 -123.199793 
L 179.874655 -122.962013 
L 179.769802 -122.724232 
L 179.662136 -122.486451 
L 179.552394 -122.248671 
L 179.441491 -122.01089 
L 179.330433 -121.77311 
L 179.220232 -121.535329 
L 179.11185 -121.297548 
L 179.006156 -121.059768 
L 178.903908 -120.821987 
L 178.80576 -120.584206 
L 178.712274 -120.346426 
L 178.623945 -120.108645 
L 178.541213 -119.870864 
L 178.464478 -119.633084 
L 178.394084 -119.395303 
L 178.330295 -119.157522 
L 178.273264 -118.919742 
L 178.222985 -118.681961 
L 178.179258 -118.44418 
L 178.141668 -118.2064 
L 178.109585 -117.968619 
L 178.082187 -117.730838 
L 178.058515 -117.493058 
L 178.037544 -117.255277 
L 178.01827 -117.017496 
L 177.999794 -116.779716 
L 177.981401 -116.541935 
L 177.962617 -116.304154 
L 177.943235 -116.066374 
L 177.923319 -115.828593 
L 177.903174 -115.590812 
L 177.88329 -115.353032 
L 177.864272 -115.115251 
L 177.846759 -114.87747 
L 177.831347 -114.63969 
L 177.818517 -114.401909 
L 177.80858 -114.164128 
L 177.801643 -113.926348 
L 177.797594 -113.688567 
L 177.796113 -113.450786 
L 177.7967 -113.213006 
L 177.79872 -112.975225 
L 177.801459 -112.737445 
L 177.80419 -112.499664 
L 177.806229 -112.261883 
L 177.806997 -112.024103 
L 177.806057 -111.786322 
z
" style="stroke: #808080; stroke-opacity: 0.8"/>
    </defs>
    <g clip-path="url(#p730f3d0239)">
     <use xlink:href="#m74b21631b3" x="0" y="180" style="fill: #8c564b; fill-opacity: 0.8; stroke: #808080; stroke-opacity: 0.8"/>
    </g>
   </g>
   <g id="matplotlib.axis_1">
    <g id="xtick_1">
     <g id="line2d_1">
      <defs>
       <path id="me82dd6961c" d="M 0 0 
L 0 3.5 
" style="stroke: #000000; stroke-width: 0.8"/>
      </defs>
      <g>
       <use xlink:href="#me82dd6961c" x="60.572922" y="107.94" style="stroke: #000000; stroke-width: 0.8"/>
      </g>
     </g>
     <g id="text_1">
      <!-- Georgiev -->
      <g transform="translate(62.780422 151.06375)rotate(-90)scale(0.08 -0.08)">
       <defs>
        <path id="DejaVuSans-47" d="M 3809 666 
L 3809 1919 
L 2778 1919 
L 2778 2438 
L 4434 2438 
L 4434 434 
Q 4069 175 3628 42 
Q 3188 -91 2688 -91 
Q 1594 -91 976 548 
Q 359 1188 359 2328 
Q 359 3472 976 4111 
Q 1594 4750 2688 4750 
Q 3144 4750 3555 4637 
Q 3966 4525 4313 4306 
L 4313 3634 
Q 3963 3931 3569 4081 
Q 3175 4231 2741 4231 
Q 1884 4231 1454 3753 
Q 1025 3275 1025 2328 
Q 1025 1384 1454 906 
Q 1884 428 2741 428 
Q 3075 428 3337 486 
Q 3600 544 3809 666 
z
" transform="scale(0.015625)"/>
        <path id="DejaVuSans-65" d="M 3597 1894 
L 3597 1613 
L 953 1613 
Q 991 1019 1311 708 
Q 1631 397 2203 397 
Q 2534 397 2845 478 
Q 3156 559 3463 722 
L 3463 178 
Q 3153 47 2828 -22 
Q 2503 -91 2169 -91 
Q 1331 -91 842 396 
Q 353 884 353 1716 
Q 353 2575 817 3079 
Q 1281 3584 2069 3584 
Q 2775 3584 3186 3129 
Q 3597 2675 3597 1894 
z
M 3022 2063 
Q 3016 2534 2758 2815 
Q 2500 3097 2075 3097 
Q 1594 3097 1305 2825 
Q 1016 2553 972 2059 
L 3022 2063 
z
" transform="scale(0.015625)"/>
        <path id="DejaVuSans-6f" d="M 1959 3097 
Q 1497 3097 1228 2736 
Q 959 2375 959 1747 
Q 959 1119 1226 758 
Q 1494 397 1959 397 
Q 2419 397 2687 759 
Q 2956 1122 2956 1747 
Q 2956 2369 2687 2733 
Q 2419 3097 1959 3097 
z
M 1959 3584 
Q 2709 3584 3137 3096 
Q 3566 2609 3566 1747 
Q 3566 888 3137 398 
Q 2709 -91 1959 -91 
Q 1206 -91 779 398 
Q 353 888 353 1747 
Q 353 2609 779 3096 
Q 1206 3584 1959 3584 
z
" transform="scale(0.015625)"/>
        <path id="DejaVuSans-72" d="M 2631 2963 
Q 2534 3019 2420 3045 
Q 2306 3072 2169 3072 
Q 1681 3072 1420 2755 
Q 1159 2438 1159 1844 
L 1159 0 
L 581 0 
L 581 3500 
L 1159 3500 
L 1159 2956 
Q 1341 3275 1631 3429 
Q 1922 3584 2338 3584 
Q 2397 3584 2469 3576 
Q 2541 3569 2628 3553 
L 2631 2963 
z
" transform="scale(0.015625)"/>
        <path id="DejaVuSans-67" d="M 2906 1791 
Q 2906 2416 2648 2759 
Q 2391 3103 1925 3103 
Q 1463 3103 1205 2759 
Q 947 2416 947 1791 
Q 947 1169 1205 825 
Q 1463 481 1925 481 
Q 2391 481 2648 825 
Q 2906 1169 2906 1791 
z
M 3481 434 
Q 3481 -459 3084 -895 
Q 2688 -1331 1869 -1331 
Q 1566 -1331 1297 -1286 
Q 1028 -1241 775 -1147 
L 775 -588 
Q 1028 -725 1275 -790 
Q 1522 -856 1778 -856 
Q 2344 -856 2625 -561 
Q 2906 -266 2906 331 
L 2906 616 
Q 2728 306 2450 153 
Q 2172 0 1784 0 
Q 1141 0 747 490 
Q 353 981 353 1791 
Q 353 2603 747 3093 
Q 1141 3584 1784 3584 
Q 2172 3584 2450 3431 
Q 2728 3278 2906 2969 
L 2906 3500 
L 3481 3500 
L 3481 434 
z
" transform="scale(0.015625)"/>
        <path id="DejaVuSans-69" d="M 603 3500 
L 1178 3500 
L 1178 0 
L 603 0 
L 603 3500 
z
M 603 4863 
L 1178 4863 
L 1178 4134 
L 603 4134 
L 603 4863 
z
" transform="scale(0.015625)"/>
        <path id="DejaVuSans-76" d="M 191 3500 
L 800 3500 
L 1894 563 
L 2988 3500 
L 3597 3500 
L 2284 0 
L 1503 0 
L 191 3500 
z
" transform="scale(0.015625)"/>
       </defs>
       <use xlink:href="#DejaVuSans-47"/>
       <use xlink:href="#DejaVuSans-65" x="77.490234"/>
       <use xlink:href="#DejaVuSans-6f" x="139.013672"/>
       <use xlink:href="#DejaVuSans-72" x="200.195312"/>
       <use xlink:href="#DejaVuSans-67" x="239.558594"/>
       <use xlink:href="#DejaVuSans-69" x="303.035156"/>
       <use xlink:href="#DejaVuSans-65" x="330.818359"/>
       <use xlink:href="#DejaVuSans-76" x="392.341797"/>
      </g>
     </g>
    </g>
    <g id="xtick_2">
     <g id="line2d_2">
      <g>
       <use xlink:href="#me82dd6961c" x="83.991753" y="107.94" style="stroke: #000000; stroke-width: 0.8"/>
      </g>
     </g>
     <g id="text_2">
      <!-- TAPE -->
      <g transform="translate(86.199253 134.5575)rotate(-90)scale(0.08 -0.08)">
       <defs>
        <path id="DejaVuSans-54" d="M -19 4666 
L 3928 4666 
L 3928 4134 
L 2272 4134 
L 2272 0 
L 1638 0 
L 1638 4134 
L -19 4134 
L -19 4666 
z
" transform="scale(0.015625)"/>
        <path id="DejaVuSans-41" d="M 2188 4044 
L 1331 1722 
L 3047 1722 
L 2188 4044 
z
M 1831 4666 
L 2547 4666 
L 4325 0 
L 3669 0 
L 3244 1197 
L 1141 1197 
L 716 0 
L 50 0 
L 1831 4666 
z
" transform="scale(0.015625)"/>
        <path id="DejaVuSans-50" d="M 1259 4147 
L 1259 2394 
L 2053 2394 
Q 2494 2394 2734 2622 
Q 2975 2850 2975 3272 
Q 2975 3691 2734 3919 
Q 2494 4147 2053 4147 
L 1259 4147 
z
M 628 4666 
L 2053 4666 
Q 2838 4666 3239 4311 
Q 3641 3956 3641 3272 
Q 3641 2581 3239 2228 
Q 2838 1875 2053 1875 
L 1259 1875 
L 1259 0 
L 628 0 
L 628 4666 
z
" transform="scale(0.015625)"/>
        <path id="DejaVuSans-45" d="M 628 4666 
L 3578 4666 
L 3578 4134 
L 1259 4134 
L 1259 2753 
L 3481 2753 
L 3481 2222 
L 1259 2222 
L 1259 531 
L 3634 531 
L 3634 0 
L 628 0 
L 628 4666 
z
" transform="scale(0.015625)"/>
       </defs>
       <use xlink:href="#DejaVuSans-54"/>
       <use xlink:href="#DejaVuSans-41" x="53.333984"/>
       <use xlink:href="#DejaVuSans-50" x="121.742188"/>
       <use xlink:href="#DejaVuSans-45" x="182.044922"/>
      </g>
     </g>
    </g>
    <g id="xtick_3">
     <g id="line2d_3">
      <g>
       <use xlink:href="#me82dd6961c" x="107.410584" y="107.94" style="stroke: #000000; stroke-width: 0.8"/>
      </g>
     </g>
     <g id="text_3">
      <!-- Onehot -->
      <g transform="translate(109.618084 144.33125)rotate(-90)scale(0.08 -0.08)">
       <defs>
        <path id="DejaVuSans-4f" d="M 2522 4238 
Q 1834 4238 1429 3725 
Q 1025 3213 1025 2328 
Q 1025 1447 1429 934 
Q 1834 422 2522 422 
Q 3209 422 3611 934 
Q 4013 1447 4013 2328 
Q 4013 3213 3611 3725 
Q 3209 4238 2522 4238 
z
M 2522 4750 
Q 3503 4750 4090 4092 
Q 4678 3434 4678 2328 
Q 4678 1225 4090 567 
Q 3503 -91 2522 -91 
Q 1538 -91 948 565 
Q 359 1222 359 2328 
Q 359 3434 948 4092 
Q 1538 4750 2522 4750 
z
" transform="scale(0.015625)"/>
        <path id="DejaVuSans-6e" d="M 3513 2113 
L 3513 0 
L 2938 0 
L 2938 2094 
Q 2938 2591 2744 2837 
Q 2550 3084 2163 3084 
Q 1697 3084 1428 2787 
Q 1159 2491 1159 1978 
L 1159 0 
L 581 0 
L 581 3500 
L 1159 3500 
L 1159 2956 
Q 1366 3272 1645 3428 
Q 1925 3584 2291 3584 
Q 2894 3584 3203 3211 
Q 3513 2838 3513 2113 
z
" transform="scale(0.015625)"/>
        <path id="DejaVuSans-68" d="M 3513 2113 
L 3513 0 
L 2938 0 
L 2938 2094 
Q 2938 2591 2744 2837 
Q 2550 3084 2163 3084 
Q 1697 3084 1428 2787 
Q 1159 2491 1159 1978 
L 1159 0 
L 581 0 
L 581 4863 
L 1159 4863 
L 1159 2956 
Q 1366 3272 1645 3428 
Q 1925 3584 2291 3584 
Q 2894 3584 3203 3211 
Q 3513 2838 3513 2113 
z
" transform="scale(0.015625)"/>
        <path id="DejaVuSans-74" d="M 1172 4494 
L 1172 3500 
L 2356 3500 
L 2356 3053 
L 1172 3053 
L 1172 1153 
Q 1172 725 1289 603 
Q 1406 481 1766 481 
L 2356 481 
L 2356 0 
L 1766 0 
Q 1100 0 847 248 
Q 594 497 594 1153 
L 594 3053 
L 172 3053 
L 172 3500 
L 594 3500 
L 594 4494 
L 1172 4494 
z
" transform="scale(0.015625)"/>
       </defs>
       <use xlink:href="#DejaVuSans-4f"/>
       <use xlink:href="#DejaVuSans-6e" x="78.710938"/>
       <use xlink:href="#DejaVuSans-65" x="142.089844"/>
       <use xlink:href="#DejaVuSans-68" x="203.613281"/>
       <use xlink:href="#DejaVuSans-6f" x="266.992188"/>
       <use xlink:href="#DejaVuSans-74" x="328.173828"/>
      </g>
     </g>
    </g>
    <g id="xtick_4">
     <g id="line2d_4">
      <g>
       <use xlink:href="#me82dd6961c" x="130.829416" y="107.94" style="stroke: #000000; stroke-width: 0.8"/>
      </g>
     </g>
     <g id="text_4">
      <!-- UniRep -->
      <g transform="translate(133.036916 143.2875)rotate(-90)scale(0.08 -0.08)">
       <defs>
        <path id="DejaVuSans-55" d="M 556 4666 
L 1191 4666 
L 1191 1831 
Q 1191 1081 1462 751 
Q 1734 422 2344 422 
Q 2950 422 3222 751 
Q 3494 1081 3494 1831 
L 3494 4666 
L 4128 4666 
L 4128 1753 
Q 4128 841 3676 375 
Q 3225 -91 2344 -91 
Q 1459 -91 1007 375 
Q 556 841 556 1753 
L 556 4666 
z
" transform="scale(0.015625)"/>
        <path id="DejaVuSans-52" d="M 2841 2188 
Q 3044 2119 3236 1894 
Q 3428 1669 3622 1275 
L 4263 0 
L 3584 0 
L 2988 1197 
Q 2756 1666 2539 1819 
Q 2322 1972 1947 1972 
L 1259 1972 
L 1259 0 
L 628 0 
L 628 4666 
L 2053 4666 
Q 2853 4666 3247 4331 
Q 3641 3997 3641 3322 
Q 3641 2881 3436 2590 
Q 3231 2300 2841 2188 
z
M 1259 4147 
L 1259 2491 
L 2053 2491 
Q 2509 2491 2742 2702 
Q 2975 2913 2975 3322 
Q 2975 3731 2742 3939 
Q 2509 4147 2053 4147 
L 1259 4147 
z
" transform="scale(0.015625)"/>
        <path id="DejaVuSans-70" d="M 1159 525 
L 1159 -1331 
L 581 -1331 
L 581 3500 
L 1159 3500 
L 1159 2969 
Q 1341 3281 1617 3432 
Q 1894 3584 2278 3584 
Q 2916 3584 3314 3078 
Q 3713 2572 3713 1747 
Q 3713 922 3314 415 
Q 2916 -91 2278 -91 
Q 1894 -91 1617 61 
Q 1341 213 1159 525 
z
M 3116 1747 
Q 3116 2381 2855 2742 
Q 2594 3103 2138 3103 
Q 1681 3103 1420 2742 
Q 1159 2381 1159 1747 
Q 1159 1113 1420 752 
Q 1681 391 2138 391 
Q 2594 391 2855 752 
Q 3116 1113 3116 1747 
z
" transform="scale(0.015625)"/>
       </defs>
       <use xlink:href="#DejaVuSans-55"/>
       <use xlink:href="#DejaVuSans-6e" x="73.193359"/>
       <use xlink:href="#DejaVuSans-69" x="136.572266"/>
       <use xlink:href="#DejaVuSans-52" x="164.355469"/>
       <use xlink:href="#DejaVuSans-65" x="229.337891"/>
       <use xlink:href="#DejaVuSans-70" x="290.861328"/>
      </g>
     </g>
    </g>
    <g id="xtick_5">
     <g id="line2d_5">
      <g>
       <use xlink:href="#me82dd6961c" x="154.248247" y="107.94" style="stroke: #000000; stroke-width: 0.8"/>
      </g>
     </g>
     <g id="text_5">
      <!-- ESM-1v -->
      <g transform="translate(156.455747 144.6875)rotate(-90)scale(0.08 -0.08)">
       <defs>
        <path id="DejaVuSans-53" d="M 3425 4513 
L 3425 3897 
Q 3066 4069 2747 4153 
Q 2428 4238 2131 4238 
Q 1616 4238 1336 4038 
Q 1056 3838 1056 3469 
Q 1056 3159 1242 3001 
Q 1428 2844 1947 2747 
L 2328 2669 
Q 3034 2534 3370 2195 
Q 3706 1856 3706 1288 
Q 3706 609 3251 259 
Q 2797 -91 1919 -91 
Q 1588 -91 1214 -16 
Q 841 59 441 206 
L 441 856 
Q 825 641 1194 531 
Q 1563 422 1919 422 
Q 2459 422 2753 634 
Q 3047 847 3047 1241 
Q 3047 1584 2836 1778 
Q 2625 1972 2144 2069 
L 1759 2144 
Q 1053 2284 737 2584 
Q 422 2884 422 3419 
Q 422 4038 858 4394 
Q 1294 4750 2059 4750 
Q 2388 4750 2728 4690 
Q 3069 4631 3425 4513 
z
" transform="scale(0.015625)"/>
        <path id="DejaVuSans-4d" d="M 628 4666 
L 1569 4666 
L 2759 1491 
L 3956 4666 
L 4897 4666 
L 4897 0 
L 4281 0 
L 4281 4097 
L 3078 897 
L 2444 897 
L 1241 4097 
L 1241 0 
L 628 0 
L 628 4666 
z
" transform="scale(0.015625)"/>
        <path id="DejaVuSans-2d" d="M 313 2009 
L 1997 2009 
L 1997 1497 
L 313 1497 
L 313 2009 
z
" transform="scale(0.015625)"/>
        <path id="DejaVuSans-31" d="M 794 531 
L 1825 531 
L 1825 4091 
L 703 3866 
L 703 4441 
L 1819 4666 
L 2450 4666 
L 2450 531 
L 3481 531 
L 3481 0 
L 794 0 
L 794 531 
z
" transform="scale(0.015625)"/>
       </defs>
       <use xlink:href="#DejaVuSans-45"/>
       <use xlink:href="#DejaVuSans-53" x="63.183594"/>
       <use xlink:href="#DejaVuSans-4d" x="126.660156"/>
       <use xlink:href="#DejaVuSans-2d" x="212.939453"/>
       <use xlink:href="#DejaVuSans-31" x="249.023438"/>
       <use xlink:href="#DejaVuSans-76" x="312.646484"/>
      </g>
     </g>
    </g>
    <g id="xtick_6">
     <g id="line2d_6">
      <g>
       <use xlink:href="#me82dd6961c" x="177.667078" y="107.94" style="stroke: #000000; stroke-width: 0.8"/>
      </g>
     </g>
     <g id="text_6">
      <!-- ProtT5-XL-U50 -->
      <g transform="translate(179.874578 171.945)rotate(-90)scale(0.08 -0.08)">
       <defs>
        <path id="DejaVuSans-35" d="M 691 4666 
L 3169 4666 
L 3169 4134 
L 1269 4134 
L 1269 2991 
Q 1406 3038 1543 3061 
Q 1681 3084 1819 3084 
Q 2600 3084 3056 2656 
Q 3513 2228 3513 1497 
Q 3513 744 3044 326 
Q 2575 -91 1722 -91 
Q 1428 -91 1123 -41 
Q 819 9 494 109 
L 494 744 
Q 775 591 1075 516 
Q 1375 441 1709 441 
Q 2250 441 2565 725 
Q 2881 1009 2881 1497 
Q 2881 1984 2565 2268 
Q 2250 2553 1709 2553 
Q 1456 2553 1204 2497 
Q 953 2441 691 2322 
L 691 4666 
z
" transform="scale(0.015625)"/>
        <path id="DejaVuSans-58" d="M 403 4666 
L 1081 4666 
L 2241 2931 
L 3406 4666 
L 4084 4666 
L 2584 2425 
L 4184 0 
L 3506 0 
L 2194 1984 
L 872 0 
L 191 0 
L 1856 2491 
L 403 4666 
z
" transform="scale(0.015625)"/>
        <path id="DejaVuSans-4c" d="M 628 4666 
L 1259 4666 
L 1259 531 
L 3531 531 
L 3531 0 
L 628 0 
L 628 4666 
z
" transform="scale(0.015625)"/>
        <path id="DejaVuSans-30" d="M 2034 4250 
Q 1547 4250 1301 3770 
Q 1056 3291 1056 2328 
Q 1056 1369 1301 889 
Q 1547 409 2034 409 
Q 2525 409 2770 889 
Q 3016 1369 3016 2328 
Q 3016 3291 2770 3770 
Q 2525 4250 2034 4250 
z
M 2034 4750 
Q 2819 4750 3233 4129 
Q 3647 3509 3647 2328 
Q 3647 1150 3233 529 
Q 2819 -91 2034 -91 
Q 1250 -91 836 529 
Q 422 1150 422 2328 
Q 422 3509 836 4129 
Q 1250 4750 2034 4750 
z
" transform="scale(0.015625)"/>
       </defs>
       <use xlink:href="#DejaVuSans-50"/>
       <use xlink:href="#DejaVuSans-72" x="58.552734"/>
       <use xlink:href="#DejaVuSans-6f" x="97.416016"/>
       <use xlink:href="#DejaVuSans-74" x="158.597656"/>
       <use xlink:href="#DejaVuSans-54" x="197.806641"/>
       <use xlink:href="#DejaVuSans-35" x="258.890625"/>
       <use xlink:href="#DejaVuSans-2d" x="322.513672"/>
       <use xlink:href="#DejaVuSans-58" x="353.597656"/>
       <use xlink:href="#DejaVuSans-4c" x="422.103516"/>
       <use xlink:href="#DejaVuSans-2d" x="476.066406"/>
       <use xlink:href="#DejaVuSans-55" x="512.150391"/>
       <use xlink:href="#DejaVuSans-35" x="585.34375"/>
       <use xlink:href="#DejaVuSans-30" x="648.966797"/>
      </g>
     </g>
    </g>
   </g>
   <g id="matplotlib.axis_2">
    <g id="ytick_1">
     <g id="line2d_7">
      <defs>
       <path id="mf554907a1e" d="M 0 0 
L -3.5 0 
" style="stroke: #000000; stroke-width: 0.8"/>
      </defs>
      <g>
       <use xlink:href="#mf554907a1e" x="46.99" y="107.94" style="stroke: #000000; stroke-width: 0.8"/>
      </g>
     </g>
     <g id="text_7">
      <!-- 0.00 -->
      <g transform="translate(22.1775 110.979375)scale(0.08 -0.08)">
       <defs>
        <path id="DejaVuSans-2e" d="M 684 794 
L 1344 794 
L 1344 0 
L 684 0 
L 684 794 
z
" transform="scale(0.015625)"/>
       </defs>
       <use xlink:href="#DejaVuSans-30"/>
       <use xlink:href="#DejaVuSans-2e" x="63.623047"/>
       <use xlink:href="#DejaVuSans-30" x="95.410156"/>
       <use xlink:href="#DejaVuSans-30" x="159.033203"/>
      </g>
     </g>
    </g>
    <g id="ytick_2">
     <g id="line2d_8">
      <g>
       <use xlink:href="#mf554907a1e" x="46.99" y="83.83" style="stroke: #000000; stroke-width: 0.8"/>
      </g>
     </g>
     <g id="text_8">
      <!-- 0.05 -->
      <g transform="translate(22.1775 86.869375)scale(0.08 -0.08)">
       <use xlink:href="#DejaVuSans-30"/>
       <use xlink:href="#DejaVuSans-2e" x="63.623047"/>
       <use xlink:href="#DejaVuSans-30" x="95.410156"/>
       <use xlink:href="#DejaVuSans-35" x="159.033203"/>
      </g>
     </g>
    </g>
    <g id="ytick_3">
     <g id="line2d_9">
      <g>
       <use xlink:href="#mf554907a1e" x="46.99" y="59.72" style="stroke: #000000; stroke-width: 0.8"/>
      </g>
     </g>
     <g id="text_9">
      <!-- 0.10 -->
      <g transform="translate(22.1775 62.759375)scale(0.08 -0.08)">
       <use xlink:href="#DejaVuSans-30"/>
       <use xlink:href="#DejaVuSans-2e" x="63.623047"/>
       <use xlink:href="#DejaVuSans-31" x="95.410156"/>
       <use xlink:href="#DejaVuSans-30" x="159.033203"/>
      </g>
     </g>
    </g>
    <g id="ytick_4">
     <g id="line2d_10">
      <g>
       <use xlink:href="#mf554907a1e" x="46.99" y="35.61" style="stroke: #000000; stroke-width: 0.8"/>
      </g>
     </g>
     <g id="text_10">
      <!-- 0.15 -->
      <g transform="translate(22.1775 38.649375)scale(0.08 -0.08)">
       <use xlink:href="#DejaVuSans-30"/>
       <use xlink:href="#DejaVuSans-2e" x="63.623047"/>
       <use xlink:href="#DejaVuSans-31" x="95.410156"/>
       <use xlink:href="#DejaVuSans-35" x="159.033203"/>
      </g>
     </g>
    </g>
    <g id="ytick_5">
     <g id="line2d_11">
      <g>
       <use xlink:href="#mf554907a1e" x="46.99" y="11.5" style="stroke: #000000; stroke-width: 0.8"/>
      </g>
     </g>
     <g id="text_11">
      <!-- 0.20 -->
      <g transform="translate(22.1775 14.539375)scale(0.08 -0.08)">
       <defs>
        <path id="DejaVuSans-32" d="M 1228 531 
L 3431 531 
L 3431 0 
L 469 0 
L 469 531 
Q 828 903 1448 1529 
Q 2069 2156 2228 2338 
Q 2531 2678 2651 2914 
Q 2772 3150 2772 3378 
Q 2772 3750 2511 3984 
Q 2250 4219 1831 4219 
Q 1534 4219 1204 4116 
Q 875 4013 500 3803 
L 500 4441 
Q 881 4594 1212 4672 
Q 1544 4750 1819 4750 
Q 2544 4750 2975 4387 
Q 3406 4025 3406 3419 
Q 3406 3131 3298 2873 
Q 3191 2616 2906 2266 
Q 2828 2175 2409 1742 
Q 1991 1309 1228 531 
z
" transform="scale(0.015625)"/>
       </defs>
       <use xlink:href="#DejaVuSans-30"/>
       <use xlink:href="#DejaVuSans-2e" x="63.623047"/>
       <use xlink:href="#DejaVuSans-32" x="95.410156"/>
       <use xlink:href="#DejaVuSans-30" x="159.033203"/>
      </g>
     </g>
    </g>
    <g id="text_12">
     <!-- Mean fitness -->
     <g transform="translate(16.097813 91.496562)rotate(-90)scale(0.1 -0.1)">
      <defs>
       <path id="DejaVuSans-61" d="M 2194 1759 
Q 1497 1759 1228 1600 
Q 959 1441 959 1056 
Q 959 750 1161 570 
Q 1363 391 1709 391 
Q 2188 391 2477 730 
Q 2766 1069 2766 1631 
L 2766 1759 
L 2194 1759 
z
M 3341 1997 
L 3341 0 
L 2766 0 
L 2766 531 
Q 2569 213 2275 61 
Q 1981 -91 1556 -91 
Q 1019 -91 701 211 
Q 384 513 384 1019 
Q 384 1609 779 1909 
Q 1175 2209 1959 2209 
L 2766 2209 
L 2766 2266 
Q 2766 2663 2505 2880 
Q 2244 3097 1772 3097 
Q 1472 3097 1187 3025 
Q 903 2953 641 2809 
L 641 3341 
Q 956 3463 1253 3523 
Q 1550 3584 1831 3584 
Q 2591 3584 2966 3190 
Q 3341 2797 3341 1997 
z
" transform="scale(0.015625)"/>
       <path id="DejaVuSans-20" transform="scale(0.015625)"/>
       <path id="DejaVuSans-66" d="M 2375 4863 
L 2375 4384 
L 1825 4384 
Q 1516 4384 1395 4259 
Q 1275 4134 1275 3809 
L 1275 3500 
L 2222 3500 
L 2222 3053 
L 1275 3053 
L 1275 0 
L 697 0 
L 697 3053 
L 147 3053 
L 147 3500 
L 697 3500 
L 697 3744 
Q 697 4328 969 4595 
Q 1241 4863 1831 4863 
L 2375 4863 
z
" transform="scale(0.015625)"/>
       <path id="DejaVuSans-73" d="M 2834 3397 
L 2834 2853 
Q 2591 2978 2328 3040 
Q 2066 3103 1784 3103 
Q 1356 3103 1142 2972 
Q 928 2841 928 2578 
Q 928 2378 1081 2264 
Q 1234 2150 1697 2047 
L 1894 2003 
Q 2506 1872 2764 1633 
Q 3022 1394 3022 966 
Q 3022 478 2636 193 
Q 2250 -91 1575 -91 
Q 1294 -91 989 -36 
Q 684 19 347 128 
L 347 722 
Q 666 556 975 473 
Q 1284 391 1588 391 
Q 1994 391 2212 530 
Q 2431 669 2431 922 
Q 2431 1156 2273 1281 
Q 2116 1406 1581 1522 
L 1381 1569 
Q 847 1681 609 1914 
Q 372 2147 372 2553 
Q 372 3047 722 3315 
Q 1072 3584 1716 3584 
Q 2034 3584 2315 3537 
Q 2597 3491 2834 3397 
z
" transform="scale(0.015625)"/>
      </defs>
      <use xlink:href="#DejaVuSans-4d"/>
      <use xlink:href="#DejaVuSans-65" x="86.279297"/>
      <use xlink:href="#DejaVuSans-61" x="147.802734"/>
      <use xlink:href="#DejaVuSans-6e" x="209.082031"/>
      <use xlink:href="#DejaVuSans-20" x="272.460938"/>
      <use xlink:href="#DejaVuSans-66" x="304.248047"/>
      <use xlink:href="#DejaVuSans-69" x="339.453125"/>
      <use xlink:href="#DejaVuSans-74" x="367.236328"/>
      <use xlink:href="#DejaVuSans-6e" x="406.445312"/>
      <use xlink:href="#DejaVuSans-65" x="469.824219"/>
      <use xlink:href="#DejaVuSans-73" x="531.347656"/>
      <use xlink:href="#DejaVuSans-73" x="583.447266"/>
     </g>
    </g>
   </g>
   <g id="LineCollection_1">
    <path d="M 60.572922 104.362901 
L 60.572922 93.023264 
" clip-path="url(#p730f3d0239)" style="fill: none; stroke: #000000; stroke-width: 5"/>
    <path d="M 83.991753 69.233004 
L 83.991753 61.035302 
" clip-path="url(#p730f3d0239)" style="fill: none; stroke: #000000; stroke-width: 5"/>
    <path d="M 107.410584 64.020215 
L 107.410584 59.110109 
" clip-path="url(#p730f3d0239)" style="fill: none; stroke: #000000; stroke-width: 5"/>
    <path d="M 130.829416 54.191143 
L 130.829416 49.969313 
" clip-path="url(#p730f3d0239)" style="fill: none; stroke: #000000; stroke-width: 5"/>
    <path d="M 154.248247 57.226885 
L 154.248247 50.576106 
" clip-path="url(#p730f3d0239)" style="fill: none; stroke: #000000; stroke-width: 5"/>
    <path d="M 177.667078 54.509375 
L 177.667078 49.201285 
" clip-path="url(#p730f3d0239)" style="fill: none; stroke: #000000; stroke-width: 5"/>
   </g>
   <g id="LineCollection_2">
    <path d="M 60.572922 105.509594 
L 60.572922 76.013807 
" clip-path="url(#p730f3d0239)" style="fill: none; stroke: #000000"/>
    <path d="M 83.991753 81.529557 
L 83.991753 53.362197 
" clip-path="url(#p730f3d0239)" style="fill: none; stroke: #000000"/>
    <path d="M 107.410584 71.385375 
L 107.410584 51.744949 
" clip-path="url(#p730f3d0239)" style="fill: none; stroke: #000000"/>
    <path d="M 130.829416 60.523889 
L 130.829416 45.998592 
" clip-path="url(#p730f3d0239)" style="fill: none; stroke: #000000"/>
    <path d="M 154.248247 67.203052 
L 154.248247 45.634304 
" clip-path="url(#p730f3d0239)" style="fill: none; stroke: #000000"/>
    <path d="M 177.667078 62.47151 
L 177.667078 44.673393 
" clip-path="url(#p730f3d0239)" style="fill: none; stroke: #000000"/>
   </g>
   <g id="LineCollection_3">
    <path d="M 53.547273 61.1666 
L 184.692727 61.1666 
" clip-path="url(#p730f3d0239)" style="fill: none; stroke-dasharray: 3.7,1.6; stroke-dashoffset: 0; stroke: #808080"/>
   </g>
   <g id="patch_3">
    <path d="M 46.99 107.94 
L 46.99 11.5 
" style="fill: none; stroke: #000000; stroke-width: 0.8; stroke-linejoin: miter; stroke-linecap: square"/>
   </g>
   <g id="patch_4">
    <path d="M 191.25 107.94 
L 191.25 11.5 
" style="fill: none; stroke: #000000; stroke-width: 0.8; stroke-linejoin: miter; stroke-linecap: square"/>
   </g>
   <g id="patch_5">
    <path d="M 46.99 107.94 
L 191.25 107.94 
" style="fill: none; stroke: #000000; stroke-width: 0.8; stroke-linejoin: miter; stroke-linecap: square"/>
   </g>
   <g id="patch_6">
    <path d="M 46.99 11.5 
L 191.25 11.5 
" style="fill: none; stroke: #000000; stroke-width: 0.8; stroke-linejoin: miter; stroke-linecap: square"/>
   </g>
   <g id="PathCollection_1">
    <defs>
     <path id="mbb47f4ded6" d="M 0 1.118034 
C 0.296506 1.118034 0.580908 1.000231 0.790569 0.790569 
C 1.000231 0.580908 1.118034 0.296506 1.118034 0 
C 1.118034 -0.296506 1.000231 -0.580908 0.790569 -0.790569 
C 0.580908 -1.000231 0.296506 -1.118034 0 -1.118034 
C -0.296506 -1.118034 -0.580908 -1.000231 -0.790569 -0.790569 
C -1.000231 -0.580908 -1.118034 -0.296506 -1.118034 0 
C -1.118034 0.296506 -1.000231 0.580908 -0.790569 0.790569 
C -0.580908 1.000231 -0.296506 1.118034 0 1.118034 
z
" style="stroke: #ffffff"/>
    </defs>
    <g clip-path="url(#p730f3d0239)">
     <use xlink:href="#mbb47f4ded6" x="60.572922" y="103.73757" style="fill: #ffffff; stroke: #ffffff"/>
     <use xlink:href="#mbb47f4ded6" x="83.991753" y="64.894861" style="fill: #ffffff; stroke: #ffffff"/>
     <use xlink:href="#mbb47f4ded6" x="107.410584" y="61.021892" style="fill: #ffffff; stroke: #ffffff"/>
     <use xlink:href="#mbb47f4ded6" x="130.829416" y="51.539891" style="fill: #ffffff; stroke: #ffffff"/>
     <use xlink:href="#mbb47f4ded6" x="154.248247" y="53.515827" style="fill: #ffffff; stroke: #ffffff"/>
     <use xlink:href="#mbb47f4ded6" x="177.667078" y="51.211151" style="fill: #ffffff; stroke: #ffffff"/>
    </g>
   </g>
  </g>
  <g id="axes_2">
   <g id="patch_7">
    <path d="M 240.24 107.94 
L 384.5 107.94 
L 384.5 11.5 
L 240.24 11.5 
z
" style="fill: #ffffff"/>
   </g>
   <g id="matplotlib.axis_3">
    <g id="xtick_7">
     <g id="line2d_12">
      <g>
       <use xlink:href="#me82dd6961c" x="240.24" y="107.94" style="stroke: #000000; stroke-width: 0.8"/>
      </g>
     </g>
     <g id="line2d_13">
      <defs>
       <path id="mc7c4192f19" d="M 0 0 
L 0 -3.5 
" style="stroke: #000000; stroke-width: 0.8"/>
      </defs>
      <g>
       <use xlink:href="#mc7c4192f19" x="240.24" y="11.5" style="stroke: #000000; stroke-width: 0.8"/>
      </g>
     </g>
     <g id="text_13">
      <!-- 0 -->
      <g transform="translate(237.695 121.01875)scale(0.08 -0.08)">
       <use xlink:href="#DejaVuSans-30"/>
      </g>
     </g>
    </g>
    <g id="xtick_8">
     <g id="line2d_14">
      <g>
       <use xlink:href="#me82dd6961c" x="269.092" y="107.94" style="stroke: #000000; stroke-width: 0.8"/>
      </g>
     </g>
     <g id="line2d_15">
      <g>
       <use xlink:href="#mc7c4192f19" x="269.092" y="11.5" style="stroke: #000000; stroke-width: 0.8"/>
      </g>
     </g>
     <g id="text_14">
      <!-- 1 -->
      <g transform="translate(266.547 121.01875)scale(0.08 -0.08)">
       <use xlink:href="#DejaVuSans-31"/>
      </g>
     </g>
    </g>
    <g id="xtick_9">
     <g id="line2d_16">
      <g>
       <use xlink:href="#me82dd6961c" x="297.944" y="107.94" style="stroke: #000000; stroke-width: 0.8"/>
      </g>
     </g>
     <g id="line2d_17">
      <g>
       <use xlink:href="#mc7c4192f19" x="297.944" y="11.5" style="stroke: #000000; stroke-width: 0.8"/>
      </g>
     </g>
     <g id="text_15">
      <!-- 2 -->
      <g transform="translate(295.399 121.01875)scale(0.08 -0.08)">
       <use xlink:href="#DejaVuSans-32"/>
      </g>
     </g>
    </g>
    <g id="xtick_10">
     <g id="line2d_18">
      <g>
       <use xlink:href="#me82dd6961c" x="326.796" y="107.94" style="stroke: #000000; stroke-width: 0.8"/>
      </g>
     </g>
     <g id="line2d_19">
      <g>
       <use xlink:href="#mc7c4192f19" x="326.796" y="11.5" style="stroke: #000000; stroke-width: 0.8"/>
      </g>
     </g>
     <g id="text_16">
      <!-- 3 -->
      <g transform="translate(324.251 121.01875)scale(0.08 -0.08)">
       <defs>
        <path id="DejaVuSans-33" d="M 2597 2516 
Q 3050 2419 3304 2112 
Q 3559 1806 3559 1356 
Q 3559 666 3084 287 
Q 2609 -91 1734 -91 
Q 1441 -91 1130 -33 
Q 819 25 488 141 
L 488 750 
Q 750 597 1062 519 
Q 1375 441 1716 441 
Q 2309 441 2620 675 
Q 2931 909 2931 1356 
Q 2931 1769 2642 2001 
Q 2353 2234 1838 2234 
L 1294 2234 
L 1294 2753 
L 1863 2753 
Q 2328 2753 2575 2939 
Q 2822 3125 2822 3475 
Q 2822 3834 2567 4026 
Q 2313 4219 1838 4219 
Q 1578 4219 1281 4162 
Q 984 4106 628 3988 
L 628 4550 
Q 988 4650 1302 4700 
Q 1616 4750 1894 4750 
Q 2613 4750 3031 4423 
Q 3450 4097 3450 3541 
Q 3450 3153 3228 2886 
Q 3006 2619 2597 2516 
z
" transform="scale(0.015625)"/>
       </defs>
       <use xlink:href="#DejaVuSans-33"/>
      </g>
     </g>
    </g>
    <g id="xtick_11">
     <g id="line2d_20">
      <g>
       <use xlink:href="#me82dd6961c" x="355.648" y="107.94" style="stroke: #000000; stroke-width: 0.8"/>
      </g>
     </g>
     <g id="line2d_21">
      <g>
       <use xlink:href="#mc7c4192f19" x="355.648" y="11.5" style="stroke: #000000; stroke-width: 0.8"/>
      </g>
     </g>
     <g id="text_17">
      <!-- 4 -->
      <g transform="translate(353.103 121.01875)scale(0.08 -0.08)">
       <defs>
        <path id="DejaVuSans-34" d="M 2419 4116 
L 825 1625 
L 2419 1625 
L 2419 4116 
z
M 2253 4666 
L 3047 4666 
L 3047 1625 
L 3713 1625 
L 3713 1100 
L 3047 1100 
L 3047 0 
L 2419 0 
L 2419 1100 
L 313 1100 
L 313 1709 
L 2253 4666 
z
" transform="scale(0.015625)"/>
       </defs>
       <use xlink:href="#DejaVuSans-34"/>
      </g>
     </g>
    </g>
    <g id="xtick_12">
     <g id="line2d_22">
      <g>
       <use xlink:href="#me82dd6961c" x="384.5" y="107.94" style="stroke: #000000; stroke-width: 0.8"/>
      </g>
     </g>
     <g id="line2d_23">
      <g>
       <use xlink:href="#mc7c4192f19" x="384.5" y="11.5" style="stroke: #000000; stroke-width: 0.8"/>
      </g>
     </g>
     <g id="text_18">
      <!-- 5 -->
      <g transform="translate(381.955 121.01875)scale(0.08 -0.08)">
       <use xlink:href="#DejaVuSans-35"/>
      </g>
     </g>
    </g>
    <g id="text_19">
     <!-- Round -->
     <g transform="translate(296.549688 134.280937)scale(0.1 -0.1)">
      <defs>
       <path id="DejaVuSans-75" d="M 544 1381 
L 544 3500 
L 1119 3500 
L 1119 1403 
Q 1119 906 1312 657 
Q 1506 409 1894 409 
Q 2359 409 2629 706 
Q 2900 1003 2900 1516 
L 2900 3500 
L 3475 3500 
L 3475 0 
L 2900 0 
L 2900 538 
Q 2691 219 2414 64 
Q 2138 -91 1772 -91 
Q 1169 -91 856 284 
Q 544 659 544 1381 
z
M 1991 3584 
L 1991 3584 
z
" transform="scale(0.015625)"/>
       <path id="DejaVuSans-64" d="M 2906 2969 
L 2906 4863 
L 3481 4863 
L 3481 0 
L 2906 0 
L 2906 525 
Q 2725 213 2448 61 
Q 2172 -91 1784 -91 
Q 1150 -91 751 415 
Q 353 922 353 1747 
Q 353 2572 751 3078 
Q 1150 3584 1784 3584 
Q 2172 3584 2448 3432 
Q 2725 3281 2906 2969 
z
M 947 1747 
Q 947 1113 1208 752 
Q 1469 391 1925 391 
Q 2381 391 2643 752 
Q 2906 1113 2906 1747 
Q 2906 2381 2643 2742 
Q 2381 3103 1925 3103 
Q 1469 3103 1208 2742 
Q 947 2381 947 1747 
z
" transform="scale(0.015625)"/>
      </defs>
      <use xlink:href="#DejaVuSans-52"/>
      <use xlink:href="#DejaVuSans-6f" x="64.982422"/>
      <use xlink:href="#DejaVuSans-75" x="126.164062"/>
      <use xlink:href="#DejaVuSans-6e" x="189.542969"/>
      <use xlink:href="#DejaVuSans-64" x="252.921875"/>
     </g>
    </g>
   </g>
   <g id="matplotlib.axis_4">
    <g id="ytick_6">
     <g id="line2d_24">
      <g>
       <use xlink:href="#mf554907a1e" x="240.24" y="107.94" style="stroke: #000000; stroke-width: 0.8"/>
      </g>
     </g>
     <g id="line2d_25">
      <defs>
       <path id="m095403305e" d="M 0 0 
L 3.5 0 
" style="stroke: #000000; stroke-width: 0.8"/>
      </defs>
      <g>
       <use xlink:href="#m095403305e" x="384.5" y="107.94" style="stroke: #000000; stroke-width: 0.8"/>
      </g>
     </g>
     <g id="text_20">
      <!-- 0% -->
      <g transform="translate(220.54875 110.979375)scale(0.08 -0.08)">
       <defs>
        <path id="DejaVuSans-25" d="M 4653 2053 
Q 4381 2053 4226 1822 
Q 4072 1591 4072 1178 
Q 4072 772 4226 539 
Q 4381 306 4653 306 
Q 4919 306 5073 539 
Q 5228 772 5228 1178 
Q 5228 1588 5073 1820 
Q 4919 2053 4653 2053 
z
M 4653 2450 
Q 5147 2450 5437 2106 
Q 5728 1763 5728 1178 
Q 5728 594 5436 251 
Q 5144 -91 4653 -91 
Q 4153 -91 3862 251 
Q 3572 594 3572 1178 
Q 3572 1766 3864 2108 
Q 4156 2450 4653 2450 
z
M 1428 4353 
Q 1159 4353 1004 4120 
Q 850 3888 850 3481 
Q 850 3069 1003 2837 
Q 1156 2606 1428 2606 
Q 1700 2606 1854 2837 
Q 2009 3069 2009 3481 
Q 2009 3884 1853 4118 
Q 1697 4353 1428 4353 
z
M 4250 4750 
L 4750 4750 
L 1831 -91 
L 1331 -91 
L 4250 4750 
z
M 1428 4750 
Q 1922 4750 2215 4408 
Q 2509 4066 2509 3481 
Q 2509 2891 2217 2550 
Q 1925 2209 1428 2209 
Q 931 2209 642 2551 
Q 353 2894 353 3481 
Q 353 4063 643 4406 
Q 934 4750 1428 4750 
z
" transform="scale(0.015625)"/>
       </defs>
       <use xlink:href="#DejaVuSans-30"/>
       <use xlink:href="#DejaVuSans-25" x="63.623047"/>
      </g>
     </g>
    </g>
    <g id="ytick_7">
     <g id="line2d_26">
      <g>
       <use xlink:href="#mf554907a1e" x="240.24" y="83.83" style="stroke: #000000; stroke-width: 0.8"/>
      </g>
     </g>
     <g id="line2d_27">
      <g>
       <use xlink:href="#m095403305e" x="384.5" y="83.83" style="stroke: #000000; stroke-width: 0.8"/>
      </g>
     </g>
     <g id="text_21">
      <!-- 20% -->
      <g transform="translate(215.45875 86.869375)scale(0.08 -0.08)">
       <use xlink:href="#DejaVuSans-32"/>
       <use xlink:href="#DejaVuSans-30" x="63.623047"/>
       <use xlink:href="#DejaVuSans-25" x="127.246094"/>
      </g>
     </g>
    </g>
    <g id="ytick_8">
     <g id="line2d_28">
      <g>
       <use xlink:href="#mf554907a1e" x="240.24" y="59.72" style="stroke: #000000; stroke-width: 0.8"/>
      </g>
     </g>
     <g id="line2d_29">
      <g>
       <use xlink:href="#m095403305e" x="384.5" y="59.72" style="stroke: #000000; stroke-width: 0.8"/>
      </g>
     </g>
     <g id="text_22">
      <!-- 40% -->
      <g transform="translate(215.45875 62.759375)scale(0.08 -0.08)">
       <use xlink:href="#DejaVuSans-34"/>
       <use xlink:href="#DejaVuSans-30" x="63.623047"/>
       <use xlink:href="#DejaVuSans-25" x="127.246094"/>
      </g>
     </g>
    </g>
    <g id="ytick_9">
     <g id="line2d_30">
      <g>
       <use xlink:href="#mf554907a1e" x="240.24" y="35.61" style="stroke: #000000; stroke-width: 0.8"/>
      </g>
     </g>
     <g id="line2d_31">
      <g>
       <use xlink:href="#m095403305e" x="384.5" y="35.61" style="stroke: #000000; stroke-width: 0.8"/>
      </g>
     </g>
     <g id="text_23">
      <!-- 60% -->
      <g transform="translate(215.45875 38.649375)scale(0.08 -0.08)">
       <defs>
        <path id="DejaVuSans-36" d="M 2113 2584 
Q 1688 2584 1439 2293 
Q 1191 2003 1191 1497 
Q 1191 994 1439 701 
Q 1688 409 2113 409 
Q 2538 409 2786 701 
Q 3034 994 3034 1497 
Q 3034 2003 2786 2293 
Q 2538 2584 2113 2584 
z
M 3366 4563 
L 3366 3988 
Q 3128 4100 2886 4159 
Q 2644 4219 2406 4219 
Q 1781 4219 1451 3797 
Q 1122 3375 1075 2522 
Q 1259 2794 1537 2939 
Q 1816 3084 2150 3084 
Q 2853 3084 3261 2657 
Q 3669 2231 3669 1497 
Q 3669 778 3244 343 
Q 2819 -91 2113 -91 
Q 1303 -91 875 529 
Q 447 1150 447 2328 
Q 447 3434 972 4092 
Q 1497 4750 2381 4750 
Q 2619 4750 2861 4703 
Q 3103 4656 3366 4563 
z
" transform="scale(0.015625)"/>
       </defs>
       <use xlink:href="#DejaVuSans-36"/>
       <use xlink:href="#DejaVuSans-30" x="63.623047"/>
       <use xlink:href="#DejaVuSans-25" x="127.246094"/>
      </g>
     </g>
    </g>
    <g id="ytick_10">
     <g id="line2d_32">
      <g>
       <use xlink:href="#mf554907a1e" x="240.24" y="11.5" style="stroke: #000000; stroke-width: 0.8"/>
      </g>
     </g>
     <g id="line2d_33">
      <g>
       <use xlink:href="#m095403305e" x="384.5" y="11.5" style="stroke: #000000; stroke-width: 0.8"/>
      </g>
     </g>
     <g id="text_24">
      <!-- 80% -->
      <g transform="translate(215.45875 14.539375)scale(0.08 -0.08)">
       <defs>
        <path id="DejaVuSans-38" d="M 2034 2216 
Q 1584 2216 1326 1975 
Q 1069 1734 1069 1313 
Q 1069 891 1326 650 
Q 1584 409 2034 409 
Q 2484 409 2743 651 
Q 3003 894 3003 1313 
Q 3003 1734 2745 1975 
Q 2488 2216 2034 2216 
z
M 1403 2484 
Q 997 2584 770 2862 
Q 544 3141 544 3541 
Q 544 4100 942 4425 
Q 1341 4750 2034 4750 
Q 2731 4750 3128 4425 
Q 3525 4100 3525 3541 
Q 3525 3141 3298 2862 
Q 3072 2584 2669 2484 
Q 3125 2378 3379 2068 
Q 3634 1759 3634 1313 
Q 3634 634 3220 271 
Q 2806 -91 2034 -91 
Q 1263 -91 848 271 
Q 434 634 434 1313 
Q 434 1759 690 2068 
Q 947 2378 1403 2484 
z
M 1172 3481 
Q 1172 3119 1398 2916 
Q 1625 2713 2034 2713 
Q 2441 2713 2670 2916 
Q 2900 3119 2900 3481 
Q 2900 3844 2670 4047 
Q 2441 4250 2034 4250 
Q 1625 4250 1398 4047 
Q 1172 3844 1172 3481 
z
" transform="scale(0.015625)"/>
       </defs>
       <use xlink:href="#DejaVuSans-38"/>
       <use xlink:href="#DejaVuSans-30" x="63.623047"/>
       <use xlink:href="#DejaVuSans-25" x="127.246094"/>
      </g>
     </g>
    </g>
    <g id="text_25">
     <!-- Success ratio -->
     <g transform="translate(209.379063 92.964531)rotate(-90)scale(0.1 -0.1)">
      <defs>
       <path id="DejaVuSans-63" d="M 3122 3366 
L 3122 2828 
Q 2878 2963 2633 3030 
Q 2388 3097 2138 3097 
Q 1578 3097 1268 2742 
Q 959 2388 959 1747 
Q 959 1106 1268 751 
Q 1578 397 2138 397 
Q 2388 397 2633 464 
Q 2878 531 3122 666 
L 3122 134 
Q 2881 22 2623 -34 
Q 2366 -91 2075 -91 
Q 1284 -91 818 406 
Q 353 903 353 1747 
Q 353 2603 823 3093 
Q 1294 3584 2113 3584 
Q 2378 3584 2631 3529 
Q 2884 3475 3122 3366 
z
" transform="scale(0.015625)"/>
      </defs>
      <use xlink:href="#DejaVuSans-53"/>
      <use xlink:href="#DejaVuSans-75" x="63.476562"/>
      <use xlink:href="#DejaVuSans-63" x="126.855469"/>
      <use xlink:href="#DejaVuSans-63" x="181.835938"/>
      <use xlink:href="#DejaVuSans-65" x="236.816406"/>
      <use xlink:href="#DejaVuSans-73" x="298.339844"/>
      <use xlink:href="#DejaVuSans-73" x="350.439453"/>
      <use xlink:href="#DejaVuSans-20" x="402.539062"/>
      <use xlink:href="#DejaVuSans-72" x="434.326172"/>
      <use xlink:href="#DejaVuSans-61" x="475.439453"/>
      <use xlink:href="#DejaVuSans-74" x="536.71875"/>
      <use xlink:href="#DejaVuSans-69" x="575.927734"/>
      <use xlink:href="#DejaVuSans-6f" x="603.710938"/>
     </g>
    </g>
   </g>
   <g id="line2d_34">
    <path d="M 240.24 107.94 
L 269.092 107.94 
L 297.944 107.94 
L 326.796 107.94 
L 355.648 104.3235 
L 384.5 94.6795 
" clip-path="url(#pf76e5706f8)" style="fill: none; stroke: #1f77b4; stroke-linecap: square"/>
   </g>
   <g id="line2d_35">
    <path d="M 240.24 107.94 
L 269.092 91.063 
L 297.944 79.008 
L 326.796 58.5145 
L 355.648 40.432 
L 384.5 25.966 
" clip-path="url(#pf76e5706f8)" style="fill: none; stroke: #ff7f0e; stroke-linecap: square"/>
   </g>
   <g id="line2d_36">
    <path d="M 240.24 107.94 
L 269.092 107.94 
L 297.944 92.2685 
L 326.796 62.131 
L 355.648 33.199 
L 384.5 15.1165 
" clip-path="url(#pf76e5706f8)" style="fill: none; stroke: #2ca02c; stroke-linecap: square"/>
   </g>
   <g id="line2d_37">
    <path d="M 240.24 107.94 
L 269.092 104.3235 
L 297.944 92.2685 
L 326.796 75.3915 
L 355.648 54.898 
L 384.5 42.843 
" clip-path="url(#pf76e5706f8)" style="fill: none; stroke: #d62728; stroke-linecap: square"/>
   </g>
   <g id="line2d_38">
    <path d="M 240.24 107.94 
L 269.092 107.94 
L 297.944 99.5015 
L 326.796 83.83 
L 355.648 62.131 
L 384.5 34.4045 
" clip-path="url(#pf76e5706f8)" style="fill: none; stroke: #9467bd; stroke-linecap: square"/>
   </g>
   <g id="line2d_39">
    <path d="M 240.24 107.94 
L 269.092 107.94 
L 297.944 104.3235 
L 326.796 79.008 
L 355.648 51.2815 
L 384.5 24.7605 
" clip-path="url(#pf76e5706f8)" style="fill: none; stroke: #8c564b; stroke-linecap: square"/>
   </g>
   <g id="patch_8">
    <path d="M 240.24 107.94 
L 240.24 11.5 
" style="fill: none; stroke: #000000; stroke-width: 0.8; stroke-linejoin: miter; stroke-linecap: square"/>
   </g>
   <g id="patch_9">
    <path d="M 384.5 107.94 
L 384.5 11.5 
" style="fill: none; stroke: #000000; stroke-width: 0.8; stroke-linejoin: miter; stroke-linecap: square"/>
   </g>
   <g id="patch_10">
    <path d="M 240.24 107.94 
L 384.5 107.94 
" style="fill: none; stroke: #000000; stroke-width: 0.8; stroke-linejoin: miter; stroke-linecap: square"/>
   </g>
   <g id="patch_11">
    <path d="M 240.24 11.5 
L 384.5 11.5 
" style="fill: none; stroke: #000000; stroke-width: 0.8; stroke-linejoin: miter; stroke-linecap: square"/>
   </g>
  </g>
  <g id="text_26">
   <!-- b -->
   <g transform="translate(3.96 7.598437)scale(0.1 -0.1)">
    <defs>
     <path id="DejaVuSans-Bold-62" d="M 2400 722 
Q 2759 722 2948 984 
Q 3138 1247 3138 1747 
Q 3138 2247 2948 2509 
Q 2759 2772 2400 2772 
Q 2041 2772 1848 2508 
Q 1656 2244 1656 1747 
Q 1656 1250 1848 986 
Q 2041 722 2400 722 
z
M 1656 2988 
Q 1888 3294 2169 3439 
Q 2450 3584 2816 3584 
Q 3463 3584 3878 3070 
Q 4294 2556 4294 1747 
Q 4294 938 3878 423 
Q 3463 -91 2816 -91 
Q 2450 -91 2169 54 
Q 1888 200 1656 506 
L 1656 0 
L 538 0 
L 538 4863 
L 1656 4863 
L 1656 2988 
z
" transform="scale(0.015625)"/>
    </defs>
    <use xlink:href="#DejaVuSans-Bold-62"/>
   </g>
  </g>
  <g id="text_27">
   <!-- c -->
   <g transform="translate(198 7.598437)scale(0.1 -0.1)">
    <defs>
     <path id="DejaVuSans-Bold-63" d="M 3366 3391 
L 3366 2478 
Q 3138 2634 2908 2709 
Q 2678 2784 2431 2784 
Q 1963 2784 1702 2511 
Q 1441 2238 1441 1747 
Q 1441 1256 1702 982 
Q 1963 709 2431 709 
Q 2694 709 2930 787 
Q 3166 866 3366 1019 
L 3366 103 
Q 3103 6 2833 -42 
Q 2563 -91 2291 -91 
Q 1344 -91 809 395 
Q 275 881 275 1747 
Q 275 2613 809 3098 
Q 1344 3584 2291 3584 
Q 2566 3584 2833 3536 
Q 3100 3488 3366 3391 
z
" transform="scale(0.015625)"/>
    </defs>
    <use xlink:href="#DejaVuSans-Bold-63"/>
   </g>
  </g>
 </g>
 <defs>
  <clipPath id="p730f3d0239">
   <rect x="46.99" y="11.5" width="144.26" height="96.44"/>
  </clipPath>
  <clipPath id="pf76e5706f8">
   <rect x="240.24" y="11.5" width="144.26" height="96.44"/>
  </clipPath>
 </defs>
</svg>
