<?xml version="1.0" encoding="utf-8" standalone="no"?>
<!DOCTYPE svg PUBLIC "-//W3C//DTD SVG 1.1//EN"
  "http://www.w3.org/Graphics/SVG/1.1/DTD/svg11.dtd">
<svg xmlns:xlink="http://www.w3.org/1999/xlink" width="396pt" height="144pt" viewBox="0 0 396 144" xmlns="http://www.w3.org/2000/svg" version="1.1">
 <metadata>
  <rdf:RDF xmlns:dc="http://purl.org/dc/elements/1.1/" xmlns:cc="http://creativecommons.org/ns#" xmlns:rdf="http://www.w3.org/1999/02/22-rdf-syntax-ns#">
   <cc:Work>
    <dc:type rdf:resource="http://purl.org/dc/dcmitype/StillImage"/>
    <dc:date>2022-09-07T14:39:21.163356</dc:date>
    <dc:format>image/svg+xml</dc:format>
    <dc:creator>
     <cc:Agent>
      <dc:title>Matplotlib v3.5.3, https://matplotlib.org/</dc:title>
     </cc:Agent>
    </dc:creator>
   </cc:Work>
  </rdf:RDF>
 </metadata>
 <defs>
  <style type="text/css">*{stroke-linejoin: round; stroke-linecap: butt}</style>
 </defs>
 <g id="figure_1">
  <g id="patch_1">
   <path d="M 0 144 
L 396 144 
L 396 0 
L 0 0 
z
" style="fill: #ffffff"/>
  </g>
  <g id="axes_1">
   <g id="patch_2">
    <path d="M 52.12 94.71 
L 196.38 94.71 
L 196.38 10.88 
L 52.12 10.88 
z
" style="fill: #ffffff"/>
   </g>
   <g id="matplotlib.axis_1">
    <g id="xtick_1">
     <g id="line2d_1">
      <defs>
       <path id="m3843aa8841" d="M 0 0 
L 0 3.5 
" style="stroke: #000000; stroke-width: 0.8"/>
      </defs>
      <g>
       <use xlink:href="#m3843aa8841" x="52.12" y="94.71" style="stroke: #000000; stroke-width: 0.8"/>
      </g>
     </g>
     <g id="text_1">
      <!-- 0 -->
      <g transform="translate(49.575 107.78875)scale(0.08 -0.08)">
       <defs>
        <path id="DejaVuSans-30" d="M 2034 4250 
Q 1547 4250 1301 3770 
Q 1056 3291 1056 2328 
Q 1056 1369 1301 889 
Q 1547 409 2034 409 
Q 2525 409 2770 889 
Q 3016 1369 3016 2328 
Q 3016 3291 2770 3770 
Q 2525 4250 2034 4250 
z
M 2034 4750 
Q 2819 4750 3233 4129 
Q 3647 3509 3647 2328 
Q 3647 1150 3233 529 
Q 2819 -91 2034 -91 
Q 1250 -91 836 529 
Q 422 1150 422 2328 
Q 422 3509 836 4129 
Q 1250 4750 2034 4750 
z
" transform="scale(0.015625)"/>
       </defs>
       <use xlink:href="#DejaVuSans-30"/>
      </g>
     </g>
    </g>
    <g id="xtick_2">
     <g id="line2d_2">
      <g>
       <use xlink:href="#m3843aa8841" x="80.972" y="94.71" style="stroke: #000000; stroke-width: 0.8"/>
      </g>
     </g>
     <g id="text_2">
      <!-- 1 -->
      <g transform="translate(78.427 107.78875)scale(0.08 -0.08)">
       <defs>
        <path id="DejaVuSans-31" d="M 794 531 
L 1825 531 
L 1825 4091 
L 703 3866 
L 703 4441 
L 1819 4666 
L 2450 4666 
L 2450 531 
L 3481 531 
L 3481 0 
L 794 0 
L 794 531 
z
" transform="scale(0.015625)"/>
       </defs>
       <use xlink:href="#DejaVuSans-31"/>
      </g>
     </g>
    </g>
    <g id="xtick_3">
     <g id="line2d_3">
      <g>
       <use xlink:href="#m3843aa8841" x="109.824" y="94.71" style="stroke: #000000; stroke-width: 0.8"/>
      </g>
     </g>
     <g id="text_3">
      <!-- 2 -->
      <g transform="translate(107.279 107.78875)scale(0.08 -0.08)">
       <defs>
        <path id="DejaVuSans-32" d="M 1228 531 
L 3431 531 
L 3431 0 
L 469 0 
L 469 531 
Q 828 903 1448 1529 
Q 2069 2156 2228 2338 
Q 2531 2678 2651 2914 
Q 2772 3150 2772 3378 
Q 2772 3750 2511 3984 
Q 2250 4219 1831 4219 
Q 1534 4219 1204 4116 
Q 875 4013 500 3803 
L 500 4441 
Q 881 4594 1212 4672 
Q 1544 4750 1819 4750 
Q 2544 4750 2975 4387 
Q 3406 4025 3406 3419 
Q 3406 3131 3298 2873 
Q 3191 2616 2906 2266 
Q 2828 2175 2409 1742 
Q 1991 1309 1228 531 
z
" transform="scale(0.015625)"/>
       </defs>
       <use xlink:href="#DejaVuSans-32"/>
      </g>
     </g>
    </g>
    <g id="xtick_4">
     <g id="line2d_4">
      <g>
       <use xlink:href="#m3843aa8841" x="138.676" y="94.71" style="stroke: #000000; stroke-width: 0.8"/>
      </g>
     </g>
     <g id="text_4">
      <!-- 3 -->
      <g transform="translate(136.131 107.78875)scale(0.08 -0.08)">
       <defs>
        <path id="DejaVuSans-33" d="M 2597 2516 
Q 3050 2419 3304 2112 
Q 3559 1806 3559 1356 
Q 3559 666 3084 287 
Q 2609 -91 1734 -91 
Q 1441 -91 1130 -33 
Q 819 25 488 141 
L 488 750 
Q 750 597 1062 519 
Q 1375 441 1716 441 
Q 2309 441 2620 675 
Q 2931 909 2931 1356 
Q 2931 1769 2642 2001 
Q 2353 2234 1838 2234 
L 1294 2234 
L 1294 2753 
L 1863 2753 
Q 2328 2753 2575 2939 
Q 2822 3125 2822 3475 
Q 2822 3834 2567 4026 
Q 2313 4219 1838 4219 
Q 1578 4219 1281 4162 
Q 984 4106 628 3988 
L 628 4550 
Q 988 4650 1302 4700 
Q 1616 4750 1894 4750 
Q 2613 4750 3031 4423 
Q 3450 4097 3450 3541 
Q 3450 3153 3228 2886 
Q 3006 2619 2597 2516 
z
" transform="scale(0.015625)"/>
       </defs>
       <use xlink:href="#DejaVuSans-33"/>
      </g>
     </g>
    </g>
    <g id="xtick_5">
     <g id="line2d_5">
      <g>
       <use xlink:href="#m3843aa8841" x="167.528" y="94.71" style="stroke: #000000; stroke-width: 0.8"/>
      </g>
     </g>
     <g id="text_5">
      <!-- 4 -->
      <g transform="translate(164.983 107.78875)scale(0.08 -0.08)">
       <defs>
        <path id="DejaVuSans-34" d="M 2419 4116 
L 825 1625 
L 2419 1625 
L 2419 4116 
z
M 2253 4666 
L 3047 4666 
L 3047 1625 
L 3713 1625 
L 3713 1100 
L 3047 1100 
L 3047 0 
L 2419 0 
L 2419 1100 
L 313 1100 
L 313 1709 
L 2253 4666 
z
" transform="scale(0.015625)"/>
       </defs>
       <use xlink:href="#DejaVuSans-34"/>
      </g>
     </g>
    </g>
    <g id="xtick_6">
     <g id="line2d_6">
      <g>
       <use xlink:href="#m3843aa8841" x="196.38" y="94.71" style="stroke: #000000; stroke-width: 0.8"/>
      </g>
     </g>
     <g id="text_6">
      <!-- 5 -->
      <g transform="translate(193.835 107.78875)scale(0.08 -0.08)">
       <defs>
        <path id="DejaVuSans-35" d="M 691 4666 
L 3169 4666 
L 3169 4134 
L 1269 4134 
L 1269 2991 
Q 1406 3038 1543 3061 
Q 1681 3084 1819 3084 
Q 2600 3084 3056 2656 
Q 3513 2228 3513 1497 
Q 3513 744 3044 326 
Q 2575 -91 1722 -91 
Q 1428 -91 1123 -41 
Q 819 9 494 109 
L 494 744 
Q 775 591 1075 516 
Q 1375 441 1709 441 
Q 2250 441 2565 725 
Q 2881 1009 2881 1497 
Q 2881 1984 2565 2268 
Q 2250 2553 1709 2553 
Q 1456 2553 1204 2497 
Q 953 2441 691 2322 
L 691 4666 
z
" transform="scale(0.015625)"/>
       </defs>
       <use xlink:href="#DejaVuSans-35"/>
      </g>
     </g>
    </g>
    <g id="text_7">
     <!-- Round -->
     <g transform="translate(108.429687 121.050938)scale(0.1 -0.1)">
      <defs>
       <path id="DejaVuSans-52" d="M 2841 2188 
Q 3044 2119 3236 1894 
Q 3428 1669 3622 1275 
L 4263 0 
L 3584 0 
L 2988 1197 
Q 2756 1666 2539 1819 
Q 2322 1972 1947 1972 
L 1259 1972 
L 1259 0 
L 628 0 
L 628 4666 
L 2053 4666 
Q 2853 4666 3247 4331 
Q 3641 3997 3641 3322 
Q 3641 2881 3436 2590 
Q 3231 2300 2841 2188 
z
M 1259 4147 
L 1259 2491 
L 2053 2491 
Q 2509 2491 2742 2702 
Q 2975 2913 2975 3322 
Q 2975 3731 2742 3939 
Q 2509 4147 2053 4147 
L 1259 4147 
z
" transform="scale(0.015625)"/>
       <path id="DejaVuSans-6f" d="M 1959 3097 
Q 1497 3097 1228 2736 
Q 959 2375 959 1747 
Q 959 1119 1226 758 
Q 1494 397 1959 397 
Q 2419 397 2687 759 
Q 2956 1122 2956 1747 
Q 2956 2369 2687 2733 
Q 2419 3097 1959 3097 
z
M 1959 3584 
Q 2709 3584 3137 3096 
Q 3566 2609 3566 1747 
Q 3566 888 3137 398 
Q 2709 -91 1959 -91 
Q 1206 -91 779 398 
Q 353 888 353 1747 
Q 353 2609 779 3096 
Q 1206 3584 1959 3584 
z
" transform="scale(0.015625)"/>
       <path id="DejaVuSans-75" d="M 544 1381 
L 544 3500 
L 1119 3500 
L 1119 1403 
Q 1119 906 1312 657 
Q 1506 409 1894 409 
Q 2359 409 2629 706 
Q 2900 1003 2900 1516 
L 2900 3500 
L 3475 3500 
L 3475 0 
L 2900 0 
L 2900 538 
Q 2691 219 2414 64 
Q 2138 -91 1772 -91 
Q 1169 -91 856 284 
Q 544 659 544 1381 
z
M 1991 3584 
L 1991 3584 
z
" transform="scale(0.015625)"/>
       <path id="DejaVuSans-6e" d="M 3513 2113 
L 3513 0 
L 2938 0 
L 2938 2094 
Q 2938 2591 2744 2837 
Q 2550 3084 2163 3084 
Q 1697 3084 1428 2787 
Q 1159 2491 1159 1978 
L 1159 0 
L 581 0 
L 581 3500 
L 1159 3500 
L 1159 2956 
Q 1366 3272 1645 3428 
Q 1925 3584 2291 3584 
Q 2894 3584 3203 3211 
Q 3513 2838 3513 2113 
z
" transform="scale(0.015625)"/>
       <path id="DejaVuSans-64" d="M 2906 2969 
L 2906 4863 
L 3481 4863 
L 3481 0 
L 2906 0 
L 2906 525 
Q 2725 213 2448 61 
Q 2172 -91 1784 -91 
Q 1150 -91 751 415 
Q 353 922 353 1747 
Q 353 2572 751 3078 
Q 1150 3584 1784 3584 
Q 2172 3584 2448 3432 
Q 2725 3281 2906 2969 
z
M 947 1747 
Q 947 1113 1208 752 
Q 1469 391 1925 391 
Q 2381 391 2643 752 
Q 2906 1113 2906 1747 
Q 2906 2381 2643 2742 
Q 2381 3103 1925 3103 
Q 1469 3103 1208 2742 
Q 947 2381 947 1747 
z
" transform="scale(0.015625)"/>
      </defs>
      <use xlink:href="#DejaVuSans-52"/>
      <use xlink:href="#DejaVuSans-6f" x="64.982422"/>
      <use xlink:href="#DejaVuSans-75" x="126.164062"/>
      <use xlink:href="#DejaVuSans-6e" x="189.542969"/>
      <use xlink:href="#DejaVuSans-64" x="252.921875"/>
     </g>
    </g>
   </g>
   <g id="matplotlib.axis_2">
    <g id="ytick_1">
     <g id="line2d_7">
      <defs>
       <path id="m619b997413" d="M 0 0 
L -3.5 0 
" style="stroke: #000000; stroke-width: 0.8"/>
      </defs>
      <g>
       <use xlink:href="#m619b997413" x="52.12" y="94.71" style="stroke: #000000; stroke-width: 0.8"/>
      </g>
     </g>
     <g id="line2d_8">
      <defs>
       <path id="m04d2945959" d="M 0 0 
L 3.5 0 
" style="stroke: #000000; stroke-width: 0.8"/>
      </defs>
      <g>
       <use xlink:href="#m04d2945959" x="196.38" y="94.71" style="stroke: #000000; stroke-width: 0.8"/>
      </g>
     </g>
     <g id="text_8">
      <!-- 0% -->
      <g transform="translate(32.42875 97.749375)scale(0.08 -0.08)">
       <defs>
        <path id="DejaVuSans-25" d="M 4653 2053 
Q 4381 2053 4226 1822 
Q 4072 1591 4072 1178 
Q 4072 772 4226 539 
Q 4381 306 4653 306 
Q 4919 306 5073 539 
Q 5228 772 5228 1178 
Q 5228 1588 5073 1820 
Q 4919 2053 4653 2053 
z
M 4653 2450 
Q 5147 2450 5437 2106 
Q 5728 1763 5728 1178 
Q 5728 594 5436 251 
Q 5144 -91 4653 -91 
Q 4153 -91 3862 251 
Q 3572 594 3572 1178 
Q 3572 1766 3864 2108 
Q 4156 2450 4653 2450 
z
M 1428 4353 
Q 1159 4353 1004 4120 
Q 850 3888 850 3481 
Q 850 3069 1003 2837 
Q 1156 2606 1428 2606 
Q 1700 2606 1854 2837 
Q 2009 3069 2009 3481 
Q 2009 3884 1853 4118 
Q 1697 4353 1428 4353 
z
M 4250 4750 
L 4750 4750 
L 1831 -91 
L 1331 -91 
L 4250 4750 
z
M 1428 4750 
Q 1922 4750 2215 4408 
Q 2509 4066 2509 3481 
Q 2509 2891 2217 2550 
Q 1925 2209 1428 2209 
Q 931 2209 642 2551 
Q 353 2894 353 3481 
Q 353 4063 643 4406 
Q 934 4750 1428 4750 
z
" transform="scale(0.015625)"/>
       </defs>
       <use xlink:href="#DejaVuSans-30"/>
       <use xlink:href="#DejaVuSans-25" x="63.623047"/>
      </g>
     </g>
    </g>
    <g id="ytick_2">
     <g id="line2d_9">
      <g>
       <use xlink:href="#m619b997413" x="52.12" y="77.944" style="stroke: #000000; stroke-width: 0.8"/>
      </g>
     </g>
     <g id="line2d_10">
      <g>
       <use xlink:href="#m04d2945959" x="196.38" y="77.944" style="stroke: #000000; stroke-width: 0.8"/>
      </g>
     </g>
     <g id="text_9">
      <!-- 20% -->
      <g transform="translate(27.33875 80.983375)scale(0.08 -0.08)">
       <use xlink:href="#DejaVuSans-32"/>
       <use xlink:href="#DejaVuSans-30" x="63.623047"/>
       <use xlink:href="#DejaVuSans-25" x="127.246094"/>
      </g>
     </g>
    </g>
    <g id="ytick_3">
     <g id="line2d_11">
      <g>
       <use xlink:href="#m619b997413" x="52.12" y="61.178" style="stroke: #000000; stroke-width: 0.8"/>
      </g>
     </g>
     <g id="line2d_12">
      <g>
       <use xlink:href="#m04d2945959" x="196.38" y="61.178" style="stroke: #000000; stroke-width: 0.8"/>
      </g>
     </g>
     <g id="text_10">
      <!-- 40% -->
      <g transform="translate(27.33875 64.217375)scale(0.08 -0.08)">
       <use xlink:href="#DejaVuSans-34"/>
       <use xlink:href="#DejaVuSans-30" x="63.623047"/>
       <use xlink:href="#DejaVuSans-25" x="127.246094"/>
      </g>
     </g>
    </g>
    <g id="ytick_4">
     <g id="line2d_13">
      <g>
       <use xlink:href="#m619b997413" x="52.12" y="44.412" style="stroke: #000000; stroke-width: 0.8"/>
      </g>
     </g>
     <g id="line2d_14">
      <g>
       <use xlink:href="#m04d2945959" x="196.38" y="44.412" style="stroke: #000000; stroke-width: 0.8"/>
      </g>
     </g>
     <g id="text_11">
      <!-- 60% -->
      <g transform="translate(27.33875 47.451375)scale(0.08 -0.08)">
       <defs>
        <path id="DejaVuSans-36" d="M 2113 2584 
Q 1688 2584 1439 2293 
Q 1191 2003 1191 1497 
Q 1191 994 1439 701 
Q 1688 409 2113 409 
Q 2538 409 2786 701 
Q 3034 994 3034 1497 
Q 3034 2003 2786 2293 
Q 2538 2584 2113 2584 
z
M 3366 4563 
L 3366 3988 
Q 3128 4100 2886 4159 
Q 2644 4219 2406 4219 
Q 1781 4219 1451 3797 
Q 1122 3375 1075 2522 
Q 1259 2794 1537 2939 
Q 1816 3084 2150 3084 
Q 2853 3084 3261 2657 
Q 3669 2231 3669 1497 
Q 3669 778 3244 343 
Q 2819 -91 2113 -91 
Q 1303 -91 875 529 
Q 447 1150 447 2328 
Q 447 3434 972 4092 
Q 1497 4750 2381 4750 
Q 2619 4750 2861 4703 
Q 3103 4656 3366 4563 
z
" transform="scale(0.015625)"/>
       </defs>
       <use xlink:href="#DejaVuSans-36"/>
       <use xlink:href="#DejaVuSans-30" x="63.623047"/>
       <use xlink:href="#DejaVuSans-25" x="127.246094"/>
      </g>
     </g>
    </g>
    <g id="ytick_5">
     <g id="line2d_15">
      <g>
       <use xlink:href="#m619b997413" x="52.12" y="27.646" style="stroke: #000000; stroke-width: 0.8"/>
      </g>
     </g>
     <g id="line2d_16">
      <g>
       <use xlink:href="#m04d2945959" x="196.38" y="27.646" style="stroke: #000000; stroke-width: 0.8"/>
      </g>
     </g>
     <g id="text_12">
      <!-- 80% -->
      <g transform="translate(27.33875 30.685375)scale(0.08 -0.08)">
       <defs>
        <path id="DejaVuSans-38" d="M 2034 2216 
Q 1584 2216 1326 1975 
Q 1069 1734 1069 1313 
Q 1069 891 1326 650 
Q 1584 409 2034 409 
Q 2484 409 2743 651 
Q 3003 894 3003 1313 
Q 3003 1734 2745 1975 
Q 2488 2216 2034 2216 
z
M 1403 2484 
Q 997 2584 770 2862 
Q 544 3141 544 3541 
Q 544 4100 942 4425 
Q 1341 4750 2034 4750 
Q 2731 4750 3128 4425 
Q 3525 4100 3525 3541 
Q 3525 3141 3298 2862 
Q 3072 2584 2669 2484 
Q 3125 2378 3379 2068 
Q 3634 1759 3634 1313 
Q 3634 634 3220 271 
Q 2806 -91 2034 -91 
Q 1263 -91 848 271 
Q 434 634 434 1313 
Q 434 1759 690 2068 
Q 947 2378 1403 2484 
z
M 1172 3481 
Q 1172 3119 1398 2916 
Q 1625 2713 2034 2713 
Q 2441 2713 2670 2916 
Q 2900 3119 2900 3481 
Q 2900 3844 2670 4047 
Q 2441 4250 2034 4250 
Q 1625 4250 1398 4047 
Q 1172 3844 1172 3481 
z
" transform="scale(0.015625)"/>
       </defs>
       <use xlink:href="#DejaVuSans-38"/>
       <use xlink:href="#DejaVuSans-30" x="63.623047"/>
       <use xlink:href="#DejaVuSans-25" x="127.246094"/>
      </g>
     </g>
    </g>
    <g id="ytick_6">
     <g id="line2d_17">
      <g>
       <use xlink:href="#m619b997413" x="52.12" y="10.88" style="stroke: #000000; stroke-width: 0.8"/>
      </g>
     </g>
     <g id="line2d_18">
      <g>
       <use xlink:href="#m04d2945959" x="196.38" y="10.88" style="stroke: #000000; stroke-width: 0.8"/>
      </g>
     </g>
     <g id="text_13">
      <!-- 100% -->
      <g transform="translate(22.24875 13.919375)scale(0.08 -0.08)">
       <use xlink:href="#DejaVuSans-31"/>
       <use xlink:href="#DejaVuSans-30" x="63.623047"/>
       <use xlink:href="#DejaVuSans-30" x="127.246094"/>
       <use xlink:href="#DejaVuSans-25" x="190.869141"/>
      </g>
     </g>
    </g>
    <g id="text_14">
     <!-- Success ratio -->
     <g transform="translate(16.169063 86.039531)rotate(-90)scale(0.1 -0.1)">
      <defs>
       <path id="DejaVuSans-53" d="M 3425 4513 
L 3425 3897 
Q 3066 4069 2747 4153 
Q 2428 4238 2131 4238 
Q 1616 4238 1336 4038 
Q 1056 3838 1056 3469 
Q 1056 3159 1242 3001 
Q 1428 2844 1947 2747 
L 2328 2669 
Q 3034 2534 3370 2195 
Q 3706 1856 3706 1288 
Q 3706 609 3251 259 
Q 2797 -91 1919 -91 
Q 1588 -91 1214 -16 
Q 841 59 441 206 
L 441 856 
Q 825 641 1194 531 
Q 1563 422 1919 422 
Q 2459 422 2753 634 
Q 3047 847 3047 1241 
Q 3047 1584 2836 1778 
Q 2625 1972 2144 2069 
L 1759 2144 
Q 1053 2284 737 2584 
Q 422 2884 422 3419 
Q 422 4038 858 4394 
Q 1294 4750 2059 4750 
Q 2388 4750 2728 4690 
Q 3069 4631 3425 4513 
z
" transform="scale(0.015625)"/>
       <path id="DejaVuSans-63" d="M 3122 3366 
L 3122 2828 
Q 2878 2963 2633 3030 
Q 2388 3097 2138 3097 
Q 1578 3097 1268 2742 
Q 959 2388 959 1747 
Q 959 1106 1268 751 
Q 1578 397 2138 397 
Q 2388 397 2633 464 
Q 2878 531 3122 666 
L 3122 134 
Q 2881 22 2623 -34 
Q 2366 -91 2075 -91 
Q 1284 -91 818 406 
Q 353 903 353 1747 
Q 353 2603 823 3093 
Q 1294 3584 2113 3584 
Q 2378 3584 2631 3529 
Q 2884 3475 3122 3366 
z
" transform="scale(0.015625)"/>
       <path id="DejaVuSans-65" d="M 3597 1894 
L 3597 1613 
L 953 1613 
Q 991 1019 1311 708 
Q 1631 397 2203 397 
Q 2534 397 2845 478 
Q 3156 559 3463 722 
L 3463 178 
Q 3153 47 2828 -22 
Q 2503 -91 2169 -91 
Q 1331 -91 842 396 
Q 353 884 353 1716 
Q 353 2575 817 3079 
Q 1281 3584 2069 3584 
Q 2775 3584 3186 3129 
Q 3597 2675 3597 1894 
z
M 3022 2063 
Q 3016 2534 2758 2815 
Q 2500 3097 2075 3097 
Q 1594 3097 1305 2825 
Q 1016 2553 972 2059 
L 3022 2063 
z
" transform="scale(0.015625)"/>
       <path id="DejaVuSans-73" d="M 2834 3397 
L 2834 2853 
Q 2591 2978 2328 3040 
Q 2066 3103 1784 3103 
Q 1356 3103 1142 2972 
Q 928 2841 928 2578 
Q 928 2378 1081 2264 
Q 1234 2150 1697 2047 
L 1894 2003 
Q 2506 1872 2764 1633 
Q 3022 1394 3022 966 
Q 3022 478 2636 193 
Q 2250 -91 1575 -91 
Q 1294 -91 989 -36 
Q 684 19 347 128 
L 347 722 
Q 666 556 975 473 
Q 1284 391 1588 391 
Q 1994 391 2212 530 
Q 2431 669 2431 922 
Q 2431 1156 2273 1281 
Q 2116 1406 1581 1522 
L 1381 1569 
Q 847 1681 609 1914 
Q 372 2147 372 2553 
Q 372 3047 722 3315 
Q 1072 3584 1716 3584 
Q 2034 3584 2315 3537 
Q 2597 3491 2834 3397 
z
" transform="scale(0.015625)"/>
       <path id="DejaVuSans-20" transform="scale(0.015625)"/>
       <path id="DejaVuSans-72" d="M 2631 2963 
Q 2534 3019 2420 3045 
Q 2306 3072 2169 3072 
Q 1681 3072 1420 2755 
Q 1159 2438 1159 1844 
L 1159 0 
L 581 0 
L 581 3500 
L 1159 3500 
L 1159 2956 
Q 1341 3275 1631 3429 
Q 1922 3584 2338 3584 
Q 2397 3584 2469 3576 
Q 2541 3569 2628 3553 
L 2631 2963 
z
" transform="scale(0.015625)"/>
       <path id="DejaVuSans-61" d="M 2194 1759 
Q 1497 1759 1228 1600 
Q 959 1441 959 1056 
Q 959 750 1161 570 
Q 1363 391 1709 391 
Q 2188 391 2477 730 
Q 2766 1069 2766 1631 
L 2766 1759 
L 2194 1759 
z
M 3341 1997 
L 3341 0 
L 2766 0 
L 2766 531 
Q 2569 213 2275 61 
Q 1981 -91 1556 -91 
Q 1019 -91 701 211 
Q 384 513 384 1019 
Q 384 1609 779 1909 
Q 1175 2209 1959 2209 
L 2766 2209 
L 2766 2266 
Q 2766 2663 2505 2880 
Q 2244 3097 1772 3097 
Q 1472 3097 1187 3025 
Q 903 2953 641 2809 
L 641 3341 
Q 956 3463 1253 3523 
Q 1550 3584 1831 3584 
Q 2591 3584 2966 3190 
Q 3341 2797 3341 1997 
z
" transform="scale(0.015625)"/>
       <path id="DejaVuSans-74" d="M 1172 4494 
L 1172 3500 
L 2356 3500 
L 2356 3053 
L 1172 3053 
L 1172 1153 
Q 1172 725 1289 603 
Q 1406 481 1766 481 
L 2356 481 
L 2356 0 
L 1766 0 
Q 1100 0 847 248 
Q 594 497 594 1153 
L 594 3053 
L 172 3053 
L 172 3500 
L 594 3500 
L 594 4494 
L 1172 4494 
z
" transform="scale(0.015625)"/>
       <path id="DejaVuSans-69" d="M 603 3500 
L 1178 3500 
L 1178 0 
L 603 0 
L 603 3500 
z
M 603 4863 
L 1178 4863 
L 1178 4134 
L 603 4134 
L 603 4863 
z
" transform="scale(0.015625)"/>
      </defs>
      <use xlink:href="#DejaVuSans-53"/>
      <use xlink:href="#DejaVuSans-75" x="63.476562"/>
      <use xlink:href="#DejaVuSans-63" x="126.855469"/>
      <use xlink:href="#DejaVuSans-63" x="181.835938"/>
      <use xlink:href="#DejaVuSans-65" x="236.816406"/>
      <use xlink:href="#DejaVuSans-73" x="298.339844"/>
      <use xlink:href="#DejaVuSans-73" x="350.439453"/>
      <use xlink:href="#DejaVuSans-20" x="402.539062"/>
      <use xlink:href="#DejaVuSans-72" x="434.326172"/>
      <use xlink:href="#DejaVuSans-61" x="475.439453"/>
      <use xlink:href="#DejaVuSans-74" x="536.71875"/>
      <use xlink:href="#DejaVuSans-69" x="575.927734"/>
      <use xlink:href="#DejaVuSans-6f" x="603.710938"/>
     </g>
    </g>
   </g>
   <g id="line2d_19">
    <path d="M 52.12 94.71 
L 80.972 73.7525 
L 109.824 57.8248 
L 138.676 53.6333 
L 167.528 49.4418 
L 196.38 49.4418 
" clip-path="url(#p620fd76fc2)" style="fill: none; stroke: #1f77b4; stroke-linecap: square"/>
   </g>
   <g id="line2d_20">
    <path d="M 52.12 94.71 
L 80.972 73.7525 
L 109.824 61.178 
L 138.676 36.029 
L 167.528 23.4545 
L 196.38 19.263 
" clip-path="url(#p620fd76fc2)" style="fill: none; stroke: #ff7f0e; stroke-linecap: square"/>
   </g>
   <g id="line2d_21">
    <path d="M 52.12 94.71 
L 80.972 73.7525 
L 109.824 62.0163 
L 138.676 48.6035 
L 167.528 41.0588 
L 196.38 31.8375 
" clip-path="url(#p620fd76fc2)" style="fill: none; stroke: #2ca02c; stroke-linecap: square"/>
   </g>
   <g id="line2d_22">
    <path d="M 52.12 94.71 
L 80.972 73.7525 
L 109.824 72.0759 
L 138.676 68.7227 
L 167.528 67.8844 
L 196.38 67.0461 
" clip-path="url(#p620fd76fc2)" style="fill: none; stroke: #d62728; stroke-linecap: square"/>
   </g>
   <g id="patch_3">
    <path d="M 52.12 94.71 
L 52.12 10.88 
" style="fill: none; stroke: #000000; stroke-width: 0.8; stroke-linejoin: miter; stroke-linecap: square"/>
   </g>
   <g id="patch_4">
    <path d="M 196.38 94.71 
L 196.38 10.88 
" style="fill: none; stroke: #000000; stroke-width: 0.8; stroke-linejoin: miter; stroke-linecap: square"/>
   </g>
   <g id="patch_5">
    <path d="M 52.12 94.71 
L 196.38 94.71 
" style="fill: none; stroke: #000000; stroke-width: 0.8; stroke-linejoin: miter; stroke-linecap: square"/>
   </g>
   <g id="patch_6">
    <path d="M 52.12 10.88 
L 196.38 10.88 
" style="fill: none; stroke: #000000; stroke-width: 0.8; stroke-linejoin: miter; stroke-linecap: square"/>
   </g>
  </g>
  <g id="axes_2">
   <g id="patch_7">
    <path d="M 243.74 94.71 
L 388 94.71 
L 388 10.88 
L 243.74 10.88 
z
" style="fill: #ffffff"/>
   </g>
   <g id="PolyCollection_1">
    <defs>
     <path id="mb2d2d908a0" d="M 263.401858 -78.519316 
L 255.927753 -78.519316 
L 255.699389 -79.070838 
L 255.470369 -79.62236 
L 255.241763 -80.173882 
L 255.014623 -80.725405 
L 254.789965 -81.276927 
L 254.568756 -81.828449 
L 254.351898 -82.379971 
L 254.140216 -82.931493 
L 253.934453 -83.483015 
L 253.735256 -84.034537 
L 253.543179 -84.586059 
L 253.358676 -85.137581 
L 253.182106 -85.689103 
L 253.013733 -86.240625 
L 252.853739 -86.792147 
L 252.702225 -87.343669 
L 252.559227 -87.895191 
L 252.424726 -88.446713 
L 252.298659 -88.998235 
L 252.180934 -89.549757 
L 252.07144 -90.101279 
L 251.97006 -90.652802 
L 251.876682 -91.204324 
L 251.791207 -91.755846 
L 251.713552 -92.307368 
L 251.643662 -92.85889 
L 251.581502 -93.410412 
L 251.527065 -93.961934 
L 251.480363 -94.513456 
L 251.441427 -95.064978 
L 251.410296 -95.6165 
L 251.387013 -96.168022 
L 251.371614 -96.719544 
L 251.364121 -97.271066 
L 251.364531 -97.822588 
L 251.372812 -98.37411 
L 251.388895 -98.925632 
L 251.41267 -99.477154 
L 251.443981 -100.028677 
L 251.482629 -100.580199 
L 251.528373 -101.131721 
L 251.580932 -101.683243 
L 251.639992 -102.234765 
L 251.70521 -102.786287 
L 251.776224 -103.337809 
L 251.852662 -103.889331 
L 251.934144 -104.440853 
L 252.020291 -104.992375 
L 252.110733 -105.543897 
L 252.205104 -106.095419 
L 252.303046 -106.646941 
L 252.404207 -107.198463 
L 252.508231 -107.749985 
L 252.614752 -108.301507 
L 252.72338 -108.853029 
L 252.833689 -109.404552 
L 252.9452 -109.956074 
L 253.057366 -110.507596 
L 253.169554 -111.059118 
L 253.281033 -111.61064 
L 253.390959 -112.162162 
L 253.498363 -112.713684 
L 253.60215 -113.265206 
L 253.701095 -113.816728 
L 253.793849 -114.36825 
L 253.878948 -114.919772 
L 253.954832 -115.471294 
L 254.019868 -116.022816 
L 254.072381 -116.574338 
L 254.110689 -117.12586 
L 254.133149 -117.677382 
L 254.138197 -118.228904 
L 254.124404 -118.780426 
L 254.090526 -119.331949 
L 254.035554 -119.883471 
L 253.958774 -120.434993 
L 253.85981 -120.986515 
L 253.738671 -121.538037 
L 253.595793 -122.089559 
L 253.432065 -122.641081 
L 253.248857 -123.192603 
L 253.048023 -123.744125 
L 252.831908 -124.295647 
L 252.603322 -124.847169 
L 252.365521 -125.398691 
L 252.122156 -125.950213 
L 251.877221 -126.501735 
L 251.63498 -127.053257 
L 251.399889 -127.604779 
L 251.1765 -128.156301 
L 250.969368 -128.707824 
L 250.782946 -129.259346 
L 250.621478 -129.810868 
L 250.488903 -130.36239 
L 250.38875 -130.913912 
L 250.324053 -131.465434 
L 250.297273 -132.016956 
L 250.310232 -132.568478 
L 250.364069 -133.12 
L 268.965542 -133.12 
L 268.965542 -133.12 
L 269.019378 -132.568478 
L 269.032338 -132.016956 
L 269.005558 -131.465434 
L 268.940861 -130.913912 
L 268.840708 -130.36239 
L 268.708132 -129.810868 
L 268.546665 -129.259346 
L 268.360242 -128.707824 
L 268.15311 -128.156301 
L 267.929722 -127.604779 
L 267.69463 -127.053257 
L 267.45239 -126.501735 
L 267.207455 -125.950213 
L 266.96409 -125.398691 
L 266.726289 -124.847169 
L 266.497703 -124.295647 
L 266.281587 -123.744125 
L 266.080754 -123.192603 
L 265.897545 -122.641081 
L 265.733818 -122.089559 
L 265.590939 -121.538037 
L 265.469801 -120.986515 
L 265.370836 -120.434993 
L 265.294056 -119.883471 
L 265.239085 -119.331949 
L 265.205206 -118.780426 
L 265.191413 -118.228904 
L 265.196461 -117.677382 
L 265.218921 -117.12586 
L 265.25723 -116.574338 
L 265.309743 -116.022816 
L 265.374778 -115.471294 
L 265.450662 -114.919772 
L 265.535761 -114.36825 
L 265.628515 -113.816728 
L 265.72746 -113.265206 
L 265.831248 -112.713684 
L 265.938652 -112.162162 
L 266.048577 -111.61064 
L 266.160056 -111.059118 
L 266.272245 -110.507596 
L 266.384411 -109.956074 
L 266.495922 -109.404552 
L 266.606231 -108.853029 
L 266.714859 -108.301507 
L 266.82138 -107.749985 
L 266.925404 -107.198463 
L 267.026565 -106.646941 
L 267.124507 -106.095419 
L 267.218877 -105.543897 
L 267.309319 -104.992375 
L 267.395467 -104.440853 
L 267.476948 -103.889331 
L 267.553386 -103.337809 
L 267.624401 -102.786287 
L 267.689619 -102.234765 
L 267.748678 -101.683243 
L 267.801237 -101.131721 
L 267.846981 -100.580199 
L 267.88563 -100.028677 
L 267.916941 -99.477154 
L 267.940715 -98.925632 
L 267.956798 -98.37411 
L 267.96508 -97.822588 
L 267.96549 -97.271066 
L 267.957996 -96.719544 
L 267.942597 -96.168022 
L 267.919314 -95.6165 
L 267.888183 -95.064978 
L 267.849247 -94.513456 
L 267.802546 -93.961934 
L 267.748108 -93.410412 
L 267.685949 -92.85889 
L 267.616058 -92.307368 
L 267.538404 -91.755846 
L 267.452928 -91.204324 
L 267.359551 -90.652802 
L 267.258171 -90.101279 
L 267.148676 -89.549757 
L 267.030951 -88.998235 
L 266.904884 -88.446713 
L 266.770383 -87.895191 
L 266.627385 -87.343669 
L 266.475872 -86.792147 
L 266.315877 -86.240625 
L 266.147505 -85.689103 
L 265.970934 -85.137581 
L 265.786431 -84.586059 
L 265.594354 -84.034537 
L 265.395158 -83.483015 
L 265.189394 -82.931493 
L 264.977713 -82.379971 
L 264.760854 -81.828449 
L 264.539645 -81.276927 
L 264.314988 -80.725405 
L 264.087848 -80.173882 
L 263.859242 -79.62236 
L 263.630222 -79.070838 
L 263.401858 -78.519316 
z
" style="stroke: #808080; stroke-opacity: 0.8"/>
    </defs>
    <g clip-path="url(#p26bf1c789a)">
     <use xlink:href="#mb2d2d908a0" x="0" y="144" style="fill: #1f77b4; fill-opacity: 0.8; stroke: #808080; stroke-opacity: 0.8"/>
    </g>
   </g>
   <g id="PolyCollection_2">
    <defs>
     <path id="m955f456417" d="M 297.915262 -80.549922 
L 296.354608 -80.549922 
L 296.35939 -81.080933 
L 296.373583 -81.611944 
L 296.396666 -82.142955 
L 296.427803 -82.673966 
L 296.465899 -83.204976 
L 296.509653 -83.735987 
L 296.557638 -84.266998 
L 296.608372 -84.798009 
L 296.660386 -85.32902 
L 296.712295 -85.860031 
L 296.762848 -86.391042 
L 296.810968 -86.922053 
L 296.855779 -87.453064 
L 296.89661 -87.984074 
L 296.933002 -88.515085 
L 296.964684 -89.046096 
L 296.991561 -89.577107 
L 297.013677 -90.108118 
L 297.031196 -90.639129 
L 297.044371 -91.17014 
L 297.053515 -91.701151 
L 297.058989 -92.232162 
L 297.061176 -92.763172 
L 297.060479 -93.294183 
L 297.057306 -93.825194 
L 297.052069 -94.356205 
L 297.045181 -94.887216 
L 297.037049 -95.418227 
L 297.028079 -95.949238 
L 297.018663 -96.480249 
L 297.009176 -97.01126 
L 296.999966 -97.54227 
L 296.991346 -98.073281 
L 296.983579 -98.604292 
L 296.976872 -99.135303 
L 296.971358 -99.666314 
L 296.9671 -100.197325 
L 296.964076 -100.728336 
L 296.962189 -101.259347 
L 296.961262 -101.790358 
L 296.961054 -102.321368 
L 296.96127 -102.852379 
L 296.961569 -103.38339 
L 296.961585 -103.914401 
L 296.960935 -104.445412 
L 296.959225 -104.976423 
L 296.956057 -105.507434 
L 296.95102 -106.038445 
L 296.943676 -106.569456 
L 296.933538 -107.100466 
L 296.920037 -107.631477 
L 296.902483 -108.162488 
L 296.880016 -108.693499 
L 296.851566 -109.22451 
L 296.815802 -109.755521 
L 296.771102 -110.286532 
L 296.715528 -110.817543 
L 296.646828 -111.348554 
L 296.562462 -111.879564 
L 296.459661 -112.410575 
L 296.335525 -112.941586 
L 296.187156 -113.472597 
L 296.011827 -114.003608 
L 295.807183 -114.534619 
L 295.571459 -115.06563 
L 295.303708 -115.596641 
L 295.00401 -116.127652 
L 294.673648 -116.658662 
L 294.315232 -117.189673 
L 293.932737 -117.720684 
L 293.531451 -118.251695 
L 293.117809 -118.782706 
L 292.699127 -119.313717 
L 292.283226 -119.844728 
L 291.877979 -120.375739 
L 291.490806 -120.90675 
L 291.128166 -121.43776 
L 290.795078 -121.968771 
L 290.494732 -122.499782 
L 290.228239 -123.030793 
L 289.994543 -123.561804 
L 289.790521 -124.092815 
L 289.611294 -124.623826 
L 289.450707 -125.154837 
L 289.301961 -125.685848 
L 289.158346 -126.216858 
L 289.013998 -126.747869 
L 288.864612 -127.27888 
L 288.708045 -127.809891 
L 288.54474 -128.340902 
L 288.377916 -128.871913 
L 288.213508 -129.402924 
L 288.059851 -129.933935 
L 287.927119 -130.464946 
L 287.826583 -130.995956 
L 287.76974 -131.526967 
L 287.767403 -132.057978 
L 287.828812 -132.588989 
L 287.960879 -133.12 
L 306.308991 -133.12 
L 306.308991 -133.12 
L 306.441058 -132.588989 
L 306.502468 -132.057978 
L 306.50013 -131.526967 
L 306.443288 -130.995956 
L 306.342751 -130.464946 
L 306.210019 -129.933935 
L 306.056362 -129.402924 
L 305.891955 -128.871913 
L 305.72513 -128.340902 
L 305.561825 -127.809891 
L 305.405259 -127.27888 
L 305.255872 -126.747869 
L 305.111524 -126.216858 
L 304.967909 -125.685848 
L 304.819164 -125.154837 
L 304.658576 -124.623826 
L 304.479349 -124.092815 
L 304.275327 -123.561804 
L 304.041631 -123.030793 
L 303.775138 -122.499782 
L 303.474793 -121.968771 
L 303.141704 -121.43776 
L 302.779064 -120.90675 
L 302.391891 -120.375739 
L 301.986644 -119.844728 
L 301.570743 -119.313717 
L 301.152061 -118.782706 
L 300.738419 -118.251695 
L 300.337133 -117.720684 
L 299.954638 -117.189673 
L 299.596222 -116.658662 
L 299.26586 -116.127652 
L 298.966162 -115.596641 
L 298.698411 -115.06563 
L 298.462687 -114.534619 
L 298.258043 -114.003608 
L 298.082714 -113.472597 
L 297.934345 -112.941586 
L 297.810209 -112.410575 
L 297.707409 -111.879564 
L 297.623042 -111.348554 
L 297.554342 -110.817543 
L 297.498768 -110.286532 
L 297.454068 -109.755521 
L 297.418304 -109.22451 
L 297.389854 -108.693499 
L 297.367388 -108.162488 
L 297.349833 -107.631477 
L 297.336332 -107.100466 
L 297.326195 -106.569456 
L 297.318851 -106.038445 
L 297.313813 -105.507434 
L 297.310645 -104.976423 
L 297.308936 -104.445412 
L 297.308285 -103.914401 
L 297.308301 -103.38339 
L 297.3086 -102.852379 
L 297.308816 -102.321368 
L 297.308608 -101.790358 
L 297.307682 -101.259347 
L 297.305794 -100.728336 
L 297.30277 -100.197325 
L 297.298512 -99.666314 
L 297.292999 -99.135303 
L 297.286291 -98.604292 
L 297.278524 -98.073281 
L 297.269904 -97.54227 
L 297.260695 -97.01126 
L 297.251207 -96.480249 
L 297.241791 -95.949238 
L 297.232821 -95.418227 
L 297.224689 -94.887216 
L 297.217801 -94.356205 
L 297.212564 -93.825194 
L 297.209391 -93.294183 
L 297.208694 -92.763172 
L 297.210881 -92.232162 
L 297.216355 -91.701151 
L 297.225499 -91.17014 
L 297.238674 -90.639129 
L 297.256193 -90.108118 
L 297.27831 -89.577107 
L 297.305186 -89.046096 
L 297.336868 -88.515085 
L 297.37326 -87.984074 
L 297.414092 -87.453064 
L 297.458902 -86.922053 
L 297.507022 -86.391042 
L 297.557575 -85.860031 
L 297.609485 -85.32902 
L 297.661499 -84.798009 
L 297.712232 -84.266998 
L 297.760217 -83.735987 
L 297.803972 -83.204976 
L 297.842067 -82.673966 
L 297.873205 -82.142955 
L 297.896287 -81.611944 
L 297.910481 -81.080933 
L 297.915262 -80.549922 
z
" style="stroke: #808080; stroke-opacity: 0.8"/>
    </defs>
    <g clip-path="url(#p26bf1c789a)">
     <use xlink:href="#m955f456417" x="0" y="144" style="fill: #ff7f0e; fill-opacity: 0.8; stroke: #808080; stroke-opacity: 0.8"/>
    </g>
   </g>
   <g id="PolyCollection_3">
    <defs>
     <path id="m9ba0c5af0b" d="M 334.733915 -93.511107 
L 334.476215 -93.511107 
L 334.475689 -93.911197 
L 334.476907 -94.311287 
L 334.479548 -94.711377 
L 334.483182 -95.111466 
L 334.487306 -95.511556 
L 334.491389 -95.911646 
L 334.494928 -96.311736 
L 334.497491 -96.711826 
L 334.49876 -97.111916 
L 334.498563 -97.512005 
L 334.496882 -97.912095 
L 334.493857 -98.312185 
L 334.48976 -98.712275 
L 334.484964 -99.112365 
L 334.479897 -99.512455 
L 334.474989 -99.912544 
L 334.470621 -100.312634 
L 334.467078 -100.712724 
L 334.464514 -101.112814 
L 334.462934 -101.512904 
L 334.462186 -101.912993 
L 334.461981 -102.313083 
L 334.461919 -102.713173 
L 334.461533 -103.113263 
L 334.460335 -103.513353 
L 334.457866 -103.913443 
L 334.453738 -104.313532 
L 334.44767 -104.713622 
L 334.439511 -105.113712 
L 334.429249 -105.513802 
L 334.417012 -105.913892 
L 334.403057 -106.313982 
L 334.387751 -106.714071 
L 334.371554 -107.114161 
L 334.354992 -107.514251 
L 334.338635 -107.914341 
L 334.323066 -108.314431 
L 334.308858 -108.714521 
L 334.296538 -109.11461 
L 334.286556 -109.5147 
L 334.279242 -109.91479 
L 334.274777 -110.31488 
L 334.273162 -110.71497 
L 334.274196 -111.11506 
L 334.277477 -111.515149 
L 334.282415 -111.915239 
L 334.288263 -112.315329 
L 334.294165 -112.715419 
L 334.29921 -113.115509 
L 334.302487 -113.515598 
L 334.303122 -113.915688 
L 334.3003 -114.315778 
L 334.293255 -114.715868 
L 334.281234 -115.115958 
L 334.263437 -115.516048 
L 334.238942 -115.916137 
L 334.206644 -116.316227 
L 334.16521 -116.716317 
L 334.1131 -117.116407 
L 334.048633 -117.516497 
L 333.970151 -117.916587 
L 333.876237 -118.316676 
L 333.766003 -118.716766 
L 333.639394 -119.116856 
L 333.497482 -119.516946 
L 333.342689 -119.917036 
L 333.1789 -120.317126 
L 333.011411 -120.717215 
L 332.846706 -121.117305 
L 332.692044 -121.517395 
L 332.55489 -121.917485 
L 332.442223 -122.317575 
L 332.359809 -122.717664 
L 332.311484 -123.117754 
L 332.298555 -123.517844 
L 332.319353 -123.917934 
L 332.369007 -124.318024 
L 332.439448 -124.718114 
L 332.519652 -125.118203 
L 332.596094 -125.518293 
L 332.653402 -125.918383 
L 332.675162 -126.318473 
L 332.644852 -126.718563 
L 332.546885 -127.118653 
L 332.367715 -127.518742 
L 332.096994 -127.918832 
L 331.728707 -128.318922 
L 331.262218 -128.719012 
L 330.703125 -129.119102 
L 330.063796 -129.519192 
L 329.363463 -129.919281 
L 328.627756 -130.319371 
L 327.88762 -130.719461 
L 327.177605 -131.119551 
L 326.533629 -131.519641 
L 325.990369 -131.919731 
L 325.578545 -132.31982 
L 325.32238 -132.71991 
L 325.237532 -133.12 
L 343.972597 -133.12 
L 343.972597 -133.12 
L 343.88775 -132.71991 
L 343.631585 -132.31982 
L 343.219761 -131.919731 
L 342.676501 -131.519641 
L 342.032525 -131.119551 
L 341.32251 -130.719461 
L 340.582374 -130.319371 
L 339.846667 -129.919281 
L 339.146334 -129.519192 
L 338.507005 -129.119102 
L 337.947912 -128.719012 
L 337.481423 -128.318922 
L 337.113136 -127.918832 
L 336.842415 -127.518742 
L 336.663245 -127.118653 
L 336.565278 -126.718563 
L 336.534968 -126.318473 
L 336.556728 -125.918383 
L 336.614036 -125.518293 
L 336.690478 -125.118203 
L 336.770682 -124.718114 
L 336.841123 -124.318024 
L 336.890777 -123.917934 
L 336.911575 -123.517844 
L 336.898646 -123.117754 
L 336.850321 -122.717664 
L 336.767906 -122.317575 
L 336.65524 -121.917485 
L 336.518085 -121.517395 
L 336.363424 -121.117305 
L 336.198719 -120.717215 
L 336.03123 -120.317126 
L 335.867441 -119.917036 
L 335.712648 -119.516946 
L 335.570736 -119.116856 
L 335.444127 -118.716766 
L 335.333893 -118.316676 
L 335.239979 -117.916587 
L 335.161497 -117.516497 
L 335.09703 -117.116407 
L 335.044919 -116.716317 
L 335.003486 -116.316227 
L 334.971187 -115.916137 
L 334.946693 -115.516048 
L 334.928896 -115.115958 
L 334.916875 -114.715868 
L 334.90983 -114.315778 
L 334.907008 -113.915688 
L 334.907642 -113.515598 
L 334.910919 -113.115509 
L 334.915965 -112.715419 
L 334.921867 -112.315329 
L 334.927715 -111.915239 
L 334.932653 -111.515149 
L 334.935934 -111.11506 
L 334.936968 -110.71497 
L 334.935353 -110.31488 
L 334.930888 -109.91479 
L 334.923574 -109.5147 
L 334.913592 -109.11461 
L 334.901272 -108.714521 
L 334.887064 -108.314431 
L 334.871495 -107.914341 
L 334.855137 -107.514251 
L 334.838576 -107.114161 
L 334.822379 -106.714071 
L 334.807073 -106.313982 
L 334.793118 -105.913892 
L 334.780881 -105.513802 
L 334.770619 -105.113712 
L 334.76246 -104.713622 
L 334.756392 -104.313532 
L 334.752264 -103.913443 
L 334.749795 -103.513353 
L 334.748597 -103.113263 
L 334.748211 -102.713173 
L 334.748149 -102.313083 
L 334.747944 -101.912993 
L 334.747196 -101.512904 
L 334.745615 -101.112814 
L 334.743052 -100.712724 
L 334.739509 -100.312634 
L 334.735141 -99.912544 
L 334.730232 -99.512455 
L 334.725165 -99.112365 
L 334.72037 -98.712275 
L 334.716273 -98.312185 
L 334.713247 -97.912095 
L 334.711567 -97.512005 
L 334.71137 -97.111916 
L 334.712639 -96.711826 
L 334.715202 -96.311736 
L 334.718741 -95.911646 
L 334.722824 -95.511556 
L 334.726948 -95.111466 
L 334.730582 -94.711377 
L 334.733223 -94.311287 
L 334.734441 -93.911197 
L 334.733915 -93.511107 
z
" style="stroke: #808080; stroke-opacity: 0.8"/>
    </defs>
    <g clip-path="url(#p26bf1c789a)">
     <use xlink:href="#m9ba0c5af0b" x="0" y="144" style="fill: #2ca02c; fill-opacity: 0.8; stroke: #808080; stroke-opacity: 0.8"/>
    </g>
   </g>
   <g id="PolyCollection_4">
    <defs>
     <path id="meb736b8a97" d="M 372.592497 -80.549922 
L 371.557892 -80.549922 
L 371.561301 -81.080933 
L 371.571393 -81.611944 
L 371.587773 -82.142955 
L 371.609816 -82.673966 
L 371.636697 -83.204976 
L 371.667453 -83.735987 
L 371.701032 -84.266998 
L 371.736355 -84.798009 
L 371.772374 -85.32902 
L 371.808118 -85.860031 
L 371.842738 -86.391042 
L 371.875527 -86.922053 
L 371.905944 -87.453064 
L 371.933612 -87.984074 
L 371.958312 -88.515085 
L 371.979971 -89.046096 
L 371.998635 -89.577107 
L 372.01445 -90.108118 
L 372.02763 -90.639129 
L 372.03844 -91.17014 
L 372.047167 -91.701151 
L 372.054102 -92.232162 
L 372.059529 -92.763172 
L 372.063713 -93.294183 
L 372.06689 -93.825194 
L 372.069267 -94.356205 
L 372.071019 -94.887216 
L 372.072292 -95.418227 
L 372.073203 -95.949238 
L 372.073847 -96.480249 
L 372.074294 -97.01126 
L 372.074601 -97.54227 
L 372.074808 -98.073281 
L 372.074946 -98.604292 
L 372.075037 -99.135303 
L 372.075095 -99.666314 
L 372.075132 -100.197325 
L 372.075155 -100.728336 
L 372.075167 -101.259347 
L 372.075172 -101.790358 
L 372.075171 -102.321368 
L 372.075164 -102.852379 
L 372.075149 -103.38339 
L 372.075122 -103.914401 
L 372.075079 -104.445412 
L 372.075011 -104.976423 
L 372.074906 -105.507434 
L 372.074748 -106.038445 
L 372.074511 -106.569456 
L 372.074162 -107.100466 
L 372.073656 -107.631477 
L 372.07293 -108.162488 
L 372.071907 -108.693499 
L 372.070483 -109.22451 
L 372.06853 -109.755521 
L 372.065888 -110.286532 
L 372.062367 -110.817543 
L 372.057739 -111.348554 
L 372.051743 -111.879564 
L 372.044083 -112.410575 
L 372.034432 -112.941586 
L 372.022439 -113.472597 
L 372.007733 -114.003608 
L 371.989933 -114.534619 
L 371.968651 -115.06563 
L 371.943493 -115.596641 
L 371.914058 -116.127652 
L 371.879922 -116.658662 
L 371.840614 -117.189673 
L 371.795572 -117.720684 
L 371.744089 -118.251695 
L 371.685241 -118.782706 
L 371.617802 -119.313717 
L 371.540157 -119.844728 
L 371.450211 -120.375739 
L 371.345319 -120.90675 
L 371.222244 -121.43776 
L 371.077166 -121.968771 
L 370.905742 -122.499782 
L 370.703258 -123.030793 
L 370.464855 -123.561804 
L 370.18585 -124.092815 
L 369.862129 -124.623826 
L 369.490613 -125.154837 
L 369.069753 -125.685848 
L 368.600014 -126.216858 
L 368.084321 -126.747869 
L 367.528388 -127.27888 
L 366.940907 -127.809891 
L 366.333532 -128.340902 
L 365.720651 -128.871913 
L 365.118916 -129.402924 
L 364.546556 -129.933935 
L 364.022489 -130.464946 
L 363.565319 -130.995956 
L 363.192252 -131.526967 
L 362.918053 -132.057978 
L 362.754103 -132.588989 
L 362.707662 -133.12 
L 381.442727 -133.12 
L 381.442727 -133.12 
L 381.396287 -132.588989 
L 381.232337 -132.057978 
L 380.958137 -131.526967 
L 380.58507 -130.995956 
L 380.1279 -130.464946 
L 379.603834 -129.933935 
L 379.031473 -129.402924 
L 378.429739 -128.871913 
L 377.816858 -128.340902 
L 377.209483 -127.809891 
L 376.622001 -127.27888 
L 376.066069 -126.747869 
L 375.550376 -126.216858 
L 375.080637 -125.685848 
L 374.659776 -125.154837 
L 374.288261 -124.623826 
L 373.96454 -124.092815 
L 373.685534 -123.561804 
L 373.447132 -123.030793 
L 373.244648 -122.499782 
L 373.073224 -121.968771 
L 372.928145 -121.43776 
L 372.805071 -120.90675 
L 372.700179 -120.375739 
L 372.610232 -119.844728 
L 372.532587 -119.313717 
L 372.465149 -118.782706 
L 372.406301 -118.251695 
L 372.354818 -117.720684 
L 372.309775 -117.189673 
L 372.270467 -116.658662 
L 372.236332 -116.127652 
L 372.206897 -115.596641 
L 372.181739 -115.06563 
L 372.160456 -114.534619 
L 372.142656 -114.003608 
L 372.127951 -113.472597 
L 372.115958 -112.941586 
L 372.106307 -112.410575 
L 372.098646 -111.879564 
L 372.09265 -111.348554 
L 372.088023 -110.817543 
L 372.084501 -110.286532 
L 372.08186 -109.755521 
L 372.079907 -109.22451 
L 372.078483 -108.693499 
L 372.077459 -108.162488 
L 372.076734 -107.631477 
L 372.076227 -107.100466 
L 372.075879 -106.569456 
L 372.075642 -106.038445 
L 372.075483 -105.507434 
L 372.075379 -104.976423 
L 372.075311 -104.445412 
L 372.075268 -103.914401 
L 372.075241 -103.38339 
L 372.075226 -102.852379 
L 372.075218 -102.321368 
L 372.075217 -101.790358 
L 372.075222 -101.259347 
L 372.075235 -100.728336 
L 372.075257 -100.197325 
L 372.075294 -99.666314 
L 372.075353 -99.135303 
L 372.075443 -98.604292 
L 372.075581 -98.073281 
L 372.075789 -97.54227 
L 372.076096 -97.01126 
L 372.076543 -96.480249 
L 372.077186 -95.949238 
L 372.078098 -95.418227 
L 372.07937 -94.887216 
L 372.081123 -94.356205 
L 372.083499 -93.825194 
L 372.086676 -93.294183 
L 372.09086 -92.763172 
L 372.096288 -92.232162 
L 372.103223 -91.701151 
L 372.111949 -91.17014 
L 372.122759 -90.639129 
L 372.13594 -90.108118 
L 372.151754 -89.577107 
L 372.170419 -89.046096 
L 372.192077 -88.515085 
L 372.216778 -87.984074 
L 372.244446 -87.453064 
L 372.274863 -86.922053 
L 372.307652 -86.391042 
L 372.342271 -85.860031 
L 372.378016 -85.32902 
L 372.414035 -84.798009 
L 372.449358 -84.266998 
L 372.482937 -83.735987 
L 372.513692 -83.204976 
L 372.540574 -82.673966 
L 372.562616 -82.142955 
L 372.578997 -81.611944 
L 372.589089 -81.080933 
L 372.592497 -80.549922 
z
" style="stroke: #808080; stroke-opacity: 0.8"/>
    </defs>
    <g clip-path="url(#p26bf1c789a)">
     <use xlink:href="#meb736b8a97" x="0" y="144" style="fill: #d62728; fill-opacity: 0.8; stroke: #808080; stroke-opacity: 0.8"/>
    </g>
   </g>
   <g id="PolyCollection_5">
    <defs>
     <path id="m7b0b31f1c2" d="M 260.862724 -49.627866 
L 258.466887 -49.627866 
L 258.455113 -49.648819 
L 258.457544 -49.669772 
L 258.473849 -49.690725 
L 258.503124 -49.711678 
L 258.543925 -49.732631 
L 258.59433 -49.753585 
L 258.652029 -49.774538 
L 258.714417 -49.795491 
L 258.778708 -49.816444 
L 258.842044 -49.837397 
L 258.901591 -49.85835 
L 258.954633 -49.879304 
L 258.998636 -49.900257 
L 259.031303 -49.92121 
L 259.050604 -49.942163 
L 259.054784 -49.963116 
L 259.04237 -49.984069 
L 259.012152 -50.005023 
L 258.963165 -50.025976 
L 258.894678 -50.046929 
L 258.806166 -50.067882 
L 258.697315 -50.088835 
L 258.568009 -50.109788 
L 258.418351 -50.130742 
L 258.248673 -50.151695 
L 258.059568 -50.172648 
L 257.851916 -50.193601 
L 257.626913 -50.214554 
L 257.386094 -50.235507 
L 257.131339 -50.256461 
L 256.864871 -50.277414 
L 256.58922 -50.298367 
L 256.307167 -50.31932 
L 256.021668 -50.340273 
L 255.73574 -50.361226 
L 255.452341 -50.38218 
L 255.174223 -50.403133 
L 254.903798 -50.424086 
L 254.642999 -50.445039 
L 254.393168 -50.465992 
L 254.154976 -50.486945 
L 253.928389 -50.507899 
L 253.712675 -50.528852 
L 253.506478 -50.549805 
L 253.307934 -50.570758 
L 253.114843 -50.591711 
L 252.924864 -50.612664 
L 252.735749 -50.633618 
L 252.545563 -50.654571 
L 252.352903 -50.675524 
L 252.15707 -50.696477 
L 251.958206 -50.71743 
L 251.757351 -50.738383 
L 251.556442 -50.759337 
L 251.358234 -50.78029 
L 251.166156 -50.801243 
L 250.9841 -50.822196 
L 250.816182 -50.843149 
L 250.666466 -50.864102 
L 250.538689 -50.885056 
L 250.436011 -50.906009 
L 250.360793 -50.926962 
L 250.314433 -50.947915 
L 250.297273 -50.968868 
L 250.30857 -50.989821 
L 250.346548 -51.010775 
L 250.408513 -51.031728 
L 250.491028 -51.052681 
L 250.590134 -51.073634 
L 250.701598 -51.094587 
L 250.821175 -51.11554 
L 250.944857 -51.136494 
L 251.069105 -51.157447 
L 251.191046 -51.1784 
L 251.308615 -51.199353 
L 251.420652 -51.220306 
L 251.526937 -51.241259 
L 251.628175 -51.262213 
L 251.725915 -51.283166 
L 251.822443 -51.304119 
L 251.920617 -51.325072 
L 252.023692 -51.346025 
L 252.135118 -51.366978 
L 252.25834 -51.387932 
L 252.396598 -51.408885 
L 252.55275 -51.429838 
L 252.729113 -51.450791 
L 252.927339 -51.471744 
L 253.148326 -51.492697 
L 253.392168 -51.513651 
L 253.65814 -51.534604 
L 253.94473 -51.555557 
L 254.249697 -51.57651 
L 254.570164 -51.597463 
L 254.902736 -51.618416 
L 255.243632 -51.63937 
L 255.588831 -51.660323 
L 255.934224 -51.681276 
L 256.275754 -51.702229 
L 263.053857 -51.702229 
L 263.053857 -51.702229 
L 263.395387 -51.681276 
L 263.740779 -51.660323 
L 264.085979 -51.63937 
L 264.426874 -51.618416 
L 264.759446 -51.597463 
L 265.079914 -51.57651 
L 265.384881 -51.555557 
L 265.671471 -51.534604 
L 265.937443 -51.513651 
L 266.181284 -51.492697 
L 266.402271 -51.471744 
L 266.600497 -51.450791 
L 266.77686 -51.429838 
L 266.933012 -51.408885 
L 267.07127 -51.387932 
L 267.194492 -51.366978 
L 267.305919 -51.346025 
L 267.408994 -51.325072 
L 267.507168 -51.304119 
L 267.603695 -51.283166 
L 267.701436 -51.262213 
L 267.802673 -51.241259 
L 267.908959 -51.220306 
L 268.020995 -51.199353 
L 268.138564 -51.1784 
L 268.260505 -51.157447 
L 268.384754 -51.136494 
L 268.508435 -51.11554 
L 268.628012 -51.094587 
L 268.739477 -51.073634 
L 268.838582 -51.052681 
L 268.921097 -51.031728 
L 268.983062 -51.010775 
L 269.02104 -50.989821 
L 269.032338 -50.968868 
L 269.015177 -50.947915 
L 268.968818 -50.926962 
L 268.893599 -50.906009 
L 268.790921 -50.885056 
L 268.663145 -50.864102 
L 268.513428 -50.843149 
L 268.34551 -50.822196 
L 268.163455 -50.801243 
L 267.971376 -50.78029 
L 267.773169 -50.759337 
L 267.57226 -50.738383 
L 267.371404 -50.71743 
L 267.17254 -50.696477 
L 266.976708 -50.675524 
L 266.784047 -50.654571 
L 266.593861 -50.633618 
L 266.404746 -50.612664 
L 266.214768 -50.591711 
L 266.021676 -50.570758 
L 265.823133 -50.549805 
L 265.616936 -50.528852 
L 265.401222 -50.507899 
L 265.174634 -50.486945 
L 264.936443 -50.465992 
L 264.686611 -50.445039 
L 264.425812 -50.424086 
L 264.155387 -50.403133 
L 263.87727 -50.38218 
L 263.59387 -50.361226 
L 263.307942 -50.340273 
L 263.022443 -50.31932 
L 262.740391 -50.298367 
L 262.464739 -50.277414 
L 262.198271 -50.256461 
L 261.943517 -50.235507 
L 261.702697 -50.214554 
L 261.477694 -50.193601 
L 261.270042 -50.172648 
L 261.080937 -50.151695 
L 260.911259 -50.130742 
L 260.761601 -50.109788 
L 260.632296 -50.088835 
L 260.523444 -50.067882 
L 260.434933 -50.046929 
L 260.366445 -50.025976 
L 260.317459 -50.005023 
L 260.28724 -49.984069 
L 260.274826 -49.963116 
L 260.279007 -49.942163 
L 260.298307 -49.92121 
L 260.330974 -49.900257 
L 260.374977 -49.879304 
L 260.428019 -49.85835 
L 260.487566 -49.837397 
L 260.550902 -49.816444 
L 260.615194 -49.795491 
L 260.677581 -49.774538 
L 260.73528 -49.753585 
L 260.785686 -49.732631 
L 260.826486 -49.711678 
L 260.855761 -49.690725 
L 260.872067 -49.669772 
L 260.874498 -49.648819 
L 260.862724 -49.627866 
z
" style="stroke: #808080; stroke-opacity: 0.8"/>
    </defs>
    <g clip-path="url(#p26bf1c789a)">
     <use xlink:href="#m7b0b31f1c2" x="0" y="144" style="fill: #1f77b4; fill-opacity: 0.8; stroke: #808080; stroke-opacity: 0.8"/>
    </g>
   </g>
   <g id="PolyCollection_6">
    <defs>
     <path id="m29db5868aa" d="M 297.950031 -50.399461 
L 296.319839 -50.399461 
L 296.323563 -50.519436 
L 296.341753 -50.639412 
L 296.373437 -50.759388 
L 296.416965 -50.879363 
L 296.470142 -50.999339 
L 296.530418 -51.119315 
L 296.595085 -51.23929 
L 296.661479 -51.359266 
L 296.727152 -51.479242 
L 296.790014 -51.599218 
L 296.848415 -51.719193 
L 296.901196 -51.839169 
L 296.947671 -51.959145 
L 296.987594 -52.07912 
L 297.02108 -52.199096 
L 297.048525 -52.319072 
L 297.070515 -52.439048 
L 297.08774 -52.559023 
L 297.100925 -52.678999 
L 297.110766 -52.798975 
L 297.117889 -52.91895 
L 297.122816 -53.038926 
L 297.125941 -53.158902 
L 297.127512 -53.278877 
L 297.127608 -53.398853 
L 297.126116 -53.518829 
L 297.122694 -53.638805 
L 297.116721 -53.75878 
L 297.107237 -53.878756 
L 297.092864 -53.998732 
L 297.071721 -54.118707 
L 297.041333 -54.238683 
L 296.998553 -54.358659 
L 296.939501 -54.478635 
L 296.859548 -54.59861 
L 296.753366 -54.718586 
L 296.615051 -54.838562 
L 296.438355 -54.958537 
L 296.217024 -55.078513 
L 295.945239 -55.198489 
L 295.618151 -55.318465 
L 295.232474 -55.43844 
L 294.787079 -55.558416 
L 294.283538 -55.678392 
L 293.726538 -55.798367 
L 293.1241 -55.918343 
L 292.487547 -56.038319 
L 291.831193 -56.158294 
L 291.171729 -56.27827 
L 290.527369 -56.398246 
L 289.916794 -56.518222 
L 289.358 -56.638197 
L 288.867173 -56.758173 
L 288.45768 -56.878149 
L 288.139301 -56.998124 
L 287.91776 -57.1181 
L 287.794603 -57.238076 
L 287.767403 -57.358052 
L 287.830257 -57.478027 
L 287.974498 -57.598003 
L 288.18952 -57.717979 
L 288.463626 -57.837954 
L 288.784807 -57.95793 
L 289.141388 -58.077906 
L 289.522506 -58.197881 
L 289.9184 -58.317857 
L 290.320546 -58.437833 
L 290.721654 -58.557809 
L 291.115588 -58.677784 
L 291.497233 -58.79776 
L 291.862369 -58.917736 
L 292.207562 -59.037711 
L 292.530098 -59.157687 
L 292.82795 -59.277663 
L 293.099788 -59.397639 
L 293.344993 -59.517614 
L 293.563683 -59.63759 
L 293.756716 -59.757566 
L 293.925666 -59.877541 
L 294.072765 -59.997517 
L 294.200801 -60.117493 
L 294.312985 -60.237469 
L 294.412788 -60.357444 
L 294.503762 -60.47742 
L 294.589359 -60.597396 
L 294.67277 -60.717371 
L 294.756774 -60.837347 
L 294.843634 -60.957323 
L 294.935033 -61.077298 
L 295.032044 -61.197274 
L 295.135151 -61.31725 
L 295.244295 -61.437226 
L 295.358949 -61.557201 
L 295.478206 -61.677177 
L 295.600875 -61.797153 
L 295.72557 -61.917128 
L 295.850796 -62.037104 
L 295.975023 -62.15708 
L 296.096746 -62.277056 
L 298.173124 -62.277056 
L 298.173124 -62.277056 
L 298.294847 -62.15708 
L 298.419074 -62.037104 
L 298.5443 -61.917128 
L 298.668995 -61.797153 
L 298.791664 -61.677177 
L 298.910921 -61.557201 
L 299.025575 -61.437226 
L 299.134719 -61.31725 
L 299.237826 -61.197274 
L 299.334837 -61.077298 
L 299.426236 -60.957323 
L 299.513096 -60.837347 
L 299.5971 -60.717371 
L 299.680511 -60.597396 
L 299.766109 -60.47742 
L 299.857082 -60.357444 
L 299.956885 -60.237469 
L 300.069069 -60.117493 
L 300.197105 -59.997517 
L 300.344204 -59.877541 
L 300.513154 -59.757566 
L 300.706187 -59.63759 
L 300.924877 -59.517614 
L 301.170082 -59.397639 
L 301.44192 -59.277663 
L 301.739772 -59.157687 
L 302.062308 -59.037711 
L 302.407501 -58.917736 
L 302.772637 -58.79776 
L 303.154282 -58.677784 
L 303.548216 -58.557809 
L 303.949325 -58.437833 
L 304.35147 -58.317857 
L 304.747364 -58.197881 
L 305.128482 -58.077906 
L 305.485063 -57.95793 
L 305.806244 -57.837954 
L 306.08035 -57.717979 
L 306.295373 -57.598003 
L 306.439613 -57.478027 
L 306.502468 -57.358052 
L 306.475267 -57.238076 
L 306.35211 -57.1181 
L 306.13057 -56.998124 
L 305.81219 -56.878149 
L 305.402697 -56.758173 
L 304.91187 -56.638197 
L 304.353077 -56.518222 
L 303.742501 -56.398246 
L 303.098141 -56.27827 
L 302.438677 -56.158294 
L 301.782323 -56.038319 
L 301.14577 -55.918343 
L 300.543332 -55.798367 
L 299.986332 -55.678392 
L 299.482791 -55.558416 
L 299.037396 -55.43844 
L 298.651719 -55.318465 
L 298.324631 -55.198489 
L 298.052846 -55.078513 
L 297.831515 -54.958537 
L 297.654819 -54.838562 
L 297.516504 -54.718586 
L 297.410322 -54.59861 
L 297.330369 -54.478635 
L 297.271317 -54.358659 
L 297.228537 -54.238683 
L 297.198149 -54.118707 
L 297.177006 -53.998732 
L 297.162633 -53.878756 
L 297.153149 -53.75878 
L 297.147176 -53.638805 
L 297.143754 -53.518829 
L 297.142262 -53.398853 
L 297.142358 -53.278877 
L 297.143929 -53.158902 
L 297.147054 -53.038926 
L 297.151981 -52.91895 
L 297.159104 -52.798975 
L 297.168945 -52.678999 
L 297.18213 -52.559023 
L 297.199355 -52.439048 
L 297.221345 -52.319072 
L 297.24879 -52.199096 
L 297.282276 -52.07912 
L 297.322199 -51.959145 
L 297.368674 -51.839169 
L 297.421455 -51.719193 
L 297.479857 -51.599218 
L 297.542718 -51.479242 
L 297.608391 -51.359266 
L 297.674785 -51.23929 
L 297.739452 -51.119315 
L 297.799728 -50.999339 
L 297.852905 -50.879363 
L 297.896433 -50.759388 
L 297.928118 -50.639412 
L 297.946307 -50.519436 
L 297.950031 -50.399461 
z
" style="stroke: #808080; stroke-opacity: 0.8"/>
    </defs>
    <g clip-path="url(#p26bf1c789a)">
     <use xlink:href="#m29db5868aa" x="0" y="144" style="fill: #ff7f0e; fill-opacity: 0.8; stroke: #808080; stroke-opacity: 0.8"/>
    </g>
   </g>
   <g id="PolyCollection_7">
    <defs>
     <path id="m57ddd97bb3" d="M 334.850686 -52.796359 
L 334.359444 -52.796359 
L 334.345983 -52.891776 
L 334.333605 -52.987194 
L 334.32202 -53.082612 
L 334.31087 -53.178029 
L 334.29978 -53.273447 
L 334.288408 -53.368865 
L 334.276485 -53.464282 
L 334.263851 -53.5597 
L 334.250469 -53.655118 
L 334.236425 -53.750535 
L 334.221917 -53.845953 
L 334.207226 -53.941371 
L 334.192686 -54.036788 
L 334.178639 -54.132206 
L 334.165402 -54.227623 
L 334.153222 -54.323041 
L 334.142239 -54.418459 
L 334.132461 -54.513876 
L 334.123733 -54.609294 
L 334.11573 -54.704712 
L 334.107955 -54.800129 
L 334.099759 -54.895547 
L 334.090377 -54.990965 
L 334.07898 -55.086382 
L 334.064745 -55.1818 
L 334.046929 -55.277218 
L 334.024938 -55.372635 
L 333.998388 -55.468053 
L 333.967136 -55.56347 
L 333.931281 -55.658888 
L 333.891134 -55.754306 
L 333.847155 -55.849723 
L 333.799861 -55.945141 
L 333.749729 -56.040559 
L 333.697108 -56.135976 
L 333.642144 -56.231394 
L 333.584743 -56.326812 
L 333.524567 -56.422229 
L 333.46107 -56.517647 
L 333.393556 -56.613065 
L 333.32125 -56.708482 
L 333.243364 -56.8039 
L 333.159151 -56.899317 
L 333.067921 -56.994735 
L 332.969038 -57.090153 
L 332.861896 -57.18557 
L 332.745875 -57.280988 
L 332.620323 -57.376406 
L 332.484543 -57.471823 
L 332.337825 -57.567241 
L 332.179506 -57.662659 
L 332.009054 -57.758076 
L 331.826168 -57.853494 
L 331.630857 -57.948912 
L 331.423489 -58.044329 
L 331.204782 -58.139747 
L 330.975739 -58.235165 
L 330.73752 -58.330582 
L 330.49128 -58.426 
L 330.237984 -58.521417 
L 329.978252 -58.616835 
L 329.712255 -58.712253 
L 329.439695 -58.80767 
L 329.159886 -58.903088 
L 328.871943 -58.998506 
L 328.575052 -59.093923 
L 328.268811 -59.189341 
L 327.953583 -59.284759 
L 327.630827 -59.380176 
L 327.303356 -59.475594 
L 326.975485 -59.571012 
L 326.653037 -59.666429 
L 326.343216 -59.761847 
L 326.054331 -59.857264 
L 325.795403 -59.952682 
L 325.575702 -60.0481 
L 325.404224 -60.143517 
L 325.289183 -60.238935 
L 325.237532 -60.334353 
L 325.254556 -60.42977 
L 325.343558 -60.525188 
L 325.505658 -60.620606 
L 325.739702 -60.716023 
L 326.042294 -60.811441 
L 326.407934 -60.906859 
L 326.829256 -61.002276 
L 327.297354 -61.097694 
L 327.802172 -61.193112 
L 328.332936 -61.288529 
L 328.87861 -61.383947 
L 329.428342 -61.479364 
L 329.971881 -61.574782 
L 330.499943 -61.6702 
L 331.004501 -61.765617 
L 331.478991 -61.861035 
L 331.918431 -61.956453 
L 332.319443 -62.05187 
L 332.680193 -62.147288 
L 333.000259 -62.242706 
L 336.209871 -62.242706 
L 336.209871 -62.242706 
L 336.529937 -62.147288 
L 336.890687 -62.05187 
L 337.291699 -61.956453 
L 337.731139 -61.861035 
L 338.205629 -61.765617 
L 338.710186 -61.6702 
L 339.238249 -61.574782 
L 339.781788 -61.479364 
L 340.33152 -61.383947 
L 340.877194 -61.288529 
L 341.407958 -61.193112 
L 341.912776 -61.097694 
L 342.380874 -61.002276 
L 342.802196 -60.906859 
L 343.167836 -60.811441 
L 343.470428 -60.716023 
L 343.704472 -60.620606 
L 343.866572 -60.525188 
L 343.955574 -60.42977 
L 343.972597 -60.334353 
L 343.920947 -60.238935 
L 343.805906 -60.143517 
L 343.634428 -60.0481 
L 343.414727 -59.952682 
L 343.155799 -59.857264 
L 342.866914 -59.761847 
L 342.557093 -59.666429 
L 342.234645 -59.571012 
L 341.906773 -59.475594 
L 341.579303 -59.380176 
L 341.256547 -59.284759 
L 340.941319 -59.189341 
L 340.635077 -59.093923 
L 340.338187 -58.998506 
L 340.050244 -58.903088 
L 339.770435 -58.80767 
L 339.497875 -58.712253 
L 339.231878 -58.616835 
L 338.972146 -58.521417 
L 338.71885 -58.426 
L 338.472609 -58.330582 
L 338.234391 -58.235165 
L 338.005348 -58.139747 
L 337.786641 -58.044329 
L 337.579272 -57.948912 
L 337.383962 -57.853494 
L 337.201076 -57.758076 
L 337.030624 -57.662659 
L 336.872304 -57.567241 
L 336.725587 -57.471823 
L 336.589807 -57.376406 
L 336.464255 -57.280988 
L 336.348234 -57.18557 
L 336.241092 -57.090153 
L 336.142209 -56.994735 
L 336.050979 -56.899317 
L 335.966766 -56.8039 
L 335.88888 -56.708482 
L 335.816574 -56.613065 
L 335.74906 -56.517647 
L 335.685563 -56.422229 
L 335.625387 -56.326812 
L 335.567986 -56.231394 
L 335.513022 -56.135976 
L 335.460401 -56.040559 
L 335.410269 -55.945141 
L 335.362974 -55.849723 
L 335.318995 -55.754306 
L 335.278849 -55.658888 
L 335.242994 -55.56347 
L 335.211741 -55.468053 
L 335.185191 -55.372635 
L 335.163201 -55.277218 
L 335.145385 -55.1818 
L 335.13115 -55.086382 
L 335.119753 -54.990965 
L 335.110371 -54.895547 
L 335.102175 -54.800129 
L 335.0944 -54.704712 
L 335.086397 -54.609294 
L 335.077669 -54.513876 
L 335.067891 -54.418459 
L 335.056908 -54.323041 
L 335.044728 -54.227623 
L 335.03149 -54.132206 
L 335.017444 -54.036788 
L 335.002904 -53.941371 
L 334.988213 -53.845953 
L 334.973705 -53.750535 
L 334.959661 -53.655118 
L 334.946279 -53.5597 
L 334.933645 -53.464282 
L 334.921722 -53.368865 
L 334.91035 -53.273447 
L 334.89926 -53.178029 
L 334.88811 -53.082612 
L 334.876525 -52.987194 
L 334.864147 -52.891776 
L 334.850686 -52.796359 
z
" style="stroke: #808080; stroke-opacity: 0.8"/>
    </defs>
    <g clip-path="url(#p26bf1c789a)">
     <use xlink:href="#m57ddd97bb3" x="0" y="144" style="fill: #2ca02c; fill-opacity: 0.8; stroke: #808080; stroke-opacity: 0.8"/>
    </g>
   </g>
   <g id="PolyCollection_8">
    <defs>
     <path id="mac65acac40" d="M 372.746651 -50.772254 
L 371.403739 -50.772254 
L 371.408172 -50.979521 
L 371.421615 -51.186788 
L 371.443523 -51.394055 
L 371.473024 -51.601322 
L 371.508977 -51.808588 
L 371.550044 -52.015855 
L 371.594776 -52.223122 
L 371.641689 -52.430389 
L 371.689352 -52.637656 
L 371.73645 -52.844923 
L 371.781841 -53.05219 
L 371.824591 -53.259457 
L 371.863992 -53.466724 
L 371.899564 -53.67399 
L 371.931037 -53.881257 
L 371.958331 -54.088524 
L 371.981513 -54.295791 
L 372.000765 -54.503058 
L 372.016337 -54.710325 
L 372.028513 -54.917592 
L 372.037573 -55.124859 
L 372.043765 -55.332125 
L 372.047277 -55.539392 
L 372.048227 -55.746659 
L 372.046646 -55.953926 
L 372.042482 -56.161193 
L 372.0356 -56.36846 
L 372.025793 -56.575727 
L 372.012806 -56.782994 
L 371.996354 -56.990261 
L 371.97616 -57.197527 
L 371.951986 -57.404794 
L 371.923674 -57.612061 
L 371.89119 -57.819328 
L 371.854655 -58.026595 
L 371.814387 -58.233862 
L 371.770916 -58.441129 
L 371.724998 -58.648396 
L 371.677608 -58.855663 
L 371.629918 -59.062929 
L 371.58325 -59.270196 
L 371.539018 -59.477463 
L 371.49865 -59.68473 
L 371.463501 -59.891997 
L 371.434761 -60.099264 
L 371.413364 -60.306531 
L 371.399906 -60.513798 
L 371.394575 -60.721064 
L 371.3971 -60.928331 
L 371.406727 -61.135598 
L 371.422208 -61.342865 
L 371.441819 -61.550132 
L 371.463396 -61.757399 
L 371.484381 -61.964666 
L 371.501886 -62.171933 
L 371.512753 -62.3792 
L 371.513628 -62.586466 
L 371.501029 -62.793733 
L 371.471415 -63.001 
L 371.421261 -63.208267 
L 371.34713 -63.415534 
L 371.245758 -63.622801 
L 371.114141 -63.830068 
L 370.949635 -64.037335 
L 370.750062 -64.244601 
L 370.513821 -64.451868 
L 370.239997 -64.659135 
L 369.928472 -64.866402 
L 369.580009 -65.073669 
L 369.196326 -65.280936 
L 368.780134 -65.488203 
L 368.335141 -65.69547 
L 367.86603 -65.902737 
L 367.378387 -66.110003 
L 366.878604 -66.31727 
L 366.373759 -66.524537 
L 365.871463 -66.731804 
L 365.379701 -66.939071 
L 364.906662 -67.146338 
L 364.460566 -67.353605 
L 364.049487 -67.560872 
L 363.681176 -67.768138 
L 363.362888 -67.975405 
L 363.1012 -68.182672 
L 362.901837 -68.389939 
L 362.769493 -68.597206 
L 362.707662 -68.804473 
L 362.718489 -69.01174 
L 362.802633 -69.219007 
L 362.959183 -69.426274 
L 363.185608 -69.63354 
L 363.477775 -69.840807 
L 363.830029 -70.048074 
L 364.235339 -70.255341 
L 364.685512 -70.462608 
L 365.171463 -70.669875 
L 365.683526 -70.877142 
L 366.211791 -71.084409 
L 366.746453 -71.291676 
L 377.403937 -71.291676 
L 377.403937 -71.291676 
L 377.938599 -71.084409 
L 378.466864 -70.877142 
L 378.978926 -70.669875 
L 379.464877 -70.462608 
L 379.915051 -70.255341 
L 380.320361 -70.048074 
L 380.672615 -69.840807 
L 380.964782 -69.63354 
L 381.191207 -69.426274 
L 381.347756 -69.219007 
L 381.431901 -69.01174 
L 381.442727 -68.804473 
L 381.380897 -68.597206 
L 381.248552 -68.389939 
L 381.049189 -68.182672 
L 380.787502 -67.975405 
L 380.469213 -67.768138 
L 380.100903 -67.560872 
L 379.689823 -67.353605 
L 379.243727 -67.146338 
L 378.770689 -66.939071 
L 378.278926 -66.731804 
L 377.77663 -66.524537 
L 377.271785 -66.31727 
L 376.772003 -66.110003 
L 376.284359 -65.902737 
L 375.815248 -65.69547 
L 375.370256 -65.488203 
L 374.954063 -65.280936 
L 374.57038 -65.073669 
L 374.221918 -64.866402 
L 373.910393 -64.659135 
L 373.636569 -64.451868 
L 373.400327 -64.244601 
L 373.200754 -64.037335 
L 373.036248 -63.830068 
L 372.904632 -63.622801 
L 372.80326 -63.415534 
L 372.729129 -63.208267 
L 372.678975 -63.001 
L 372.649361 -62.793733 
L 372.636762 -62.586466 
L 372.637637 -62.3792 
L 372.648504 -62.171933 
L 372.666008 -61.964666 
L 372.686994 -61.757399 
L 372.708571 -61.550132 
L 372.728182 -61.342865 
L 372.743663 -61.135598 
L 372.75329 -60.928331 
L 372.755815 -60.721064 
L 372.750484 -60.513798 
L 372.737026 -60.306531 
L 372.715629 -60.099264 
L 372.686889 -59.891997 
L 372.65174 -59.68473 
L 372.611372 -59.477463 
L 372.56714 -59.270196 
L 372.520472 -59.062929 
L 372.472782 -58.855663 
L 372.425392 -58.648396 
L 372.379474 -58.441129 
L 372.336002 -58.233862 
L 372.295734 -58.026595 
L 372.2592 -57.819328 
L 372.226715 -57.612061 
L 372.198404 -57.404794 
L 372.174229 -57.197527 
L 372.154035 -56.990261 
L 372.137584 -56.782994 
L 372.124597 -56.575727 
L 372.11479 -56.36846 
L 372.107907 -56.161193 
L 372.103743 -55.953926 
L 372.102163 -55.746659 
L 372.103112 -55.539392 
L 372.106625 -55.332125 
L 372.112816 -55.124859 
L 372.121877 -54.917592 
L 372.134053 -54.710325 
L 372.149625 -54.503058 
L 372.168877 -54.295791 
L 372.192059 -54.088524 
L 372.219352 -53.881257 
L 372.250826 -53.67399 
L 372.286398 -53.466724 
L 372.325799 -53.259457 
L 372.368549 -53.05219 
L 372.41394 -52.844923 
L 372.461038 -52.637656 
L 372.508701 -52.430389 
L 372.555614 -52.223122 
L 372.600345 -52.015855 
L 372.641413 -51.808588 
L 372.677366 -51.601322 
L 372.706867 -51.394055 
L 372.728774 -51.186788 
L 372.742217 -50.979521 
L 372.746651 -50.772254 
z
" style="stroke: #808080; stroke-opacity: 0.8"/>
    </defs>
    <g clip-path="url(#p26bf1c789a)">
     <use xlink:href="#mac65acac40" x="0" y="144" style="fill: #d62728; fill-opacity: 0.8; stroke: #808080; stroke-opacity: 0.8"/>
    </g>
   </g>
   <g id="matplotlib.axis_3">
    <g id="xtick_7">
     <g id="line2d_23">
      <g>
       <use xlink:href="#m3843aa8841" x="259.664805" y="94.71" style="stroke: #000000; stroke-width: 0.8"/>
      </g>
     </g>
     <g id="text_15">
      <!-- Random -->
      <g transform="translate(261.872305 134.8275)rotate(-90)scale(0.08 -0.08)">
       <defs>
        <path id="DejaVuSans-6d" d="M 3328 2828 
Q 3544 3216 3844 3400 
Q 4144 3584 4550 3584 
Q 5097 3584 5394 3201 
Q 5691 2819 5691 2113 
L 5691 0 
L 5113 0 
L 5113 2094 
Q 5113 2597 4934 2840 
Q 4756 3084 4391 3084 
Q 3944 3084 3684 2787 
Q 3425 2491 3425 1978 
L 3425 0 
L 2847 0 
L 2847 2094 
Q 2847 2600 2669 2842 
Q 2491 3084 2119 3084 
Q 1678 3084 1418 2786 
Q 1159 2488 1159 1978 
L 1159 0 
L 581 0 
L 581 3500 
L 1159 3500 
L 1159 2956 
Q 1356 3278 1631 3431 
Q 1906 3584 2284 3584 
Q 2666 3584 2933 3390 
Q 3200 3197 3328 2828 
z
" transform="scale(0.015625)"/>
       </defs>
       <use xlink:href="#DejaVuSans-52"/>
       <use xlink:href="#DejaVuSans-61" x="67.232422"/>
       <use xlink:href="#DejaVuSans-6e" x="128.511719"/>
       <use xlink:href="#DejaVuSans-64" x="191.890625"/>
       <use xlink:href="#DejaVuSans-6f" x="255.367188"/>
       <use xlink:href="#DejaVuSans-6d" x="316.548828"/>
      </g>
     </g>
    </g>
    <g id="xtick_8">
     <g id="line2d_24">
      <g>
       <use xlink:href="#m3843aa8841" x="297.134935" y="94.71" style="stroke: #000000; stroke-width: 0.8"/>
      </g>
     </g>
     <g id="text_16">
      <!-- AdaLead -->
      <g transform="translate(299.342435 136.245)rotate(-90)scale(0.08 -0.08)">
       <defs>
        <path id="DejaVuSans-41" d="M 2188 4044 
L 1331 1722 
L 3047 1722 
L 2188 4044 
z
M 1831 4666 
L 2547 4666 
L 4325 0 
L 3669 0 
L 3244 1197 
L 1141 1197 
L 716 0 
L 50 0 
L 1831 4666 
z
" transform="scale(0.015625)"/>
        <path id="DejaVuSans-4c" d="M 628 4666 
L 1259 4666 
L 1259 531 
L 3531 531 
L 3531 0 
L 628 0 
L 628 4666 
z
" transform="scale(0.015625)"/>
       </defs>
       <use xlink:href="#DejaVuSans-41"/>
       <use xlink:href="#DejaVuSans-64" x="66.658203"/>
       <use xlink:href="#DejaVuSans-61" x="130.134766"/>
       <use xlink:href="#DejaVuSans-4c" x="191.414062"/>
       <use xlink:href="#DejaVuSans-65" x="245.376953"/>
       <use xlink:href="#DejaVuSans-61" x="306.900391"/>
       <use xlink:href="#DejaVuSans-64" x="368.179688"/>
      </g>
     </g>
    </g>
    <g id="xtick_9">
     <g id="line2d_25">
      <g>
       <use xlink:href="#m3843aa8841" x="334.605065" y="94.71" style="stroke: #000000; stroke-width: 0.8"/>
      </g>
     </g>
     <g id="text_17">
      <!-- BO-EVO -->
      <g transform="translate(336.812565 133.1475)rotate(-90)scale(0.08 -0.08)">
       <defs>
        <path id="DejaVuSans-42" d="M 1259 2228 
L 1259 519 
L 2272 519 
Q 2781 519 3026 730 
Q 3272 941 3272 1375 
Q 3272 1813 3026 2020 
Q 2781 2228 2272 2228 
L 1259 2228 
z
M 1259 4147 
L 1259 2741 
L 2194 2741 
Q 2656 2741 2882 2914 
Q 3109 3088 3109 3444 
Q 3109 3797 2882 3972 
Q 2656 4147 2194 4147 
L 1259 4147 
z
M 628 4666 
L 2241 4666 
Q 2963 4666 3353 4366 
Q 3744 4066 3744 3513 
Q 3744 3084 3544 2831 
Q 3344 2578 2956 2516 
Q 3422 2416 3680 2098 
Q 3938 1781 3938 1306 
Q 3938 681 3513 340 
Q 3088 0 2303 0 
L 628 0 
L 628 4666 
z
" transform="scale(0.015625)"/>
        <path id="DejaVuSans-4f" d="M 2522 4238 
Q 1834 4238 1429 3725 
Q 1025 3213 1025 2328 
Q 1025 1447 1429 934 
Q 1834 422 2522 422 
Q 3209 422 3611 934 
Q 4013 1447 4013 2328 
Q 4013 3213 3611 3725 
Q 3209 4238 2522 4238 
z
M 2522 4750 
Q 3503 4750 4090 4092 
Q 4678 3434 4678 2328 
Q 4678 1225 4090 567 
Q 3503 -91 2522 -91 
Q 1538 -91 948 565 
Q 359 1222 359 2328 
Q 359 3434 948 4092 
Q 1538 4750 2522 4750 
z
" transform="scale(0.015625)"/>
        <path id="DejaVuSans-2d" d="M 313 2009 
L 1997 2009 
L 1997 1497 
L 313 1497 
L 313 2009 
z
" transform="scale(0.015625)"/>
        <path id="DejaVuSans-45" d="M 628 4666 
L 3578 4666 
L 3578 4134 
L 1259 4134 
L 1259 2753 
L 3481 2753 
L 3481 2222 
L 1259 2222 
L 1259 531 
L 3634 531 
L 3634 0 
L 628 0 
L 628 4666 
z
" transform="scale(0.015625)"/>
        <path id="DejaVuSans-56" d="M 1831 0 
L 50 4666 
L 709 4666 
L 2188 738 
L 3669 4666 
L 4325 4666 
L 2547 0 
L 1831 0 
z
" transform="scale(0.015625)"/>
       </defs>
       <use xlink:href="#DejaVuSans-42"/>
       <use xlink:href="#DejaVuSans-4f" x="66.853516"/>
       <use xlink:href="#DejaVuSans-2d" x="148.314453"/>
       <use xlink:href="#DejaVuSans-45" x="184.398438"/>
       <use xlink:href="#DejaVuSans-56" x="247.582031"/>
       <use xlink:href="#DejaVuSans-4f" x="314.240234"/>
      </g>
     </g>
    </g>
    <g id="xtick_10">
     <g id="line2d_26">
      <g>
       <use xlink:href="#m3843aa8841" x="372.075195" y="94.71" style="stroke: #000000; stroke-width: 0.8"/>
      </g>
     </g>
     <g id="text_18">
      <!-- BO -->
      <g transform="translate(374.282695 113.35625)rotate(-90)scale(0.08 -0.08)">
       <use xlink:href="#DejaVuSans-42"/>
       <use xlink:href="#DejaVuSans-4f" x="66.853516"/>
      </g>
     </g>
    </g>
   </g>
   <g id="matplotlib.axis_4">
    <g id="ytick_7">
     <g id="line2d_27">
      <g>
       <use xlink:href="#m619b997413" x="243.74" y="94.71" style="stroke: #000000; stroke-width: 0.8"/>
      </g>
     </g>
     <g id="text_19">
      <!-- 0.0 -->
      <g transform="translate(224.0175 97.749375)scale(0.08 -0.08)">
       <defs>
        <path id="DejaVuSans-2e" d="M 684 794 
L 1344 794 
L 1344 0 
L 684 0 
L 684 794 
z
" transform="scale(0.015625)"/>
       </defs>
       <use xlink:href="#DejaVuSans-30"/>
       <use xlink:href="#DejaVuSans-2e" x="63.623047"/>
       <use xlink:href="#DejaVuSans-30" x="95.410156"/>
      </g>
     </g>
    </g>
    <g id="ytick_8">
     <g id="line2d_28">
      <g>
       <use xlink:href="#m619b997413" x="243.74" y="77.944" style="stroke: #000000; stroke-width: 0.8"/>
      </g>
     </g>
     <g id="text_20">
      <!-- 0.2 -->
      <g transform="translate(224.0175 80.983375)scale(0.08 -0.08)">
       <use xlink:href="#DejaVuSans-30"/>
       <use xlink:href="#DejaVuSans-2e" x="63.623047"/>
       <use xlink:href="#DejaVuSans-32" x="95.410156"/>
      </g>
     </g>
    </g>
    <g id="ytick_9">
     <g id="line2d_29">
      <g>
       <use xlink:href="#m619b997413" x="243.74" y="61.178" style="stroke: #000000; stroke-width: 0.8"/>
      </g>
     </g>
     <g id="text_21">
      <!-- 0.4 -->
      <g transform="translate(224.0175 64.217375)scale(0.08 -0.08)">
       <use xlink:href="#DejaVuSans-30"/>
       <use xlink:href="#DejaVuSans-2e" x="63.623047"/>
       <use xlink:href="#DejaVuSans-34" x="95.410156"/>
      </g>
     </g>
    </g>
    <g id="ytick_10">
     <g id="line2d_30">
      <g>
       <use xlink:href="#m619b997413" x="243.74" y="44.412" style="stroke: #000000; stroke-width: 0.8"/>
      </g>
     </g>
     <g id="text_22">
      <!-- 0.6 -->
      <g transform="translate(224.0175 47.451375)scale(0.08 -0.08)">
       <use xlink:href="#DejaVuSans-30"/>
       <use xlink:href="#DejaVuSans-2e" x="63.623047"/>
       <use xlink:href="#DejaVuSans-36" x="95.410156"/>
      </g>
     </g>
    </g>
    <g id="ytick_11">
     <g id="line2d_31">
      <g>
       <use xlink:href="#m619b997413" x="243.74" y="27.646" style="stroke: #000000; stroke-width: 0.8"/>
      </g>
     </g>
     <g id="text_23">
      <!-- 0.8 -->
      <g transform="translate(224.0175 30.685375)scale(0.08 -0.08)">
       <use xlink:href="#DejaVuSans-30"/>
       <use xlink:href="#DejaVuSans-2e" x="63.623047"/>
       <use xlink:href="#DejaVuSans-38" x="95.410156"/>
      </g>
     </g>
    </g>
    <g id="ytick_12">
     <g id="line2d_32">
      <g>
       <use xlink:href="#m619b997413" x="243.74" y="10.88" style="stroke: #000000; stroke-width: 0.8"/>
      </g>
     </g>
     <g id="text_24">
      <!-- 1.0 -->
      <g transform="translate(224.0175 13.919375)scale(0.08 -0.08)">
       <use xlink:href="#DejaVuSans-31"/>
       <use xlink:href="#DejaVuSans-2e" x="63.623047"/>
       <use xlink:href="#DejaVuSans-30" x="95.410156"/>
      </g>
     </g>
    </g>
    <g id="text_25">
     <!-- Fitness -->
     <g transform="translate(217.937812 70.112187)rotate(-90)scale(0.1 -0.1)">
      <defs>
       <path id="DejaVuSans-46" d="M 628 4666 
L 3309 4666 
L 3309 4134 
L 1259 4134 
L 1259 2759 
L 3109 2759 
L 3109 2228 
L 1259 2228 
L 1259 0 
L 628 0 
L 628 4666 
z
" transform="scale(0.015625)"/>
      </defs>
      <use xlink:href="#DejaVuSans-46"/>
      <use xlink:href="#DejaVuSans-69" x="50.269531"/>
      <use xlink:href="#DejaVuSans-74" x="78.052734"/>
      <use xlink:href="#DejaVuSans-6e" x="117.261719"/>
      <use xlink:href="#DejaVuSans-65" x="180.640625"/>
      <use xlink:href="#DejaVuSans-73" x="242.164062"/>
      <use xlink:href="#DejaVuSans-73" x="294.263672"/>
     </g>
    </g>
   </g>
   <g id="LineCollection_1">
    <path d="M 259.664805 49.38296 
L 259.664805 10.88 
" clip-path="url(#p26bf1c789a)" style="fill: none; stroke: #000000; stroke-width: 5"/>
    <path d="M 297.134935 20.614465 
L 297.134935 10.88 
" clip-path="url(#p26bf1c789a)" style="fill: none; stroke: #000000; stroke-width: 5"/>
    <path d="M 334.605065 13.313616 
L 334.605065 10.88 
" clip-path="url(#p26bf1c789a)" style="fill: none; stroke: #000000; stroke-width: 5"/>
    <path d="M 372.075195 10.88 
L 372.075195 10.88 
" clip-path="url(#p26bf1c789a)" style="fill: none; stroke: #000000; stroke-width: 5"/>
   </g>
   <g id="LineCollection_2">
    <path d="M 259.664805 65.480684 
L 259.664805 10.88 
" clip-path="url(#p26bf1c789a)" style="fill: none; stroke: #000000"/>
    <path d="M 297.134935 35.216163 
L 297.134935 10.88 
" clip-path="url(#p26bf1c789a)" style="fill: none; stroke: #000000"/>
    <path d="M 334.605065 16.964041 
L 334.605065 10.88 
" clip-path="url(#p26bf1c789a)" style="fill: none; stroke: #000000"/>
    <path d="M 372.075195 10.88 
L 372.075195 10.88 
" clip-path="url(#p26bf1c789a)" style="fill: none; stroke: #000000"/>
   </g>
   <g id="LineCollection_3">
    <path d="M 259.664805 93.354628 
L 259.664805 92.685649 
" clip-path="url(#p26bf1c789a)" style="fill: none; stroke: #000000; stroke-width: 5"/>
    <path d="M 297.134935 87.103909 
L 297.134935 85.196006 
" clip-path="url(#p26bf1c789a)" style="fill: none; stroke: #000000; stroke-width: 5"/>
    <path d="M 334.605065 85.163163 
L 334.605065 83.254754 
" clip-path="url(#p26bf1c789a)" style="fill: none; stroke: #000000; stroke-width: 5"/>
    <path d="M 372.075195 76.749668 
L 372.075195 74.512066 
" clip-path="url(#p26bf1c789a)" style="fill: none; stroke: #000000; stroke-width: 5"/>
   </g>
   <g id="LineCollection_4">
    <path d="M 259.664805 94.358096 
L 259.664805 92.297771 
" clip-path="url(#p26bf1c789a)" style="fill: none; stroke: #000000"/>
    <path d="M 297.134935 89.965764 
L 297.134935 82.334152 
" clip-path="url(#p26bf1c789a)" style="fill: none; stroke: #000000"/>
    <path d="M 334.605065 88.025776 
L 334.605065 81.757294 
" clip-path="url(#p26bf1c789a)" style="fill: none; stroke: #000000"/>
    <path d="M 372.075195 80.106071 
L 372.075195 72.708324 
" clip-path="url(#p26bf1c789a)" style="fill: none; stroke: #000000"/>
   </g>
   <g id="patch_8">
    <path d="M 243.74 94.71 
L 243.74 10.88 
" style="fill: none; stroke: #000000; stroke-width: 0.8; stroke-linejoin: miter; stroke-linecap: square"/>
   </g>
   <g id="patch_9">
    <path d="M 388 94.71 
L 388 10.88 
" style="fill: none; stroke: #000000; stroke-width: 0.8; stroke-linejoin: miter; stroke-linecap: square"/>
   </g>
   <g id="patch_10">
    <path d="M 243.74 94.71 
L 388 94.71 
" style="fill: none; stroke: #000000; stroke-width: 0.8; stroke-linejoin: miter; stroke-linecap: square"/>
   </g>
   <g id="patch_11">
    <path d="M 243.74 10.88 
L 388 10.88 
" style="fill: none; stroke: #000000; stroke-width: 0.8; stroke-linejoin: miter; stroke-linecap: square"/>
   </g>
   <g id="PathCollection_1">
    <defs>
     <path id="mee0da173f0" d="M 0 1.118034 
C 0.296506 1.118034 0.580908 1.000231 0.790569 0.790569 
C 1.000231 0.580908 1.118034 0.296506 1.118034 0 
C 1.118034 -0.296506 1.000231 -0.580908 0.790569 -0.790569 
C 0.580908 -1.000231 0.296506 -1.118034 0 -1.118034 
C -0.296506 -1.118034 -0.580908 -1.000231 -0.790569 -0.790569 
C -1.000231 -0.580908 -1.118034 -0.296506 -1.118034 0 
C -1.118034 0.296506 -1.000231 0.580908 -0.790569 0.790569 
C -0.580908 1.000231 -0.296506 1.118034 0 1.118034 
z
" style="stroke: #ffffff"/>
    </defs>
    <g clip-path="url(#p26bf1c789a)">
     <use xlink:href="#mee0da173f0" x="259.664805" y="33.580859" style="fill: #ffffff; stroke: #ffffff"/>
     <use xlink:href="#mee0da173f0" x="297.134935" y="10.88" style="fill: #ffffff; stroke: #ffffff"/>
     <use xlink:href="#mee0da173f0" x="334.605065" y="10.88" style="fill: #ffffff; stroke: #ffffff"/>
     <use xlink:href="#mee0da173f0" x="372.075195" y="10.88" style="fill: #ffffff; stroke: #ffffff"/>
    </g>
   </g>
   <g id="PathCollection_2">
    <g clip-path="url(#p26bf1c789a)">
     <use xlink:href="#mee0da173f0" x="259.664805" y="93.03183" style="fill: #ffffff; stroke: #ffffff"/>
     <use xlink:href="#mee0da173f0" x="297.134935" y="86.497631" style="fill: #ffffff; stroke: #ffffff"/>
     <use xlink:href="#mee0da173f0" x="334.605065" y="83.980355" style="fill: #ffffff; stroke: #ffffff"/>
     <use xlink:href="#mee0da173f0" x="372.075195" y="75.013618" style="fill: #ffffff; stroke: #ffffff"/>
    </g>
   </g>
  </g>
  <g id="text_26">
   <!-- a -->
   <g transform="translate(3.96 7.598437)scale(0.1 -0.1)">
    <defs>
     <path id="DejaVuSans-Bold-61" d="M 2106 1575 
Q 1756 1575 1579 1456 
Q 1403 1338 1403 1106 
Q 1403 894 1545 773 
Q 1688 653 1941 653 
Q 2256 653 2472 879 
Q 2688 1106 2688 1447 
L 2688 1575 
L 2106 1575 
z
M 3816 1997 
L 3816 0 
L 2688 0 
L 2688 519 
Q 2463 200 2181 54 
Q 1900 -91 1497 -91 
Q 953 -91 614 226 
Q 275 544 275 1050 
Q 275 1666 698 1953 
Q 1122 2241 2028 2241 
L 2688 2241 
L 2688 2328 
Q 2688 2594 2478 2717 
Q 2269 2841 1825 2841 
Q 1466 2841 1156 2769 
Q 847 2697 581 2553 
L 581 3406 
Q 941 3494 1303 3539 
Q 1666 3584 2028 3584 
Q 2975 3584 3395 3211 
Q 3816 2838 3816 1997 
z
" transform="scale(0.015625)"/>
    </defs>
    <use xlink:href="#DejaVuSans-Bold-61"/>
   </g>
  </g>
  <g id="text_27">
   <!-- b -->
   <g transform="translate(205.92 7.598437)scale(0.1 -0.1)">
    <defs>
     <path id="DejaVuSans-Bold-62" d="M 2400 722 
Q 2759 722 2948 984 
Q 3138 1247 3138 1747 
Q 3138 2247 2948 2509 
Q 2759 2772 2400 2772 
Q 2041 2772 1848 2508 
Q 1656 2244 1656 1747 
Q 1656 1250 1848 986 
Q 2041 722 2400 722 
z
M 1656 2988 
Q 1888 3294 2169 3439 
Q 2450 3584 2816 3584 
Q 3463 3584 3878 3070 
Q 4294 2556 4294 1747 
Q 4294 938 3878 423 
Q 3463 -91 2816 -91 
Q 2450 -91 2169 54 
Q 1888 200 1656 506 
L 1656 0 
L 538 0 
L 538 4863 
L 1656 4863 
L 1656 2988 
z
" transform="scale(0.015625)"/>
    </defs>
    <use xlink:href="#DejaVuSans-Bold-62"/>
   </g>
  </g>
 </g>
 <defs>
  <clipPath id="p620fd76fc2">
   <rect x="52.12" y="10.88" width="144.26" height="83.83"/>
  </clipPath>
  <clipPath id="p26bf1c789a">
   <rect x="243.74" y="10.88" width="144.26" height="83.83"/>
  </clipPath>
 </defs>
</svg>
