<?xml version="1.0" encoding="utf-8" standalone="no"?>
<!DOCTYPE svg PUBLIC "-//W3C//DTD SVG 1.1//EN"
  "http://www.w3.org/Graphics/SVG/1.1/DTD/svg11.dtd">
<svg xmlns:xlink="http://www.w3.org/1999/xlink" width="216pt" height="144pt" viewBox="0 0 216 144" xmlns="http://www.w3.org/2000/svg" version="1.1">
 <metadata>
  <rdf:RDF xmlns:dc="http://purl.org/dc/elements/1.1/" xmlns:cc="http://creativecommons.org/ns#" xmlns:rdf="http://www.w3.org/1999/02/22-rdf-syntax-ns#">
   <cc:Work>
    <dc:type rdf:resource="http://purl.org/dc/dcmitype/StillImage"/>
    <dc:date>2022-09-07T14:39:27.536674</dc:date>
    <dc:format>image/svg+xml</dc:format>
    <dc:creator>
     <cc:Agent>
      <dc:title>Matplotlib v3.5.3, https://matplotlib.org/</dc:title>
     </cc:Agent>
    </dc:creator>
   </cc:Work>
  </rdf:RDF>
 </metadata>
 <defs>
  <style type="text/css">*{stroke-linejoin: round; stroke-linecap: butt}</style>
 </defs>
 <g id="figure_1">
  <g id="patch_1">
   <path d="M 0 144 
L 216 144 
L 216 0 
L 0 0 
z
" style="fill: #ffffff"/>
  </g>
  <g id="axes_1">
   <g id="patch_2">
    <path d="M 34.21 107.72 
L 208 107.72 
L 208 10.88 
L 34.21 10.88 
z
" style="fill: #ffffff"/>
   </g>
   <g id="PolyCollection_1">
    <defs>
     <path id="m6484da0963" d="M 55.93375 -48.385 
L 41.45125 -48.385 
L 41.45125 -48.385 
L 41.45125 -48.385 
L 41.45125 -48.385 
L 41.45125 -48.385 
L 41.45125 -48.385 
L 41.45125 -48.385 
L 41.45125 -48.385 
L 41.45125 -48.385 
L 41.45125 -48.385 
L 41.45125 -48.385 
L 41.45125 -48.385 
L 41.45125 -48.385 
L 41.45125 -48.385 
L 41.45125 -48.385 
L 41.45125 -48.385 
L 41.45125 -48.385 
L 41.45125 -48.385 
L 41.45125 -48.385 
L 41.45125 -48.385 
L 41.45125 -48.385 
L 41.45125 -48.385 
L 41.45125 -48.385 
L 41.45125 -48.385 
L 41.45125 -48.385 
L 41.45125 -48.385 
L 41.45125 -48.385 
L 41.45125 -48.385 
L 41.45125 -48.385 
L 41.45125 -48.385 
L 41.45125 -48.385 
L 41.45125 -48.385 
L 41.45125 -48.385 
L 41.45125 -48.385 
L 41.45125 -48.385 
L 41.45125 -48.385 
L 41.45125 -48.385 
L 41.45125 -48.385 
L 41.45125 -48.385 
L 41.45125 -48.385 
L 41.45125 -48.385 
L 41.45125 -48.385 
L 41.45125 -48.385 
L 41.45125 -48.385 
L 41.45125 -48.385 
L 41.45125 -48.385 
L 41.45125 -48.385 
L 41.45125 -48.385 
L 41.45125 -48.385 
L 41.45125 -48.385 
L 41.45125 -48.385 
L 41.45125 -48.385 
L 41.45125 -48.385 
L 41.45125 -48.385 
L 41.45125 -48.385 
L 41.45125 -48.385 
L 41.45125 -48.385 
L 41.45125 -48.385 
L 41.45125 -48.385 
L 41.45125 -48.385 
L 41.45125 -48.385 
L 41.45125 -48.385 
L 41.45125 -48.385 
L 41.45125 -48.385 
L 41.45125 -48.385 
L 41.45125 -48.385 
L 41.45125 -48.385 
L 41.45125 -48.385 
L 41.45125 -48.385 
L 41.45125 -48.385 
L 41.45125 -48.385 
L 41.45125 -48.385 
L 41.45125 -48.385 
L 41.45125 -48.385 
L 41.45125 -48.385 
L 41.45125 -48.385 
L 41.45125 -48.385 
L 41.45125 -48.385 
L 41.45125 -48.385 
L 41.45125 -48.385 
L 41.45125 -48.385 
L 41.45125 -48.385 
L 41.45125 -48.385 
L 41.45125 -48.385 
L 41.45125 -48.385 
L 41.45125 -48.385 
L 41.45125 -48.385 
L 41.45125 -48.385 
L 41.45125 -48.385 
L 41.45125 -48.385 
L 41.45125 -48.385 
L 41.45125 -48.385 
L 41.45125 -48.385 
L 41.45125 -48.385 
L 41.45125 -48.385 
L 41.45125 -48.385 
L 41.45125 -48.385 
L 41.45125 -48.385 
L 41.45125 -48.385 
L 41.45125 -48.385 
L 55.93375 -48.385 
L 55.93375 -48.385 
L 55.93375 -48.385 
L 55.93375 -48.385 
L 55.93375 -48.385 
L 55.93375 -48.385 
L 55.93375 -48.385 
L 55.93375 -48.385 
L 55.93375 -48.385 
L 55.93375 -48.385 
L 55.93375 -48.385 
L 55.93375 -48.385 
L 55.93375 -48.385 
L 55.93375 -48.385 
L 55.93375 -48.385 
L 55.93375 -48.385 
L 55.93375 -48.385 
L 55.93375 -48.385 
L 55.93375 -48.385 
L 55.93375 -48.385 
L 55.93375 -48.385 
L 55.93375 -48.385 
L 55.93375 -48.385 
L 55.93375 -48.385 
L 55.93375 -48.385 
L 55.93375 -48.385 
L 55.93375 -48.385 
L 55.93375 -48.385 
L 55.93375 -48.385 
L 55.93375 -48.385 
L 55.93375 -48.385 
L 55.93375 -48.385 
L 55.93375 -48.385 
L 55.93375 -48.385 
L 55.93375 -48.385 
L 55.93375 -48.385 
L 55.93375 -48.385 
L 55.93375 -48.385 
L 55.93375 -48.385 
L 55.93375 -48.385 
L 55.93375 -48.385 
L 55.93375 -48.385 
L 55.93375 -48.385 
L 55.93375 -48.385 
L 55.93375 -48.385 
L 55.93375 -48.385 
L 55.93375 -48.385 
L 55.93375 -48.385 
L 55.93375 -48.385 
L 55.93375 -48.385 
L 55.93375 -48.385 
L 55.93375 -48.385 
L 55.93375 -48.385 
L 55.93375 -48.385 
L 55.93375 -48.385 
L 55.93375 -48.385 
L 55.93375 -48.385 
L 55.93375 -48.385 
L 55.93375 -48.385 
L 55.93375 -48.385 
L 55.93375 -48.385 
L 55.93375 -48.385 
L 55.93375 -48.385 
L 55.93375 -48.385 
L 55.93375 -48.385 
L 55.93375 -48.385 
L 55.93375 -48.385 
L 55.93375 -48.385 
L 55.93375 -48.385 
L 55.93375 -48.385 
L 55.93375 -48.385 
L 55.93375 -48.385 
L 55.93375 -48.385 
L 55.93375 -48.385 
L 55.93375 -48.385 
L 55.93375 -48.385 
L 55.93375 -48.385 
L 55.93375 -48.385 
L 55.93375 -48.385 
L 55.93375 -48.385 
L 55.93375 -48.385 
L 55.93375 -48.385 
L 55.93375 -48.385 
L 55.93375 -48.385 
L 55.93375 -48.385 
L 55.93375 -48.385 
L 55.93375 -48.385 
L 55.93375 -48.385 
L 55.93375 -48.385 
L 55.93375 -48.385 
L 55.93375 -48.385 
L 55.93375 -48.385 
L 55.93375 -48.385 
L 55.93375 -48.385 
L 55.93375 -48.385 
L 55.93375 -48.385 
L 55.93375 -48.385 
L 55.93375 -48.385 
L 55.93375 -48.385 
L 55.93375 -48.385 
L 55.93375 -48.385 
z
" style="stroke: #808080; stroke-opacity: 0.8"/>
    </defs>
    <g clip-path="url(#pe70a4e120e)">
     <use xlink:href="#m6484da0963" x="0" y="144" style="fill: #1f77b4; fill-opacity: 0.8; stroke: #808080; stroke-opacity: 0.8"/>
    </g>
   </g>
   <g id="PolyCollection_2">
    <defs>
     <path id="m9acad8bc6c" d="M 82.614799 -36.680676 
L 72.700201 -36.680676 
L 72.434375 -37.042542 
L 72.179598 -37.404408 
L 71.937767 -37.766274 
L 71.710545 -38.12814 
L 71.499341 -38.490006 
L 71.305311 -38.851872 
L 71.129363 -39.213738 
L 70.972174 -39.575605 
L 70.834214 -39.937471 
L 70.715777 -40.299337 
L 70.617007 -40.661203 
L 70.53793 -41.023069 
L 70.478482 -41.384935 
L 70.438525 -41.746801 
L 70.417864 -42.108668 
L 70.41625 -42.470534 
L 70.433376 -42.8324 
L 70.468868 -43.194266 
L 70.522261 -43.556132 
L 70.592983 -43.917998 
L 70.680321 -44.279864 
L 70.783406 -44.641731 
L 70.901179 -45.003597 
L 71.032384 -45.365463 
L 71.175554 -45.727329 
L 71.329018 -46.089195 
L 71.490905 -46.451061 
L 71.659175 -46.812927 
L 71.831652 -47.174793 
L 72.006067 -47.53666 
L 72.18011 -47.898526 
L 72.351489 -48.260392 
L 72.517989 -48.622258 
L 72.677532 -48.984124 
L 72.828235 -49.34599 
L 72.968457 -49.707856 
L 73.096841 -50.069723 
L 73.212349 -50.431589 
L 73.314275 -50.793455 
L 73.402256 -51.155321 
L 73.476267 -51.517187 
L 73.536605 -51.879053 
L 73.583859 -52.240919 
L 73.618884 -52.602786 
L 73.642751 -52.964652 
L 73.656713 -53.326518 
L 73.662154 -53.688384 
L 73.660544 -54.05025 
L 73.6534 -54.412116 
L 73.642245 -54.773982 
L 73.628574 -55.135848 
L 73.613827 -55.497715 
L 73.599364 -55.859581 
L 73.586447 -56.221447 
L 73.576231 -56.583313 
L 73.56975 -56.945179 
L 73.567916 -57.307045 
L 73.571515 -57.668911 
L 73.581208 -58.030778 
L 73.597533 -58.392644 
L 73.620903 -58.75451 
L 73.651613 -59.116376 
L 73.689841 -59.478242 
L 73.73565 -59.840108 
L 73.788994 -60.201974 
L 73.84972 -60.563841 
L 73.917575 -60.925707 
L 73.992209 -61.287573 
L 74.073186 -61.649439 
L 74.159988 -62.011305 
L 74.252031 -62.373171 
L 74.348672 -62.735037 
L 74.449223 -63.096903 
L 74.552967 -63.45877 
L 74.659169 -63.820636 
L 74.767094 -64.182502 
L 74.876019 -64.544368 
L 74.985251 -64.906234 
L 75.094134 -65.2681 
L 75.202069 -65.629966 
L 75.308514 -65.991833 
L 75.412999 -66.353699 
L 75.51513 -66.715565 
L 75.614591 -67.077431 
L 75.711143 -67.439297 
L 75.804625 -67.801163 
L 75.894952 -68.163029 
L 75.982104 -68.524896 
L 76.06612 -68.886762 
L 76.14709 -69.248628 
L 76.225147 -69.610494 
L 76.300449 -69.97236 
L 76.373174 -70.334226 
L 76.44351 -70.696092 
L 76.511636 -71.057958 
L 76.577724 -71.419825 
L 76.641922 -71.781691 
L 76.704352 -72.143557 
L 76.765102 -72.505423 
L 78.549898 -72.505423 
L 78.549898 -72.505423 
L 78.610648 -72.143557 
L 78.673078 -71.781691 
L 78.737276 -71.419825 
L 78.803364 -71.057958 
L 78.87149 -70.696092 
L 78.941826 -70.334226 
L 79.014551 -69.97236 
L 79.089853 -69.610494 
L 79.16791 -69.248628 
L 79.24888 -68.886762 
L 79.332896 -68.524896 
L 79.420048 -68.163029 
L 79.510375 -67.801163 
L 79.603857 -67.439297 
L 79.700409 -67.077431 
L 79.79987 -66.715565 
L 79.902001 -66.353699 
L 80.006486 -65.991833 
L 80.112931 -65.629966 
L 80.220866 -65.2681 
L 80.329749 -64.906234 
L 80.438981 -64.544368 
L 80.547906 -64.182502 
L 80.655831 -63.820636 
L 80.762033 -63.45877 
L 80.865777 -63.096903 
L 80.966328 -62.735037 
L 81.062969 -62.373171 
L 81.155012 -62.011305 
L 81.241814 -61.649439 
L 81.322791 -61.287573 
L 81.397425 -60.925707 
L 81.46528 -60.563841 
L 81.526006 -60.201974 
L 81.57935 -59.840108 
L 81.625159 -59.478242 
L 81.663387 -59.116376 
L 81.694097 -58.75451 
L 81.717467 -58.392644 
L 81.733792 -58.030778 
L 81.743485 -57.668911 
L 81.747084 -57.307045 
L 81.74525 -56.945179 
L 81.738769 -56.583313 
L 81.728553 -56.221447 
L 81.715636 -55.859581 
L 81.701173 -55.497715 
L 81.686426 -55.135848 
L 81.672755 -54.773982 
L 81.6616 -54.412116 
L 81.654456 -54.05025 
L 81.652846 -53.688384 
L 81.658287 -53.326518 
L 81.672249 -52.964652 
L 81.696116 -52.602786 
L 81.731141 -52.240919 
L 81.778395 -51.879053 
L 81.838733 -51.517187 
L 81.912744 -51.155321 
L 82.000725 -50.793455 
L 82.102651 -50.431589 
L 82.218159 -50.069723 
L 82.346543 -49.707856 
L 82.486765 -49.34599 
L 82.637468 -48.984124 
L 82.797011 -48.622258 
L 82.963511 -48.260392 
L 83.13489 -47.898526 
L 83.308933 -47.53666 
L 83.483348 -47.174793 
L 83.655825 -46.812927 
L 83.824095 -46.451061 
L 83.985982 -46.089195 
L 84.139446 -45.727329 
L 84.282616 -45.365463 
L 84.413821 -45.003597 
L 84.531594 -44.641731 
L 84.634679 -44.279864 
L 84.722017 -43.917998 
L 84.792739 -43.556132 
L 84.846132 -43.194266 
L 84.881624 -42.8324 
L 84.89875 -42.470534 
L 84.897136 -42.108668 
L 84.876475 -41.746801 
L 84.836518 -41.384935 
L 84.77707 -41.023069 
L 84.697993 -40.661203 
L 84.599223 -40.299337 
L 84.480786 -39.937471 
L 84.342826 -39.575605 
L 84.185637 -39.213738 
L 84.009689 -38.851872 
L 83.815659 -38.490006 
L 83.604455 -38.12814 
L 83.377233 -37.766274 
L 83.135402 -37.404408 
L 82.880625 -37.042542 
L 82.614799 -36.680676 
z
" style="stroke: #808080; stroke-opacity: 0.8"/>
    </defs>
    <g clip-path="url(#pe70a4e120e)">
     <use xlink:href="#m9acad8bc6c" x="0" y="144" style="fill: #1f77b4; fill-opacity: 0.8; stroke: #808080; stroke-opacity: 0.8"/>
    </g>
   </g>
   <g id="PolyCollection_3">
    <defs>
     <path id="mfea0d50798" d="M 113.506343 -36.950543 
L 99.738657 -36.950543 
L 99.47594 -37.475304 
L 99.38125 -38.000065 
L 99.449238 -38.524827 
L 99.660113 -39.049588 
L 99.982699 -39.57435 
L 100.378885 -40.099111 
L 100.808584 -40.623873 
L 101.234316 -41.148634 
L 101.624698 -41.673395 
L 101.956478 -42.198157 
L 102.215065 -42.722918 
L 102.393844 -43.24768 
L 102.492704 -43.772441 
L 102.516261 -44.297203 
L 102.472184 -44.821964 
L 102.369865 -45.346725 
L 102.219509 -45.871487 
L 102.03161 -46.396248 
L 101.816676 -46.92101 
L 101.585041 -47.445771 
L 101.34667 -47.970533 
L 101.110887 -48.495294 
L 100.886027 -49.020055 
L 100.679093 -49.544817 
L 100.495476 -50.069578 
L 100.338843 -50.59434 
L 100.211233 -51.119101 
L 100.113362 -51.643863 
L 100.045099 -52.168624 
L 100.006016 -52.693385 
L 99.995896 -53.218147 
L 100.015104 -53.742908 
L 100.064716 -54.26767 
L 100.146397 -54.792431 
L 100.262028 -55.317193 
L 100.413167 -55.841954 
L 100.600463 -56.366715 
L 100.823139 -56.891477 
L 101.078666 -57.416238 
L 101.362697 -57.941 
L 101.669282 -58.465761 
L 101.991324 -58.990523 
L 102.321194 -59.515284 
L 102.651379 -60.040045 
L 102.975076 -60.564807 
L 103.286622 -61.089568 
L 103.581721 -61.61433 
L 103.85748 -62.139091 
L 104.112273 -62.663853 
L 104.345516 -63.188614 
L 104.557415 -63.713375 
L 104.748738 -64.238137 
L 104.920647 -64.762898 
L 105.074594 -65.28766 
L 105.212261 -65.812421 
L 105.335514 -66.337183 
L 105.44634 -66.861944 
L 105.546756 -67.386705 
L 105.638681 -67.911467 
L 105.723791 -68.436228 
L 105.803381 -68.96099 
L 105.87827 -69.485751 
L 105.948771 -70.010513 
L 106.014744 -70.535274 
L 106.075725 -71.060035 
L 106.131108 -71.584797 
L 106.180361 -72.109558 
L 106.223204 -72.63432 
L 106.259748 -73.159081 
L 106.290526 -73.683843 
L 106.316448 -74.208604 
L 106.338657 -74.733365 
L 106.358341 -75.258127 
L 106.376533 -75.782888 
L 106.393949 -76.30765 
L 106.410888 -76.832411 
L 106.427235 -77.357173 
L 106.442533 -77.881934 
L 106.45614 -78.406695 
L 106.467406 -78.931457 
L 106.475845 -79.456218 
L 106.481272 -79.98098 
L 106.483863 -80.505741 
L 106.484139 -81.030503 
L 106.48289 -81.555264 
L 106.481033 -82.080025 
L 106.479465 -82.604787 
L 106.478923 -83.129548 
L 106.479879 -83.65431 
L 106.482508 -84.179071 
L 106.486701 -84.703832 
L 106.492145 -85.228594 
L 106.498422 -85.753355 
L 106.50512 -86.278117 
L 106.51192 -86.802878 
L 106.518649 -87.32764 
L 106.525283 -87.852401 
L 106.531913 -88.377162 
L 106.53869 -88.901924 
L 106.70631 -88.901924 
L 106.70631 -88.901924 
L 106.713087 -88.377162 
L 106.719717 -87.852401 
L 106.726351 -87.32764 
L 106.73308 -86.802878 
L 106.73988 -86.278117 
L 106.746578 -85.753355 
L 106.752855 -85.228594 
L 106.758299 -84.703832 
L 106.762492 -84.179071 
L 106.765121 -83.65431 
L 106.766077 -83.129548 
L 106.765535 -82.604787 
L 106.763967 -82.080025 
L 106.76211 -81.555264 
L 106.760861 -81.030503 
L 106.761137 -80.505741 
L 106.763728 -79.98098 
L 106.769155 -79.456218 
L 106.777594 -78.931457 
L 106.78886 -78.406695 
L 106.802467 -77.881934 
L 106.817765 -77.357173 
L 106.834112 -76.832411 
L 106.851051 -76.30765 
L 106.868467 -75.782888 
L 106.886659 -75.258127 
L 106.906343 -74.733365 
L 106.928552 -74.208604 
L 106.954474 -73.683843 
L 106.985252 -73.159081 
L 107.021796 -72.63432 
L 107.064639 -72.109558 
L 107.113892 -71.584797 
L 107.169275 -71.060035 
L 107.230256 -70.535274 
L 107.296229 -70.010513 
L 107.36673 -69.485751 
L 107.441619 -68.96099 
L 107.521209 -68.436228 
L 107.606319 -67.911467 
L 107.698244 -67.386705 
L 107.79866 -66.861944 
L 107.909486 -66.337183 
L 108.032739 -65.812421 
L 108.170406 -65.28766 
L 108.324353 -64.762898 
L 108.496262 -64.238137 
L 108.687585 -63.713375 
L 108.899484 -63.188614 
L 109.132727 -62.663853 
L 109.38752 -62.139091 
L 109.663279 -61.61433 
L 109.958378 -61.089568 
L 110.269924 -60.564807 
L 110.593621 -60.040045 
L 110.923806 -59.515284 
L 111.253676 -58.990523 
L 111.575718 -58.465761 
L 111.882303 -57.941 
L 112.166334 -57.416238 
L 112.421861 -56.891477 
L 112.644537 -56.366715 
L 112.831833 -55.841954 
L 112.982972 -55.317193 
L 113.098603 -54.792431 
L 113.180284 -54.26767 
L 113.229896 -53.742908 
L 113.249104 -53.218147 
L 113.238984 -52.693385 
L 113.199901 -52.168624 
L 113.131638 -51.643863 
L 113.033767 -51.119101 
L 112.906157 -50.59434 
L 112.749524 -50.069578 
L 112.565907 -49.544817 
L 112.358973 -49.020055 
L 112.134113 -48.495294 
L 111.89833 -47.970533 
L 111.659959 -47.445771 
L 111.428324 -46.92101 
L 111.21339 -46.396248 
L 111.025491 -45.871487 
L 110.875135 -45.346725 
L 110.772816 -44.821964 
L 110.728739 -44.297203 
L 110.752296 -43.772441 
L 110.851156 -43.24768 
L 111.029935 -42.722918 
L 111.288522 -42.198157 
L 111.620302 -41.673395 
L 112.010684 -41.148634 
L 112.436416 -40.623873 
L 112.866115 -40.099111 
L 113.262301 -39.57435 
L 113.584887 -39.049588 
L 113.795762 -38.524827 
L 113.86375 -38.000065 
L 113.76906 -37.475304 
L 113.506343 -36.950543 
z
" style="stroke: #808080; stroke-opacity: 0.8"/>
    </defs>
    <g clip-path="url(#pe70a4e120e)">
     <use xlink:href="#mfea0d50798" x="0" y="144" style="fill: #ff7f0e; fill-opacity: 0.8; stroke: #808080; stroke-opacity: 0.8"/>
    </g>
   </g>
   <g id="PolyCollection_4">
    <defs>
     <path id="mc958ce2566" d="M 142.198746 -36.73581 
L 128.976254 -36.73581 
L 128.669763 -37.496255 
L 128.463769 -38.256701 
L 128.358232 -39.017146 
L 128.34625 -39.777591 
L 128.415028 -40.538036 
L 128.547454 -41.298481 
L 128.724054 -42.058926 
L 128.925043 -42.819371 
L 129.132214 -43.579816 
L 129.330442 -44.340261 
L 129.508663 -45.100707 
L 129.660288 -45.861152 
L 129.783061 -46.621597 
L 129.878497 -47.382042 
L 129.950999 -48.142487 
L 130.006838 -48.902932 
L 130.053133 -49.663377 
L 130.096928 -50.423822 
L 130.144465 -51.184267 
L 130.200685 -51.944712 
L 130.268951 -52.705158 
L 130.350981 -53.465603 
L 130.44695 -54.226048 
L 130.555712 -54.986493 
L 130.675088 -55.746938 
L 130.802196 -56.507383 
L 130.933782 -57.267828 
L 131.066534 -58.028273 
L 131.197353 -58.788718 
L 131.323594 -59.549164 
L 131.443247 -60.309609 
L 131.555055 -61.070054 
L 131.658579 -61.830499 
L 131.754177 -62.590944 
L 131.842933 -63.351389 
L 131.926512 -64.111834 
L 132.006982 -64.872279 
L 132.086599 -65.632724 
L 132.167605 -66.39317 
L 132.252024 -67.153615 
L 132.341512 -67.91406 
L 132.437233 -68.674505 
L 132.539799 -69.43495 
L 132.649243 -70.195395 
L 132.76504 -70.95584 
L 132.886159 -71.716285 
L 133.011145 -72.47673 
L 133.138222 -73.237176 
L 133.265412 -73.997621 
L 133.390665 -74.758066 
L 133.511981 -75.518511 
L 133.627536 -76.278956 
L 133.735772 -77.039401 
L 133.835468 -77.799846 
L 133.925782 -78.560291 
L 134.006259 -79.320736 
L 134.076812 -80.081182 
L 134.1377 -80.841627 
L 134.189486 -81.602072 
L 134.232999 -82.362517 
L 134.269302 -83.122962 
L 134.299647 -83.883407 
L 134.325441 -84.643852 
L 134.348184 -85.404297 
L 134.369409 -86.164742 
L 134.390596 -86.925188 
L 134.413093 -87.685633 
L 134.438026 -88.446078 
L 134.466239 -89.206523 
L 134.498252 -89.966968 
L 134.534252 -90.727413 
L 134.574122 -91.487858 
L 134.617496 -92.248303 
L 134.663838 -93.008748 
L 134.712519 -93.769194 
L 134.762895 -94.529639 
L 134.814363 -95.290084 
L 134.866388 -96.050529 
L 134.918518 -96.810974 
L 134.970362 -97.571419 
L 135.021568 -98.331864 
L 135.071791 -99.092309 
L 135.120668 -99.852754 
L 135.167805 -100.6132 
L 135.212783 -101.373645 
L 135.255169 -102.13409 
L 135.294549 -102.894535 
L 135.330563 -103.65498 
L 135.362936 -104.415425 
L 135.391511 -105.17587 
L 135.416266 -105.936315 
L 135.43732 -106.69676 
L 135.454931 -107.457206 
L 135.469469 -108.217651 
L 135.481394 -108.978096 
L 135.491213 -109.738541 
L 135.499443 -110.498986 
L 135.50657 -111.259431 
L 135.513018 -112.019876 
L 135.661982 -112.019876 
L 135.661982 -112.019876 
L 135.66843 -111.259431 
L 135.675557 -110.498986 
L 135.683787 -109.738541 
L 135.693606 -108.978096 
L 135.705531 -108.217651 
L 135.720069 -107.457206 
L 135.73768 -106.69676 
L 135.758734 -105.936315 
L 135.783489 -105.17587 
L 135.812064 -104.415425 
L 135.844437 -103.65498 
L 135.880451 -102.894535 
L 135.919831 -102.13409 
L 135.962217 -101.373645 
L 136.007195 -100.6132 
L 136.054332 -99.852754 
L 136.103209 -99.092309 
L 136.153432 -98.331864 
L 136.204638 -97.571419 
L 136.256482 -96.810974 
L 136.308612 -96.050529 
L 136.360637 -95.290084 
L 136.412105 -94.529639 
L 136.462481 -93.769194 
L 136.511162 -93.008748 
L 136.557504 -92.248303 
L 136.600878 -91.487858 
L 136.640748 -90.727413 
L 136.676748 -89.966968 
L 136.708761 -89.206523 
L 136.736974 -88.446078 
L 136.761907 -87.685633 
L 136.784404 -86.925188 
L 136.805591 -86.164742 
L 136.826816 -85.404297 
L 136.849559 -84.643852 
L 136.875353 -83.883407 
L 136.905698 -83.122962 
L 136.942001 -82.362517 
L 136.985514 -81.602072 
L 137.0373 -80.841627 
L 137.098188 -80.081182 
L 137.168741 -79.320736 
L 137.249218 -78.560291 
L 137.339532 -77.799846 
L 137.439228 -77.039401 
L 137.547464 -76.278956 
L 137.663019 -75.518511 
L 137.784335 -74.758066 
L 137.909588 -73.997621 
L 138.036778 -73.237176 
L 138.163855 -72.47673 
L 138.288841 -71.716285 
L 138.40996 -70.95584 
L 138.525757 -70.195395 
L 138.635201 -69.43495 
L 138.737767 -68.674505 
L 138.833488 -67.91406 
L 138.922976 -67.153615 
L 139.007395 -66.39317 
L 139.088401 -65.632724 
L 139.168018 -64.872279 
L 139.248488 -64.111834 
L 139.332067 -63.351389 
L 139.420823 -62.590944 
L 139.516421 -61.830499 
L 139.619945 -61.070054 
L 139.731753 -60.309609 
L 139.851406 -59.549164 
L 139.977647 -58.788718 
L 140.108466 -58.028273 
L 140.241218 -57.267828 
L 140.372804 -56.507383 
L 140.499912 -55.746938 
L 140.619288 -54.986493 
L 140.72805 -54.226048 
L 140.824019 -53.465603 
L 140.906049 -52.705158 
L 140.974315 -51.944712 
L 141.030535 -51.184267 
L 141.078072 -50.423822 
L 141.121867 -49.663377 
L 141.168162 -48.902932 
L 141.224001 -48.142487 
L 141.296503 -47.382042 
L 141.391939 -46.621597 
L 141.514712 -45.861152 
L 141.666337 -45.100707 
L 141.844558 -44.340261 
L 142.042786 -43.579816 
L 142.249957 -42.819371 
L 142.450946 -42.058926 
L 142.627546 -41.298481 
L 142.759972 -40.538036 
L 142.82875 -39.777591 
L 142.816768 -39.017146 
L 142.711231 -38.256701 
L 142.505237 -37.496255 
L 142.198746 -36.73581 
z
" style="stroke: #808080; stroke-opacity: 0.8"/>
    </defs>
    <g clip-path="url(#pe70a4e120e)">
     <use xlink:href="#mc958ce2566" x="0" y="144" style="fill: #2ca02c; fill-opacity: 0.8; stroke: #808080; stroke-opacity: 0.8"/>
    </g>
   </g>
   <g id="PolyCollection_5">
    <defs>
     <path id="ma261c85166" d="M 171.391536 -36.909277 
L 157.713464 -36.909277 
L 157.407178 -37.801895 
L 157.31125 -38.694513 
L 157.425524 -39.587131 
L 157.729105 -40.47975 
L 158.184205 -41.372368 
L 158.74247 -42.264986 
L 159.352378 -43.157604 
L 159.966208 -44.050222 
L 160.545338 -44.94284 
L 161.063209 -45.835458 
L 161.505832 -46.728076 
L 161.870304 -47.620694 
L 162.162043 -48.513312 
L 162.391539 -49.40593 
L 162.571328 -50.298548 
L 162.713614 -51.191166 
L 162.828757 -52.083784 
L 162.924596 -52.976402 
L 163.006437 -53.86902 
L 163.077478 -54.761639 
L 163.139434 -55.654257 
L 163.193163 -56.546875 
L 163.239193 -57.439493 
L 163.278068 -58.332111 
L 163.31054 -59.224729 
L 163.337613 -60.117347 
L 163.360492 -61.009965 
L 163.380464 -61.902583 
L 163.398753 -62.795201 
L 163.416349 -63.687819 
L 163.433871 -64.580437 
L 163.451463 -65.473055 
L 163.468776 -66.365673 
L 163.485051 -67.258291 
L 163.499294 -68.15091 
L 163.510524 -69.043528 
L 163.518042 -69.936146 
L 163.521666 -70.828764 
L 163.521872 -71.721382 
L 163.519823 -72.614 
L 163.517275 -73.506618 
L 163.516396 -74.399236 
L 163.519524 -75.291854 
L 163.528918 -76.184472 
L 163.546527 -77.07709 
L 163.573792 -77.969708 
L 163.611503 -78.862326 
L 163.659696 -79.754944 
L 163.71761 -80.647562 
L 163.783711 -81.540181 
L 163.855785 -82.432799 
L 163.931111 -83.325417 
L 164.006705 -84.218035 
L 164.079604 -85.110653 
L 164.147163 -86.003271 
L 164.20731 -86.895889 
L 164.258728 -87.788507 
L 164.300934 -88.681125 
L 164.334233 -89.573743 
L 164.35958 -90.466361 
L 164.378364 -91.358979 
L 164.392169 -92.251597 
L 164.402542 -93.144215 
L 164.410822 -94.036833 
L 164.418039 -94.929452 
L 164.424896 -95.82207 
L 164.431802 -96.714688 
L 164.438954 -97.607306 
L 164.44642 -98.499924 
L 164.454208 -99.392542 
L 164.4623 -100.28516 
L 164.470668 -101.177778 
L 164.479262 -102.070396 
L 164.487992 -102.963014 
L 164.496718 -103.855632 
L 164.505252 -104.74825 
L 164.513376 -105.640868 
L 164.520869 -106.533486 
L 164.527533 -107.426104 
L 164.533214 -108.318722 
L 164.537809 -109.211341 
L 164.541269 -110.103959 
L 164.543578 -110.996577 
L 164.544739 -111.889195 
L 164.544758 -112.781813 
L 164.543637 -113.674431 
L 164.541376 -114.567049 
L 164.53799 -115.459667 
L 164.533535 -116.352285 
L 164.528132 -117.244903 
L 164.521996 -118.137521 
L 164.515444 -119.030139 
L 164.508887 -119.922757 
L 164.502803 -120.815375 
L 164.497687 -121.707993 
L 164.493989 -122.600612 
L 164.49205 -123.49323 
L 164.492058 -124.385848 
L 164.494012 -125.278466 
L 164.610988 -125.278466 
L 164.610988 -125.278466 
L 164.612942 -124.385848 
L 164.61295 -123.49323 
L 164.611011 -122.600612 
L 164.607313 -121.707993 
L 164.602197 -120.815375 
L 164.596113 -119.922757 
L 164.589556 -119.030139 
L 164.583004 -118.137521 
L 164.576868 -117.244903 
L 164.571465 -116.352285 
L 164.56701 -115.459667 
L 164.563624 -114.567049 
L 164.561363 -113.674431 
L 164.560242 -112.781813 
L 164.560261 -111.889195 
L 164.561422 -110.996577 
L 164.563731 -110.103959 
L 164.567191 -109.211341 
L 164.571786 -108.318722 
L 164.577467 -107.426104 
L 164.584131 -106.533486 
L 164.591624 -105.640868 
L 164.599748 -104.74825 
L 164.608282 -103.855632 
L 164.617008 -102.963014 
L 164.625738 -102.070396 
L 164.634332 -101.177778 
L 164.6427 -100.28516 
L 164.650792 -99.392542 
L 164.65858 -98.499924 
L 164.666046 -97.607306 
L 164.673198 -96.714688 
L 164.680104 -95.82207 
L 164.686961 -94.929452 
L 164.694178 -94.036833 
L 164.702458 -93.144215 
L 164.712831 -92.251597 
L 164.726636 -91.358979 
L 164.74542 -90.466361 
L 164.770767 -89.573743 
L 164.804066 -88.681125 
L 164.846272 -87.788507 
L 164.89769 -86.895889 
L 164.957837 -86.003271 
L 165.025396 -85.110653 
L 165.098295 -84.218035 
L 165.173889 -83.325417 
L 165.249215 -82.432799 
L 165.321289 -81.540181 
L 165.38739 -80.647562 
L 165.445304 -79.754944 
L 165.493497 -78.862326 
L 165.531208 -77.969708 
L 165.558473 -77.07709 
L 165.576082 -76.184472 
L 165.585476 -75.291854 
L 165.588604 -74.399236 
L 165.587725 -73.506618 
L 165.585177 -72.614 
L 165.583128 -71.721382 
L 165.583334 -70.828764 
L 165.586958 -69.936146 
L 165.594476 -69.043528 
L 165.605706 -68.15091 
L 165.619949 -67.258291 
L 165.636224 -66.365673 
L 165.653537 -65.473055 
L 165.671129 -64.580437 
L 165.688651 -63.687819 
L 165.706247 -62.795201 
L 165.724536 -61.902583 
L 165.744508 -61.009965 
L 165.767387 -60.117347 
L 165.79446 -59.224729 
L 165.826932 -58.332111 
L 165.865807 -57.439493 
L 165.911837 -56.546875 
L 165.965566 -55.654257 
L 166.027522 -54.761639 
L 166.098563 -53.86902 
L 166.180404 -52.976402 
L 166.276243 -52.083784 
L 166.391386 -51.191166 
L 166.533672 -50.298548 
L 166.713461 -49.40593 
L 166.942957 -48.513312 
L 167.234696 -47.620694 
L 167.599168 -46.728076 
L 168.041791 -45.835458 
L 168.559662 -44.94284 
L 169.138792 -44.050222 
L 169.752622 -43.157604 
L 170.36253 -42.264986 
L 170.920795 -41.372368 
L 171.375895 -40.47975 
L 171.679476 -39.587131 
L 171.79375 -38.694513 
L 171.697822 -37.801895 
L 171.391536 -36.909277 
z
" style="stroke: #808080; stroke-opacity: 0.8"/>
    </defs>
    <g clip-path="url(#pe70a4e120e)">
     <use xlink:href="#ma261c85166" x="0" y="144" style="fill: #d62728; fill-opacity: 0.8; stroke: #808080; stroke-opacity: 0.8"/>
    </g>
   </g>
   <g id="PolyCollection_6">
    <defs>
     <path id="mfa2cc79264" d="M 200.340796 -37.04071 
L 186.694204 -37.04071 
L 186.451953 -37.363145 
L 186.311768 -37.68558 
L 186.27625 -38.008015 
L 186.342656 -38.33045 
L 186.503291 -38.652886 
L 186.746311 -38.975321 
L 187.056828 -39.297756 
L 187.418179 -39.620191 
L 187.81322 -39.942626 
L 188.22551 -40.265061 
L 188.640263 -40.587496 
L 189.04503 -40.909931 
L 189.430059 -41.232366 
L 189.788377 -41.554802 
L 190.115612 -41.877237 
L 190.409658 -42.199672 
L 190.670221 -42.522107 
L 190.898353 -42.844542 
L 191.095997 -43.166977 
L 191.265607 -43.489412 
L 191.409852 -43.811847 
L 191.531416 -44.134282 
L 191.632879 -44.456718 
L 191.716664 -44.779153 
L 191.785033 -45.101588 
L 191.840102 -45.424023 
L 191.88387 -45.746458 
L 191.918233 -46.068893 
L 191.94499 -46.391328 
L 191.965827 -46.713763 
L 191.982292 -47.036198 
L 191.995755 -47.358634 
L 192.007368 -47.681069 
L 192.018038 -48.003504 
L 192.028403 -48.325939 
L 192.03884 -48.648374 
L 192.049487 -48.970809 
L 192.06029 -49.293244 
L 192.071068 -49.615679 
L 192.081591 -49.938114 
L 192.091656 -50.26055 
L 192.101166 -50.582985 
L 192.11018 -50.90542 
L 192.118954 -51.227855 
L 192.127944 -51.55029 
L 192.137783 -51.872725 
L 192.149231 -52.19516 
L 192.163105 -52.517595 
L 192.180187 -52.84003 
L 192.201144 -53.162466 
L 192.226437 -53.484901 
L 192.256265 -53.807336 
L 192.290521 -54.129771 
L 192.328788 -54.452206 
L 192.370363 -54.774641 
L 192.414312 -55.097076 
L 192.45955 -55.419511 
L 192.504935 -55.741946 
L 192.549367 -56.064382 
L 192.591879 -56.386817 
L 192.631718 -56.709252 
L 192.668388 -57.031687 
L 192.701675 -57.354122 
L 192.73164 -57.676557 
L 192.758575 -57.998992 
L 192.782948 -58.321427 
L 192.805331 -58.643862 
L 192.82632 -58.966298 
L 192.846469 -59.288733 
L 192.866226 -59.611168 
L 192.885902 -59.933603 
L 192.905649 -60.256038 
L 192.925465 -60.578473 
L 192.945214 -60.900908 
L 192.964668 -61.223343 
L 192.983545 -61.545778 
L 193.001556 -61.868214 
L 193.01845 -62.190649 
L 193.034045 -62.513084 
L 193.04826 -62.835519 
L 193.061123 -63.157954 
L 193.072774 -63.480389 
L 193.083459 -63.802824 
L 193.093507 -64.125259 
L 193.103309 -64.447694 
L 193.113282 -64.77013 
L 193.12384 -65.092565 
L 193.135362 -65.415 
L 193.14816 -65.737435 
L 193.162459 -66.05987 
L 193.178381 -66.382305 
L 193.195935 -66.70474 
L 193.215023 -67.027175 
L 193.235444 -67.34961 
L 193.256915 -67.672045 
L 193.279092 -67.994481 
L 193.30159 -68.316916 
L 193.324013 -68.639351 
L 193.345977 -68.961786 
L 193.689023 -68.961786 
L 193.689023 -68.961786 
L 193.710987 -68.639351 
L 193.73341 -68.316916 
L 193.755908 -67.994481 
L 193.778085 -67.672045 
L 193.799556 -67.34961 
L 193.819977 -67.027175 
L 193.839065 -66.70474 
L 193.856619 -66.382305 
L 193.872541 -66.05987 
L 193.88684 -65.737435 
L 193.899638 -65.415 
L 193.91116 -65.092565 
L 193.921718 -64.77013 
L 193.931691 -64.447694 
L 193.941493 -64.125259 
L 193.951541 -63.802824 
L 193.962226 -63.480389 
L 193.973877 -63.157954 
L 193.98674 -62.835519 
L 194.000955 -62.513084 
L 194.01655 -62.190649 
L 194.033444 -61.868214 
L 194.051455 -61.545778 
L 194.070332 -61.223343 
L 194.089786 -60.900908 
L 194.109535 -60.578473 
L 194.129351 -60.256038 
L 194.149098 -59.933603 
L 194.168774 -59.611168 
L 194.188531 -59.288733 
L 194.20868 -58.966298 
L 194.229669 -58.643862 
L 194.252052 -58.321427 
L 194.276425 -57.998992 
L 194.30336 -57.676557 
L 194.333325 -57.354122 
L 194.366612 -57.031687 
L 194.403282 -56.709252 
L 194.443121 -56.386817 
L 194.485633 -56.064382 
L 194.530065 -55.741946 
L 194.57545 -55.419511 
L 194.620688 -55.097076 
L 194.664637 -54.774641 
L 194.706212 -54.452206 
L 194.744479 -54.129771 
L 194.778735 -53.807336 
L 194.808563 -53.484901 
L 194.833856 -53.162466 
L 194.854813 -52.84003 
L 194.871895 -52.517595 
L 194.885769 -52.19516 
L 194.897217 -51.872725 
L 194.907056 -51.55029 
L 194.916046 -51.227855 
L 194.92482 -50.90542 
L 194.933834 -50.582985 
L 194.943344 -50.26055 
L 194.953409 -49.938114 
L 194.963932 -49.615679 
L 194.97471 -49.293244 
L 194.985513 -48.970809 
L 194.99616 -48.648374 
L 195.006597 -48.325939 
L 195.016962 -48.003504 
L 195.027632 -47.681069 
L 195.039245 -47.358634 
L 195.052708 -47.036198 
L 195.069173 -46.713763 
L 195.09001 -46.391328 
L 195.116767 -46.068893 
L 195.15113 -45.746458 
L 195.194898 -45.424023 
L 195.249967 -45.101588 
L 195.318336 -44.779153 
L 195.402121 -44.456718 
L 195.503584 -44.134282 
L 195.625148 -43.811847 
L 195.769393 -43.489412 
L 195.939003 -43.166977 
L 196.136647 -42.844542 
L 196.364779 -42.522107 
L 196.625342 -42.199672 
L 196.919388 -41.877237 
L 197.246623 -41.554802 
L 197.604941 -41.232366 
L 197.98997 -40.909931 
L 198.394737 -40.587496 
L 198.80949 -40.265061 
L 199.22178 -39.942626 
L 199.616821 -39.620191 
L 199.978172 -39.297756 
L 200.288689 -38.975321 
L 200.531709 -38.652886 
L 200.692344 -38.33045 
L 200.75875 -38.008015 
L 200.723232 -37.68558 
L 200.583047 -37.363145 
L 200.340796 -37.04071 
z
" style="stroke: #808080; stroke-opacity: 0.8"/>
    </defs>
    <g clip-path="url(#pe70a4e120e)">
     <use xlink:href="#mfa2cc79264" x="0" y="144" style="fill: #9467bd; fill-opacity: 0.8; stroke: #808080; stroke-opacity: 0.8"/>
    </g>
   </g>
   <g id="matplotlib.axis_1">
    <g id="xtick_1">
     <g id="line2d_1">
      <defs>
       <path id="m76abd26fc8" d="M 0 0 
L 0 3.5 
" style="stroke: #000000; stroke-width: 0.8"/>
      </defs>
      <g>
       <use xlink:href="#m76abd26fc8" x="48.6925" y="107.72" style="stroke: #000000; stroke-width: 0.8"/>
      </g>
     </g>
     <g id="text_1">
      <!-- 0 -->
      <g transform="translate(46.1475 120.79875)scale(0.08 -0.08)">
       <defs>
        <path id="DejaVuSans-30" d="M 2034 4250 
Q 1547 4250 1301 3770 
Q 1056 3291 1056 2328 
Q 1056 1369 1301 889 
Q 1547 409 2034 409 
Q 2525 409 2770 889 
Q 3016 1369 3016 2328 
Q 3016 3291 2770 3770 
Q 2525 4250 2034 4250 
z
M 2034 4750 
Q 2819 4750 3233 4129 
Q 3647 3509 3647 2328 
Q 3647 1150 3233 529 
Q 2819 -91 2034 -91 
Q 1250 -91 836 529 
Q 422 1150 422 2328 
Q 422 3509 836 4129 
Q 1250 4750 2034 4750 
z
" transform="scale(0.015625)"/>
       </defs>
       <use xlink:href="#DejaVuSans-30"/>
      </g>
     </g>
    </g>
    <g id="xtick_2">
     <g id="line2d_2">
      <g>
       <use xlink:href="#m76abd26fc8" x="77.6575" y="107.72" style="stroke: #000000; stroke-width: 0.8"/>
      </g>
     </g>
     <g id="text_2">
      <!-- 1 -->
      <g transform="translate(75.1125 120.79875)scale(0.08 -0.08)">
       <defs>
        <path id="DejaVuSans-31" d="M 794 531 
L 1825 531 
L 1825 4091 
L 703 3866 
L 703 4441 
L 1819 4666 
L 2450 4666 
L 2450 531 
L 3481 531 
L 3481 0 
L 794 0 
L 794 531 
z
" transform="scale(0.015625)"/>
       </defs>
       <use xlink:href="#DejaVuSans-31"/>
      </g>
     </g>
    </g>
    <g id="xtick_3">
     <g id="line2d_3">
      <g>
       <use xlink:href="#m76abd26fc8" x="106.6225" y="107.72" style="stroke: #000000; stroke-width: 0.8"/>
      </g>
     </g>
     <g id="text_3">
      <!-- 2 -->
      <g transform="translate(104.0775 120.79875)scale(0.08 -0.08)">
       <defs>
        <path id="DejaVuSans-32" d="M 1228 531 
L 3431 531 
L 3431 0 
L 469 0 
L 469 531 
Q 828 903 1448 1529 
Q 2069 2156 2228 2338 
Q 2531 2678 2651 2914 
Q 2772 3150 2772 3378 
Q 2772 3750 2511 3984 
Q 2250 4219 1831 4219 
Q 1534 4219 1204 4116 
Q 875 4013 500 3803 
L 500 4441 
Q 881 4594 1212 4672 
Q 1544 4750 1819 4750 
Q 2544 4750 2975 4387 
Q 3406 4025 3406 3419 
Q 3406 3131 3298 2873 
Q 3191 2616 2906 2266 
Q 2828 2175 2409 1742 
Q 1991 1309 1228 531 
z
" transform="scale(0.015625)"/>
       </defs>
       <use xlink:href="#DejaVuSans-32"/>
      </g>
     </g>
    </g>
    <g id="xtick_4">
     <g id="line2d_4">
      <g>
       <use xlink:href="#m76abd26fc8" x="135.5875" y="107.72" style="stroke: #000000; stroke-width: 0.8"/>
      </g>
     </g>
     <g id="text_4">
      <!-- 3 -->
      <g transform="translate(133.0425 120.79875)scale(0.08 -0.08)">
       <defs>
        <path id="DejaVuSans-33" d="M 2597 2516 
Q 3050 2419 3304 2112 
Q 3559 1806 3559 1356 
Q 3559 666 3084 287 
Q 2609 -91 1734 -91 
Q 1441 -91 1130 -33 
Q 819 25 488 141 
L 488 750 
Q 750 597 1062 519 
Q 1375 441 1716 441 
Q 2309 441 2620 675 
Q 2931 909 2931 1356 
Q 2931 1769 2642 2001 
Q 2353 2234 1838 2234 
L 1294 2234 
L 1294 2753 
L 1863 2753 
Q 2328 2753 2575 2939 
Q 2822 3125 2822 3475 
Q 2822 3834 2567 4026 
Q 2313 4219 1838 4219 
Q 1578 4219 1281 4162 
Q 984 4106 628 3988 
L 628 4550 
Q 988 4650 1302 4700 
Q 1616 4750 1894 4750 
Q 2613 4750 3031 4423 
Q 3450 4097 3450 3541 
Q 3450 3153 3228 2886 
Q 3006 2619 2597 2516 
z
" transform="scale(0.015625)"/>
       </defs>
       <use xlink:href="#DejaVuSans-33"/>
      </g>
     </g>
    </g>
    <g id="xtick_5">
     <g id="line2d_5">
      <g>
       <use xlink:href="#m76abd26fc8" x="164.5525" y="107.72" style="stroke: #000000; stroke-width: 0.8"/>
      </g>
     </g>
     <g id="text_5">
      <!-- 4 -->
      <g transform="translate(162.0075 120.79875)scale(0.08 -0.08)">
       <defs>
        <path id="DejaVuSans-34" d="M 2419 4116 
L 825 1625 
L 2419 1625 
L 2419 4116 
z
M 2253 4666 
L 3047 4666 
L 3047 1625 
L 3713 1625 
L 3713 1100 
L 3047 1100 
L 3047 0 
L 2419 0 
L 2419 1100 
L 313 1100 
L 313 1709 
L 2253 4666 
z
" transform="scale(0.015625)"/>
       </defs>
       <use xlink:href="#DejaVuSans-34"/>
      </g>
     </g>
    </g>
    <g id="xtick_6">
     <g id="line2d_6">
      <g>
       <use xlink:href="#m76abd26fc8" x="193.5175" y="107.72" style="stroke: #000000; stroke-width: 0.8"/>
      </g>
     </g>
     <g id="text_6">
      <!-- 5 -->
      <g transform="translate(190.9725 120.79875)scale(0.08 -0.08)">
       <defs>
        <path id="DejaVuSans-35" d="M 691 4666 
L 3169 4666 
L 3169 4134 
L 1269 4134 
L 1269 2991 
Q 1406 3038 1543 3061 
Q 1681 3084 1819 3084 
Q 2600 3084 3056 2656 
Q 3513 2228 3513 1497 
Q 3513 744 3044 326 
Q 2575 -91 1722 -91 
Q 1428 -91 1123 -41 
Q 819 9 494 109 
L 494 744 
Q 775 591 1075 516 
Q 1375 441 1709 441 
Q 2250 441 2565 725 
Q 2881 1009 2881 1497 
Q 2881 1984 2565 2268 
Q 2250 2553 1709 2553 
Q 1456 2553 1204 2497 
Q 953 2441 691 2322 
L 691 4666 
z
" transform="scale(0.015625)"/>
       </defs>
       <use xlink:href="#DejaVuSans-35"/>
      </g>
     </g>
    </g>
    <g id="text_7">
     <!-- Round -->
     <g transform="translate(105.284687 134.060937)scale(0.1 -0.1)">
      <defs>
       <path id="DejaVuSans-52" d="M 2841 2188 
Q 3044 2119 3236 1894 
Q 3428 1669 3622 1275 
L 4263 0 
L 3584 0 
L 2988 1197 
Q 2756 1666 2539 1819 
Q 2322 1972 1947 1972 
L 1259 1972 
L 1259 0 
L 628 0 
L 628 4666 
L 2053 4666 
Q 2853 4666 3247 4331 
Q 3641 3997 3641 3322 
Q 3641 2881 3436 2590 
Q 3231 2300 2841 2188 
z
M 1259 4147 
L 1259 2491 
L 2053 2491 
Q 2509 2491 2742 2702 
Q 2975 2913 2975 3322 
Q 2975 3731 2742 3939 
Q 2509 4147 2053 4147 
L 1259 4147 
z
" transform="scale(0.015625)"/>
       <path id="DejaVuSans-6f" d="M 1959 3097 
Q 1497 3097 1228 2736 
Q 959 2375 959 1747 
Q 959 1119 1226 758 
Q 1494 397 1959 397 
Q 2419 397 2687 759 
Q 2956 1122 2956 1747 
Q 2956 2369 2687 2733 
Q 2419 3097 1959 3097 
z
M 1959 3584 
Q 2709 3584 3137 3096 
Q 3566 2609 3566 1747 
Q 3566 888 3137 398 
Q 2709 -91 1959 -91 
Q 1206 -91 779 398 
Q 353 888 353 1747 
Q 353 2609 779 3096 
Q 1206 3584 1959 3584 
z
" transform="scale(0.015625)"/>
       <path id="DejaVuSans-75" d="M 544 1381 
L 544 3500 
L 1119 3500 
L 1119 1403 
Q 1119 906 1312 657 
Q 1506 409 1894 409 
Q 2359 409 2629 706 
Q 2900 1003 2900 1516 
L 2900 3500 
L 3475 3500 
L 3475 0 
L 2900 0 
L 2900 538 
Q 2691 219 2414 64 
Q 2138 -91 1772 -91 
Q 1169 -91 856 284 
Q 544 659 544 1381 
z
M 1991 3584 
L 1991 3584 
z
" transform="scale(0.015625)"/>
       <path id="DejaVuSans-6e" d="M 3513 2113 
L 3513 0 
L 2938 0 
L 2938 2094 
Q 2938 2591 2744 2837 
Q 2550 3084 2163 3084 
Q 1697 3084 1428 2787 
Q 1159 2491 1159 1978 
L 1159 0 
L 581 0 
L 581 3500 
L 1159 3500 
L 1159 2956 
Q 1366 3272 1645 3428 
Q 1925 3584 2291 3584 
Q 2894 3584 3203 3211 
Q 3513 2838 3513 2113 
z
" transform="scale(0.015625)"/>
       <path id="DejaVuSans-64" d="M 2906 2969 
L 2906 4863 
L 3481 4863 
L 3481 0 
L 2906 0 
L 2906 525 
Q 2725 213 2448 61 
Q 2172 -91 1784 -91 
Q 1150 -91 751 415 
Q 353 922 353 1747 
Q 353 2572 751 3078 
Q 1150 3584 1784 3584 
Q 2172 3584 2448 3432 
Q 2725 3281 2906 2969 
z
M 947 1747 
Q 947 1113 1208 752 
Q 1469 391 1925 391 
Q 2381 391 2643 752 
Q 2906 1113 2906 1747 
Q 2906 2381 2643 2742 
Q 2381 3103 1925 3103 
Q 1469 3103 1208 2742 
Q 947 2381 947 1747 
z
" transform="scale(0.015625)"/>
      </defs>
      <use xlink:href="#DejaVuSans-52"/>
      <use xlink:href="#DejaVuSans-6f" x="64.982422"/>
      <use xlink:href="#DejaVuSans-75" x="126.164062"/>
      <use xlink:href="#DejaVuSans-6e" x="189.542969"/>
      <use xlink:href="#DejaVuSans-64" x="252.921875"/>
     </g>
    </g>
   </g>
   <g id="matplotlib.axis_2">
    <g id="ytick_1">
     <g id="line2d_7">
      <defs>
       <path id="m172ae09345" d="M 0 0 
L -3.5 0 
" style="stroke: #000000; stroke-width: 0.8"/>
      </defs>
      <g>
       <use xlink:href="#m172ae09345" x="34.21" y="107.72" style="stroke: #000000; stroke-width: 0.8"/>
      </g>
     </g>
     <g id="text_8">
      <!-- 0 -->
      <g transform="translate(22.12 110.759375)scale(0.08 -0.08)">
       <use xlink:href="#DejaVuSans-30"/>
      </g>
     </g>
    </g>
    <g id="ytick_2">
     <g id="line2d_8">
      <g>
       <use xlink:href="#m172ae09345" x="34.21" y="83.51" style="stroke: #000000; stroke-width: 0.8"/>
      </g>
     </g>
     <g id="text_9">
      <!-- 2 -->
      <g transform="translate(22.12 86.549375)scale(0.08 -0.08)">
       <use xlink:href="#DejaVuSans-32"/>
      </g>
     </g>
    </g>
    <g id="ytick_3">
     <g id="line2d_9">
      <g>
       <use xlink:href="#m172ae09345" x="34.21" y="59.3" style="stroke: #000000; stroke-width: 0.8"/>
      </g>
     </g>
     <g id="text_10">
      <!-- 4 -->
      <g transform="translate(22.12 62.339375)scale(0.08 -0.08)">
       <use xlink:href="#DejaVuSans-34"/>
      </g>
     </g>
    </g>
    <g id="ytick_4">
     <g id="line2d_10">
      <g>
       <use xlink:href="#m172ae09345" x="34.21" y="35.09" style="stroke: #000000; stroke-width: 0.8"/>
      </g>
     </g>
     <g id="text_11">
      <!-- 6 -->
      <g transform="translate(22.12 38.129375)scale(0.08 -0.08)">
       <defs>
        <path id="DejaVuSans-36" d="M 2113 2584 
Q 1688 2584 1439 2293 
Q 1191 2003 1191 1497 
Q 1191 994 1439 701 
Q 1688 409 2113 409 
Q 2538 409 2786 701 
Q 3034 994 3034 1497 
Q 3034 2003 2786 2293 
Q 2538 2584 2113 2584 
z
M 3366 4563 
L 3366 3988 
Q 3128 4100 2886 4159 
Q 2644 4219 2406 4219 
Q 1781 4219 1451 3797 
Q 1122 3375 1075 2522 
Q 1259 2794 1537 2939 
Q 1816 3084 2150 3084 
Q 2853 3084 3261 2657 
Q 3669 2231 3669 1497 
Q 3669 778 3244 343 
Q 2819 -91 2113 -91 
Q 1303 -91 875 529 
Q 447 1150 447 2328 
Q 447 3434 972 4092 
Q 1497 4750 2381 4750 
Q 2619 4750 2861 4703 
Q 3103 4656 3366 4563 
z
" transform="scale(0.015625)"/>
       </defs>
       <use xlink:href="#DejaVuSans-36"/>
      </g>
     </g>
    </g>
    <g id="ytick_5">
     <g id="line2d_11">
      <g>
       <use xlink:href="#m172ae09345" x="34.21" y="10.88" style="stroke: #000000; stroke-width: 0.8"/>
      </g>
     </g>
     <g id="text_12">
      <!-- 8 -->
      <g transform="translate(22.12 13.919375)scale(0.08 -0.08)">
       <defs>
        <path id="DejaVuSans-38" d="M 2034 2216 
Q 1584 2216 1326 1975 
Q 1069 1734 1069 1313 
Q 1069 891 1326 650 
Q 1584 409 2034 409 
Q 2484 409 2743 651 
Q 3003 894 3003 1313 
Q 3003 1734 2745 1975 
Q 2488 2216 2034 2216 
z
M 1403 2484 
Q 997 2584 770 2862 
Q 544 3141 544 3541 
Q 544 4100 942 4425 
Q 1341 4750 2034 4750 
Q 2731 4750 3128 4425 
Q 3525 4100 3525 3541 
Q 3525 3141 3298 2862 
Q 3072 2584 2669 2484 
Q 3125 2378 3379 2068 
Q 3634 1759 3634 1313 
Q 3634 634 3220 271 
Q 2806 -91 2034 -91 
Q 1263 -91 848 271 
Q 434 634 434 1313 
Q 434 1759 690 2068 
Q 947 2378 1403 2484 
z
M 1172 3481 
Q 1172 3119 1398 2916 
Q 1625 2713 2034 2713 
Q 2441 2713 2670 2916 
Q 2900 3119 2900 3481 
Q 2900 3844 2670 4047 
Q 2441 4250 2034 4250 
Q 1625 4250 1398 4047 
Q 1172 3844 1172 3481 
z
" transform="scale(0.015625)"/>
       </defs>
       <use xlink:href="#DejaVuSans-38"/>
      </g>
     </g>
    </g>
    <g id="text_13">
     <!-- Fitness -->
     <g transform="translate(16.040312 76.617187)rotate(-90)scale(0.1 -0.1)">
      <defs>
       <path id="DejaVuSans-46" d="M 628 4666 
L 3309 4666 
L 3309 4134 
L 1259 4134 
L 1259 2759 
L 3109 2759 
L 3109 2228 
L 1259 2228 
L 1259 0 
L 628 0 
L 628 4666 
z
" transform="scale(0.015625)"/>
       <path id="DejaVuSans-69" d="M 603 3500 
L 1178 3500 
L 1178 0 
L 603 0 
L 603 3500 
z
M 603 4863 
L 1178 4863 
L 1178 4134 
L 603 4134 
L 603 4863 
z
" transform="scale(0.015625)"/>
       <path id="DejaVuSans-74" d="M 1172 4494 
L 1172 3500 
L 2356 3500 
L 2356 3053 
L 1172 3053 
L 1172 1153 
Q 1172 725 1289 603 
Q 1406 481 1766 481 
L 2356 481 
L 2356 0 
L 1766 0 
Q 1100 0 847 248 
Q 594 497 594 1153 
L 594 3053 
L 172 3053 
L 172 3500 
L 594 3500 
L 594 4494 
L 1172 4494 
z
" transform="scale(0.015625)"/>
       <path id="DejaVuSans-65" d="M 3597 1894 
L 3597 1613 
L 953 1613 
Q 991 1019 1311 708 
Q 1631 397 2203 397 
Q 2534 397 2845 478 
Q 3156 559 3463 722 
L 3463 178 
Q 3153 47 2828 -22 
Q 2503 -91 2169 -91 
Q 1331 -91 842 396 
Q 353 884 353 1716 
Q 353 2575 817 3079 
Q 1281 3584 2069 3584 
Q 2775 3584 3186 3129 
Q 3597 2675 3597 1894 
z
M 3022 2063 
Q 3016 2534 2758 2815 
Q 2500 3097 2075 3097 
Q 1594 3097 1305 2825 
Q 1016 2553 972 2059 
L 3022 2063 
z
" transform="scale(0.015625)"/>
       <path id="DejaVuSans-73" d="M 2834 3397 
L 2834 2853 
Q 2591 2978 2328 3040 
Q 2066 3103 1784 3103 
Q 1356 3103 1142 2972 
Q 928 2841 928 2578 
Q 928 2378 1081 2264 
Q 1234 2150 1697 2047 
L 1894 2003 
Q 2506 1872 2764 1633 
Q 3022 1394 3022 966 
Q 3022 478 2636 193 
Q 2250 -91 1575 -91 
Q 1294 -91 989 -36 
Q 684 19 347 128 
L 347 722 
Q 666 556 975 473 
Q 1284 391 1588 391 
Q 1994 391 2212 530 
Q 2431 669 2431 922 
Q 2431 1156 2273 1281 
Q 2116 1406 1581 1522 
L 1381 1569 
Q 847 1681 609 1914 
Q 372 2147 372 2553 
Q 372 3047 722 3315 
Q 1072 3584 1716 3584 
Q 2034 3584 2315 3537 
Q 2597 3491 2834 3397 
z
" transform="scale(0.015625)"/>
      </defs>
      <use xlink:href="#DejaVuSans-46"/>
      <use xlink:href="#DejaVuSans-69" x="50.269531"/>
      <use xlink:href="#DejaVuSans-74" x="78.052734"/>
      <use xlink:href="#DejaVuSans-6e" x="117.261719"/>
      <use xlink:href="#DejaVuSans-65" x="180.640625"/>
      <use xlink:href="#DejaVuSans-73" x="242.164062"/>
      <use xlink:href="#DejaVuSans-73" x="294.263672"/>
     </g>
    </g>
   </g>
   <g id="LineCollection_1">
    <path d="M 48.6925 95.615 
L 48.6925 95.615 
" clip-path="url(#pe70a4e120e)" style="fill: none; stroke: #000000; stroke-width: 5"/>
    <path d="M 77.6575 103.104969 
L 77.6575 86.618261 
" clip-path="url(#pe70a4e120e)" style="fill: none; stroke: #000000; stroke-width: 5"/>
    <path d="M 106.6225 105.960902 
L 106.6225 87.981576 
" clip-path="url(#pe70a4e120e)" style="fill: none; stroke: #000000; stroke-width: 5"/>
    <path d="M 135.5875 105.376479 
L 135.5875 79.416946 
" clip-path="url(#pe70a4e120e)" style="fill: none; stroke: #000000; stroke-width: 5"/>
    <path d="M 164.5525 106.305173 
L 164.5525 90.000653 
" clip-path="url(#pe70a4e120e)" style="fill: none; stroke: #000000; stroke-width: 5"/>
    <path d="M 193.5175 106.621445 
L 193.5175 96.725123 
" clip-path="url(#pe70a4e120e)" style="fill: none; stroke: #000000; stroke-width: 5"/>
   </g>
   <g id="LineCollection_2">
    <path d="M 48.6925 95.615 
L 48.6925 95.615 
" clip-path="url(#pe70a4e120e)" style="fill: none; stroke: #000000"/>
    <path d="M 77.6575 107.319324 
L 77.6575 71.494577 
" clip-path="url(#pe70a4e120e)" style="fill: none; stroke: #000000"/>
    <path d="M 106.6225 107.049457 
L 106.6225 61.012586 
" clip-path="url(#pe70a4e120e)" style="fill: none; stroke: #000000"/>
    <path d="M 135.5875 107.26419 
L 135.5875 40.477647 
" clip-path="url(#pe70a4e120e)" style="fill: none; stroke: #000000"/>
    <path d="M 164.5525 107.090723 
L 164.5525 65.543873 
" clip-path="url(#pe70a4e120e)" style="fill: none; stroke: #000000"/>
    <path d="M 193.5175 106.95929 
L 193.5175 81.88064 
" clip-path="url(#pe70a4e120e)" style="fill: none; stroke: #000000"/>
   </g>
   <g id="line2d_12">
    <path d="M 48.6925 95.615 
L 77.6575 71.494577 
L 106.6225 55.098076 
L 135.5875 31.980124 
L 164.5525 18.721534 
L 193.5175 18.721534 
" clip-path="url(#pe70a4e120e)" style="fill: none; stroke: #e377c2; stroke-linecap: square"/>
   </g>
   <g id="LineCollection_3">
    <path d="M 48.6925 95.615 
L 193.5175 95.615 
" clip-path="url(#pe70a4e120e)" style="fill: none; stroke-dasharray: 3.7,1.6; stroke-dashoffset: 0; stroke: #808080"/>
   </g>
   <g id="patch_3">
    <path d="M 34.21 107.72 
L 34.21 10.88 
" style="fill: none; stroke: #000000; stroke-width: 0.8; stroke-linejoin: miter; stroke-linecap: square"/>
   </g>
   <g id="patch_4">
    <path d="M 208 107.72 
L 208 10.88 
" style="fill: none; stroke: #000000; stroke-width: 0.8; stroke-linejoin: miter; stroke-linecap: square"/>
   </g>
   <g id="patch_5">
    <path d="M 34.21 107.72 
L 208 107.72 
" style="fill: none; stroke: #000000; stroke-width: 0.8; stroke-linejoin: miter; stroke-linecap: square"/>
   </g>
   <g id="patch_6">
    <path d="M 34.21 10.88 
L 208 10.88 
" style="fill: none; stroke: #000000; stroke-width: 0.8; stroke-linejoin: miter; stroke-linecap: square"/>
   </g>
   <g id="PathCollection_1">
    <defs>
     <path id="m3ef6154b50" d="M 0 1.118034 
C 0.296506 1.118034 0.580908 1.000231 0.790569 0.790569 
C 1.000231 0.580908 1.118034 0.296506 1.118034 0 
C 1.118034 -0.296506 1.000231 -0.580908 0.790569 -0.790569 
C 0.580908 -1.000231 0.296506 -1.118034 0 -1.118034 
C -0.296506 -1.118034 -0.580908 -1.000231 -0.790569 -0.790569 
C -1.000231 -0.580908 -1.118034 -0.296506 -1.118034 0 
C -1.118034 0.296506 -1.000231 0.580908 -0.790569 0.790569 
C -0.580908 1.000231 -0.296506 1.118034 0 1.118034 
z
" style="stroke: #ffffff"/>
    </defs>
    <g clip-path="url(#pe70a4e120e)">
     <use xlink:href="#m3ef6154b50" x="48.6925" y="95.615" style="fill: #ffffff; stroke: #ffffff"/>
     <use xlink:href="#m3ef6154b50" x="77.6575" y="97.567536" style="fill: #ffffff; stroke: #ffffff"/>
     <use xlink:href="#m3ef6154b50" x="106.6225" y="94.385749" style="fill: #ffffff; stroke: #ffffff"/>
     <use xlink:href="#m3ef6154b50" x="135.5875" y="92.940771" style="fill: #ffffff; stroke: #ffffff"/>
     <use xlink:href="#m3ef6154b50" x="164.5525" y="104.637988" style="fill: #ffffff; stroke: #ffffff"/>
     <use xlink:href="#m3ef6154b50" x="193.5175" y="105.057529" style="fill: #ffffff; stroke: #ffffff"/>
    </g>
   </g>
  </g>
  <g id="text_14">
   <!-- 1.00 -->
   <g transform="translate(38.3475 103.45625)scale(0.08 -0.08)">
    <defs>
     <path id="DejaVuSans-2e" d="M 684 794 
L 1344 794 
L 1344 0 
L 684 0 
L 684 794 
z
" transform="scale(0.015625)"/>
    </defs>
    <use xlink:href="#DejaVuSans-31"/>
    <use xlink:href="#DejaVuSans-2e" x="63.623047"/>
    <use xlink:href="#DejaVuSans-30" x="95.410156"/>
    <use xlink:href="#DejaVuSans-30" x="159.033203"/>
   </g>
  </g>
  <g id="text_15">
   <!-- 2.99 -->
   <g transform="translate(57.7875 71.77625)scale(0.08 -0.08)">
    <defs>
     <path id="DejaVuSans-39" d="M 703 97 
L 703 672 
Q 941 559 1184 500 
Q 1428 441 1663 441 
Q 2288 441 2617 861 
Q 2947 1281 2994 2138 
Q 2813 1869 2534 1725 
Q 2256 1581 1919 1581 
Q 1219 1581 811 2004 
Q 403 2428 403 3163 
Q 403 3881 828 4315 
Q 1253 4750 1959 4750 
Q 2769 4750 3195 4129 
Q 3622 3509 3622 2328 
Q 3622 1225 3098 567 
Q 2575 -91 1691 -91 
Q 1453 -91 1209 -44 
Q 966 3 703 97 
z
M 1959 2075 
Q 2384 2075 2632 2365 
Q 2881 2656 2881 3163 
Q 2881 3666 2632 3958 
Q 2384 4250 1959 4250 
Q 1534 4250 1286 3958 
Q 1038 3666 1038 3163 
Q 1038 2656 1286 2365 
Q 1534 2075 1959 2075 
z
" transform="scale(0.015625)"/>
    </defs>
    <use xlink:href="#DejaVuSans-32"/>
    <use xlink:href="#DejaVuSans-2e" x="63.623047"/>
    <use xlink:href="#DejaVuSans-39" x="95.410156"/>
    <use xlink:href="#DejaVuSans-39" x="159.033203"/>
   </g>
  </g>
  <g id="text_16">
   <!-- 4.35 -->
   <g transform="translate(88.0275 54.49625)scale(0.08 -0.08)">
    <use xlink:href="#DejaVuSans-34"/>
    <use xlink:href="#DejaVuSans-2e" x="63.623047"/>
    <use xlink:href="#DejaVuSans-33" x="95.410156"/>
    <use xlink:href="#DejaVuSans-35" x="159.033203"/>
   </g>
  </g>
  <g id="text_17">
   <!-- 6.26 -->
   <g transform="translate(116.1075 31.45625)scale(0.08 -0.08)">
    <use xlink:href="#DejaVuSans-36"/>
    <use xlink:href="#DejaVuSans-2e" x="63.623047"/>
    <use xlink:href="#DejaVuSans-32" x="95.410156"/>
    <use xlink:href="#DejaVuSans-36" x="159.033203"/>
   </g>
  </g>
  <g id="text_18">
   <!-- 7.35 -->
   <g transform="translate(144.1875 18.49625)scale(0.08 -0.08)">
    <defs>
     <path id="DejaVuSans-37" d="M 525 4666 
L 3525 4666 
L 3525 4397 
L 1831 0 
L 1172 0 
L 2766 4134 
L 525 4134 
L 525 4666 
z
" transform="scale(0.015625)"/>
    </defs>
    <use xlink:href="#DejaVuSans-37"/>
    <use xlink:href="#DejaVuSans-2e" x="63.623047"/>
    <use xlink:href="#DejaVuSans-33" x="95.410156"/>
    <use xlink:href="#DejaVuSans-35" x="159.033203"/>
   </g>
  </g>
  <g id="text_19">
   <!-- 7.35 -->
   <g transform="translate(183.0675 27.13625)scale(0.08 -0.08)">
    <use xlink:href="#DejaVuSans-37"/>
    <use xlink:href="#DejaVuSans-2e" x="63.623047"/>
    <use xlink:href="#DejaVuSans-33" x="95.410156"/>
    <use xlink:href="#DejaVuSans-35" x="159.033203"/>
   </g>
  </g>
 </g>
 <defs>
  <clipPath id="pe70a4e120e">
   <rect x="34.21" y="10.88" width="173.79" height="96.84"/>
  </clipPath>
 </defs>
</svg>
